<svg
        width="1043"
        height="490"
        viewBox="0 0 1043 490"
        fill="none"
        xmlns="http://www.w3.org/2000/svg"
       
      >
        <g clipPath="url(#clip0_98_665)">
          <path
            d="M639.198 76.2037L681.685 86.115H798.524L804.898 78.3275L808.438 60.6288H821.184L817.644 68.4162L811.271 72.6639L820.476 88.2388L831.806 96.0262L836.763 83.9911L823.386 71.0073L828.265 62.7526H857.298L884.915 81.1593L884.207 89.6547L901.555 97.0882L896.931 105.796L887.039 98.858L885.623 102.398L894.12 110.893L889.517 119.743L866.858 108.415L871.206 90.3627L854.112 81.5133L846.322 95.6723L809.663 125.583L817.998 138.857L850.472 153.873L861.193 138.857L855.174 132.84L856.944 116.203L879.25 120.804L881.02 131.778L887.393 134.609L894.035 125.583L917.842 157.972L905.096 165.759L886.685 167.883L896.599 180.626L904.806 178.07L908.183 180.626L889.517 190.537V183.458L876.814 190.537L876.771 194.785L860.485 211.776V217.44L847.03 228.059L851.279 242.926L848.447 247.881L842.074 237.97L841.365 232.306H809.5L800.295 249.297L805.252 262.748L817.29 266.288L822.671 257.439H832.521L826.495 273.368H838.979L842.074 278.323L841.365 288.942L848.447 293.898L852.695 290.358L859.89 293.898L865.441 285.403L900.847 289.65L914.301 301.686H924.491L974.491 332.835V345.047L956.788 381.684L937.669 389.471V399.382L882.436 472.301V482.213L890.934 487.876L888.101 490L870.398 482.213L864.733 460.974L878.039 369.776L859.068 357.613L847.03 332.835L849.438 317.437L857.652 308.765L856.944 296.73L852.695 293.898L847.739 298.854L810.208 272.66L803.658 273.983L779.051 262.748V254.961L759.224 228.767H754.975L769.846 251.421L767.721 254.961L743.645 219.563H736.564L724.526 201.157V172.839L681.721 125.583L649.112 132.84L614.584 153.873L615.831 148.414L635.658 133.548L616.539 128.592L612.998 115.849L623.62 113.017L625.036 108.061H611.582L606.625 102.398L615.831 98.858L622.912 100.274L625.744 97.4421L617.955 96.0262L610.52 87.7008L639.198 76.2037Z"
            fill="#14256A"
          />
          <path
            d="M724.774 69.3507L733.704 73.5418L743.065 71.4463L747.908 81.1593H790.155H795.848L785.382 73.5418L780.05 65.9243L785.233 61.4146L778.74 58.4908L766.872 66.3561L748.581 57.7687L728.421 56.3669L724.774 69.3507Z"
            fill="#14256A"
          />
          <path
            d="M751.229 47.1353L746.018 53.9953L748.624 55.6378H754.756L755.96 58.505H763.536L769.846 56.0272L777.324 56.1829L780.446 50.9724L773.174 49.33L771.39 44.9407L765.456 48.5087L763.232 51.7228L754.267 46.8238L751.229 47.1353Z"
            fill="#14256A"
          />
          <path
            d="M741.649 41.9248L732.67 47.8857V51.7228L742.102 53.167L751.966 41.9248H741.649Z"
            fill="#14256A"
          />
          <path
            d="M753.913 39.6948L761.547 42.9301H765.455L768.684 36.6223L765.455 34.4347L753.913 39.6948Z"
            fill="#14256A"
          />
          <path
            d="M781.282 44.5229L780.114 48.268L785.863 52.6998H793.277L794.729 56.3811L801.223 54.7599L802.271 50.4556L799.898 44.5229H791.196L786.727 46.2503L781.282 44.5229Z"
            fill="#14256A"
          />
          <path
            d="M789.779 61.7048L785.07 67.0003L787.421 70.9082H789.779L794.354 75.6798L801.357 72.6639L802.596 68.6923L799.438 61.7048H789.779Z"
            fill="#14256A"
          />
          <path
            d="M809.323 51.7228L804.189 54.2572V56.3811L810.867 58.5049L813.636 55.3687L809.323 51.7228Z"
            fill="#14256A"
          />
          <path
            d="M805.429 44.0698V46.0379L808.913 48.5228H814.457L817.332 51.7228L816.001 55.1138L818.352 57.089L850.054 58.5049L852.285 56.3811V53.167L845.31 50.5759L838.42 51.213L831.742 53.167L821.432 49.3794L823.386 48.3529L818.564 46.0379L813.6 46.6397L812.573 44.9406L805.429 44.0698Z"
            fill="#14256A"
          />
          <path
            d="M778.754 30.9444L780.446 35.9001L782.946 37.6982L787.903 36.3744L792.612 36.877C792.612 36.877 791.649 39.0009 792.612 39.2133C794.106 39.3644 795.607 39.433 797.108 39.4185L797.816 37.6982L794.453 33.4505L786.508 30.2152L778.754 30.9444Z"
            fill="#14256A"
          />
          <path
            d="M804.189 26.3853L813.636 30.3286L817.105 37.6771H825.511L835.056 30.187L826.849 23.1075H819.924L815.519 18.1519H810.364L804.189 26.3853Z"
            fill="#14256A"
          />
          <path
            d="M817.105 15.1925L822.416 16.8421L828.853 20.127L835.056 19.1429L832.514 23.1074L835.056 27.9144L839.425 31.1851L833.378 33.4222L830.97 37.677L828.853 41.3584L822.416 46.0379L835.056 48.5936H852.547L857.921 46.0379L852.547 41.9247L856.25 39.3903L861.497 38.392L866.511 30.1869L901.201 12.4882L904.742 6.82459L872.169 5.40869H847.668L842.421 11.7732H825.008L817.105 15.1925Z"
            fill="#14256A"
          />
          <path
            d="M799.728 33.4222L800.918 37.677L807.355 41.9247H813.735V39.3903L808.566 37.677L808.913 34.7886L799.728 33.4222Z"
            fill="#14256A"
          />
          <path
            d="M839.425 102.957L833.222 108.769L836.324 116.075L843.369 111.063L848.093 114.433L850.217 111.601L839.425 102.957Z"
            fill="#14256A"
          />
          <path
            d="M904.742 13.7555L888.561 30.3286L870.257 36.3603L882.465 49.7618H907.631L919.612 73.3719L929.738 75.6798V88.4087L923.861 97.4422L933.775 117.973L947.937 127.176L961.377 112.111V106.015L968.472 99.566L980.539 99.1625L985.835 88.7981H999.686L1013.08 79.0355L1008.81 70.4693L1011.67 64.8765L1018.75 64.1686V51.7228L1011.32 44.9407L1021.72 44.6079L1023.52 41.3584L1012.74 36.3603L1038.58 16.028L1027.38 11.7732L1020.16 16.028L1010.25 13.1962L1012.4 9.12551L995.954 3.54688L949.75 5.40878L904.742 13.7555Z"
            fill="#14256A"
          />
          <path
            d="M1010.25 98.858L1005.57 102.957L1007.91 109.513L1021.37 112.111L1035.01 106.015L1028.75 98.858L1015.18 100.954L1010.25 98.858Z"
            fill="#14256A"
          />
          <path
            d="M917.488 161.158L907.631 173.879L918.579 176.187L927.125 178.07V172.067L918.904 166.821L917.488 161.158Z"
            fill="#14256A"
          />
          <path
            d="M837.471 256.023L844.552 254.607L853.602 257.439L858.714 261.686L864.379 263.102L865.796 260.271L857.964 257.439L848.801 251.775H842.463L837.471 256.023Z"
            fill="#14256A"
          />
          <path
            d="M853.758 266.642L859.422 268.058L862.333 266.642H853.758Z"
            fill="#14256A"
          />
          <path
            d="M870.752 260.978L868.663 263.102L870.752 265.233H865.796L868.274 268.058L883.952 266.642L879.25 261.686L870.752 260.978Z"
            fill="#14256A"
          />
          <path
            d="M886.784 266.642L889.624 268.058L891.288 265.934L886.784 266.642Z"
            fill="#14256A"
          />
          <path
            d="M313.111 47.5317H365.766L347.1 64.5225L407.998 65.2305L410.123 73.7259H438.447L442.696 67.3543H459.691L473.145 77.2656H492.264L495.805 82.9292L537.421 81.8815L579.008 100.996L567.679 109.491L550.684 102.412L545.104 109.491L548.56 117.279L513.154 127.898H502.829L499.699 137.101L501.824 145.597L489.078 161.172L482.705 164.004L481.997 140.641L504.302 122.574L507.135 115.495L502.886 116.911L495.097 123.99L490.848 119.035L478.102 131.778H443.404L426.409 148.061L441.28 150.892L438.447 172.131L422.869 190.537L412.955 192.661L404.458 201.865L410.123 211.068L406.582 217.44L398.793 219.563L401.625 207.528H396.669V200.449L386.755 197.617L377.549 204.696L388.171 233.014L375.425 250.713L358.31 256.731L357.269 260.624H355.145L354.26 256.731L348.049 257.439L342.144 264.164L353.36 275.314L352.765 286.819L341.329 295.413L328.689 279.739L325.857 291.774L336.479 304.517L339.311 314.429L328.689 309.473V300.978L321.877 295.413L322.316 272.66L318.068 269.828L313.033 275.314L303.905 255.669L291.811 257.439L272.04 274.783V288.496L264.577 295.413C264.577 295.413 251.505 272.66 251.505 271.952V254.897L245.132 259.917L233.094 245.758L210.434 245.05L205.477 240.094L200.52 241.51L192.023 238.678L189.899 231.599L182.109 233.014L193.439 250.713L205.477 245.758L215.391 254.961L205.477 268.412L173.612 281.863L147.412 236.554L142.455 239.386L157.325 270.536L172.904 288.942L192.731 284.695L187.066 300.978L157.325 335.667L162.99 358.321L146.789 373.896L147.412 388.055L139.622 392.303L122.628 415.665L102.8 419.205L81.5569 366.817L87.9299 347.702L73.0595 320.092L75.892 306.641H24.9076L0.123535 276.907L3.66412 254.253L34.1131 214.608L78.0163 208.944L80.1407 213.9L78.0163 220.979L103.636 233.376L109.882 222.395L132.541 229.475L144.579 228.059L150.244 211.068L130.417 212.484L122.628 205.404L121.92 196.909L112.714 199.033L115.546 205.404L113.422 213.192L107.049 208.236L107.757 203.989L103.508 199.741L102.8 194.077L86.5137 180.626L82.265 186.29L101.384 199.741L99.9679 201.865L96.4273 199.033V203.989L92.8868 209.652L90.7624 206.112L91.4705 199.741L78.0163 189.83L76.6001 186.29L72.3514 185.582L68.1027 190.537L58.1891 189.83V194.785L48.9836 200.449L48.2754 206.112L43.3186 211.068L32.6969 212.484L24.9076 208.944L22.7833 189.83L28.4482 186.998L44.7349 189.122L46.8592 182.042L34.8212 171.423L37.6537 169.299L56.7728 162.927L65.9783 153.873L74.4757 151.6L71.6433 143.813L72.3514 140.273L78.7244 136.025L79.4325 142.397L76.6001 146.645L80.8488 151.6L85.0975 149.476L90.0543 150.892C90.0543 150.892 97.8436 147.353 98.5517 147.353H108.465V138.149L111.298 136.025L115.546 138.857L116.963 135.317L109.173 123.99L108.465 114.787L119.795 104.876L112.006 102.044L106.341 111.955L97.8436 116.911L97.1355 124.698L102.8 128.238L99.9679 131.778L95.7192 133.194L95.0111 141.689L83.6812 147.353L80.1407 146.645L81.5569 143.813L85.0975 140.981L79.4325 128.238L73.0595 136.025L65.2702 133.902L64.5621 118.327L76.6001 111.247L97.8436 85.0531L121.92 75.8497L162.99 92.8405L163.698 97.7961L154.493 100.628L139.622 97.0882L146.704 102.044L147.412 109.123L155.201 111.247V109.123L150.952 106.292L153.077 104.168L158.742 106.999H161.574L160.158 102.752L168.655 97.7961L171.488 100.628L173.612 97.0882L170.071 94.9643L170.78 87.8848L179.277 91.4246L177.861 93.5484L175.736 94.2564L177.861 97.7961H180.693L198.396 87.1769H218.931L212.558 80.8054L216.807 77.9736L238.051 90.7166L241.591 86.4689L234.51 79.3895L244.424 61.6907L252.213 73.7259L257.878 65.9384C259.294 66.6464 289.035 63.1066 289.743 63.1066C290.451 63.1066 313.111 47.5317 313.111 47.5317Z"
            fill="#14256A"
          />
          <path
            d="M35.5294 132.486L32.6969 139.565L35.5294 148.167L40.4862 149.476V153.873L36.5915 159.664H41.6616L34.1131 165.759V168.591L43.3186 163.635L53.9404 161.512V156.018L40.4862 143.105L43.3186 136.953L36.2375 136.025L40.5428 132.486H35.5294Z"
            fill="#14256A"
          />
          <path
            d="M28.4482 145.937L25.6794 150.538H21.7494V153.873V158.262L23.4914 161.512L32.6969 157.703L33.405 146.645L28.4482 145.937Z"
            fill="#14256A"
          />
          <path
            d="M80.1406 26.2932V33.5214L87.9299 38.3284V42.2433L95.1881 47.5459L104.217 34.7886L108.465 41.8681L113.422 43.284L119.087 39.7443L95.0111 24.8773L90.0542 28.4171L80.1406 26.2932Z"
            fill="#14256A"
          />
          <path
            d="M104.925 22.7535L100.676 26.2933L113.422 31.9569L125.071 27.3552L122.429 24.8774H109.202L104.925 22.7535Z"
            fill="#14256A"
          />
          <path
            d="M192.023 72.31L200.52 77.9736H208.642L203.884 72.31L204.061 68.7702L214.683 56.7351L240.883 46.1159L236.634 43.2841L230.332 47.5459H217.898L206.185 54.6112L192.023 72.31Z"
            fill="#14256A"
          />
          <path
            d="M300.365 25.5853L310.986 29.833L324.441 34.0807L327.386 25.5853L318.776 23.4614V19.9217L311.695 17.7979L304.613 23.4614L300.365 25.5853Z"
            fill="#14256A"
          />
          <path
            d="M333.646 29.125L325.149 38.3283L341.436 36.9124V34.0806L336.649 33.7267L333.646 29.125Z"
            fill="#14256A"
          />
          <path
            d="M429.242 51.7794L436.635 58.505L451.109 55.1422L454.451 51.7794L441.846 49.2025L438.447 51.7794L432.917 49.6698L429.242 51.7794Z"
            fill="#14256A"
          />
          <path
            d="M456.589 53.8608L462.523 57.4431H466.829L470.575 55.652L462.084 53.8608H456.589Z"
            fill="#14256A"
          />
          <path
            d="M446.945 150.184L443.404 157.972L444.112 180.626L445.175 180.131L446.18 178.07L447.95 180.626L449.069 179.918L448.085 176.187L446.237 173.469L447.653 167.883L450.485 170.007L451.902 169.299L449.069 164.343L447.653 157.434L448.361 150.892L446.945 150.184Z"
            fill="#14256A"
          />
          <path
            d="M446.945 194.077L449.777 191.245C450.485 190.538 454.026 189.83 454.026 189.83L452.61 186.998L449.069 186.29L444.112 182.042L442.696 183.458V189.369L437.739 191.245L439.155 196.909L441.28 194.785L440.572 192.661L444.112 191.953L446.945 194.077Z"
            fill="#14256A"
          />
          <path
            d="M441.988 196.201L444.82 201.157L441.28 206.82L440.572 215.316L437.739 216.958L429.95 217.44L427.826 220.979L425.701 221.687H419.81L415.788 223.811L414.371 228.059L410.123 228.767L411.539 223.811L409.415 223.103L410.831 220.979L419.328 214.608L426.409 213.9L430.658 208.236L432.783 209.652L437.739 205.404L438.447 199.033L441.988 196.201Z"
            fill="#14256A"
          />
          <path
            d="M386.755 245.757L383.922 249.297L383.214 254.253L384.985 258.791H386.755L388.879 253.545L388.171 247.173L386.755 245.757Z"
            fill="#14256A"
          />
          <path
            d="M351.349 262.748L349.933 264.872L353.473 267.704L357.014 266.996L358.94 262.748L356.306 262.04L351.349 262.748Z"
            fill="#14256A"
          />
          <path
            d="M272.748 291.066L270.624 299.562L274.164 301.905L276.997 298.854L274.873 293.898L274.129 291.774L272.748 291.066Z"
            fill="#14256A"
          />
          <path
            d="M185.65 352.658L177.861 363.985H172.989L169.363 379.56L172.196 390.179H179.404L189.191 361.153V355.157L185.65 352.658Z"
            fill="#14256A"
          />
          <path
            d="M366.22 379.56L364.095 394.427L371.969 413.733L368.032 416.317L375.198 419.205L415.08 407.878L437.739 427.191L454.026 431.219L466.772 426.993L476.686 400.798L474.321 390.179L454.026 369.988L444.82 347.83L441.988 355.49L439.864 367.525L427.118 360.318L429.596 352.658L417.501 349.245L409.415 358.711L401.625 356.906L388.879 366.364L386.047 373.903L366.22 379.56Z"
            fill="#14256A"
          />
          <path
            d="M451.193 439.028L456.858 447.523L461.022 443.275V439.028H456.108H451.193Z"
            fill="#14256A"
          />
          <path
            d="M527.67 437.612L520.943 447.523L512.8 453.895L514.216 457.434H520.943L526.381 451.325L532.308 443.275L533.852 439.028H529.986L527.67 437.612Z"
            fill="#14256A"
          />
          <path
            d="M529.731 419.205L535.459 426.992V431.219L533.335 431.948L533.852 433.555L536.168 435.488L535.459 438.32L536.876 441.151L545.961 430.178L544.665 426.992L541.832 428.408L538.292 424.869H535.459V420.621L530.503 417.081L529.731 419.205Z"
            fill="#14256A"
          />
          <path
            d="M313.111 303.809L323.733 313.013V316.567L340.019 334.251H342.731L343.56 326.464L329.398 311.597L326.565 310.889L320.737 303.809L314.718 301.905L313.111 303.809Z"
            fill="#14256A"
          />
          <path
            d="M342.144 336.375L346.888 334.251L354.436 337.522L358.94 335.887L366.184 337.522L367.636 340.623L365.773 341.862H357.262L353.473 339.915H347.808L342.144 336.375Z"
            fill="#14256A"
          />
          <path
            d="M354.89 326.322L352.057 314.429L354.437 311.59L358.94 313.664L374.009 298.854L380.382 303.101L376.841 308.765L380.382 315.533L376.565 317.437L373.301 324.34L372.593 329.296L354.89 326.322Z"
            fill="#14256A"
          />
          <path
            d="M386.734 314.075L382.379 317.437L379.674 326.464L381.961 329.296L381.798 332.835H384.659L386.047 325.494L387.463 331.419L391.712 329.296L387.562 323.455L391.712 320.51L387.463 320.092L385.693 321.756L384.631 319.384L386.755 316.552L394.544 317.26L397.377 315.137V313.374L393.128 315.137L386.734 314.075Z"
            fill="#14256A"
          />
          <path
            d="M369.052 342.747L374.009 343.454L380.382 342.747V341.26L376.133 340.623L371.7 341.862L369.774 340.623L369.052 342.747Z"
            fill="#14256A"
          />
          <path
            d="M392.42 346.286H395.422L402.05 342.039L401.3 340.623L392.42 345.047V346.286Z"
            fill="#14256A"
          />
          <path
            d="M382.811 341.862L385.268 343.455L391.252 342.039L394.544 341.331L392.42 340.085L387.3 341.77L385.268 340.085L382.811 341.862Z"
            fill="#14256A"
          />
          <path
            d="M412.955 320.8L418.62 328.588L423.634 329.296L435.615 337.083L432.782 339.207L432.825 341.77H438.596L443.404 344.162H447.78V340.623L453.318 339.207L460.399 346.994H467.657L457.567 337.083L460.399 335.667L451.193 328.588L434.199 321.508L428.548 323.108L425.701 327.172L423.577 326.464L420.744 318.676H415.087L412.955 320.8Z"
            fill="#14256A"
          />
          <path
            d="M461.815 333.543L463.94 335.667H468.833L473.004 332.835V329.296H470.759L467.657 332.835L461.815 333.543Z"
            fill="#14256A"
          />
          <path
            d="M404.458 327.172L406.582 328.588L409.209 327.88L411.773 328.588L413.586 327.172L409.025 324.694L404.458 326.195V327.172Z"
            fill="#14256A"
          />
          <path
            d="M400.209 325.756L398.793 327.172L400.762 329.296L403.006 328.588L401.725 325.756H400.209Z"
            fill="#14256A"
          />
          <path
            d="M386.047 265.261L382.506 274.783L385.339 279.739L384.277 281.24V283.866L386.047 284.496L387.463 279.031L395.252 283.987V287.024L397.377 289.65L399.501 286.111L398.085 283.279L395.252 281.863L393.128 278.323L388.44 277.452L387.463 272.66L390.296 271.244L389.587 266.288L386.047 265.261Z"
            fill="#14256A"
          />
          <path
            d="M398.793 291.066L394.544 294.606L392.647 292.836L395.72 291.066L392.647 287.965V285.969C392.647 285.969 388.879 284.843 388.879 285.127C388.469 285.961 387.995 286.763 387.463 287.526L391.712 293.898L388.171 297.438L388.879 298.854L393.128 296.581L395.38 301.905H400.117L400.917 298.146V292.482L398.793 291.066Z"
            fill="#14256A"
          />
          <path
            d="M382.506 285.084L381.798 288.942L375.425 296.022H372.77L375.425 292.482L382.506 285.084Z"
            fill="#14256A"
          />
          <path
            d="M872.225 479.643L866.497 458.163L879.781 367.114L860.917 355.029L848.787 330.06L851.23 314.443L859.415 305.806L858.729 294.096L854.862 291.526L849.905 296.482L812.255 270.21L805.74 271.52L780.822 260.15V252.249L761.171 226.289H757.758L772.388 248.582L769.867 252.787L745.579 217.086H738.497L726.297 198.431V170.149L683.718 123.148L651.371 130.341L616.177 151.784L617.636 145.377L636.982 130.879L618.38 126.057L614.683 112.769L625.461 109.895L626.693 105.584H613.543L608.147 99.4244L617.927 95.6652L624.923 97.0598L627.139 94.844L619.895 93.5201L612.042 84.7274L641.294 73.0037L683.852 82.9292H800.479L806.689 75.3399L810.272 57.443H823.861L820.051 65.8251L813.869 69.9454L822.869 85.1663L833.767 92.6564L838.469 81.2513L825.065 68.2392L830.184 59.5668H859.529L887.407 78.1505L886.706 86.6034L904.175 94.0864L899.183 103.481L889.326 96.5784L888.165 99.481L896.676 107.998L891.797 117.385L868.571 105.775L872.926 87.722L856.378 79.1558L848.723 93.0741L812.248 122.829L820.37 135.749L852.476 150.602L862.857 136.068L856.93 130.142L858.757 112.946L881.686 117.675L883.463 128.705L889.404 131.339L896.16 122.157L920.476 155.246L907.341 163.274L889.475 165.334L898.85 177.384L906.994 174.842L910.966 177.851L891.288 188.3V181.235L879.285 187.918L879.25 192.102L862.963 209.093V214.785L849.558 225.361L853.786 240.143L850.592 245.736L843.858 235.266L843.178 229.829H811.837L802.809 246.494L807.645 259.633L819.251 263.046L824.597 254.253H835.155L829.129 270.182H841.295L844.559 275.406L843.858 285.941L850.55 290.627L854.77 287.109L861.894 290.613L867.389 282.196L903.127 286.486L916.56 298.5H926.715L976.97 329.812V342.301L959.175 379.128L940.148 386.88V396.671L884.915 469.59V479.197L893.674 485.03L890.275 487.579L872.225 479.643Z"
            fill="#D2D2D2"
          />
          <path
            d="M823.309 57.7969L819.768 65.5844L813.395 69.8321L822.6 85.407L833.93 93.1944L838.887 81.1593L825.511 68.1755L830.39 59.9208H859.423L887.039 78.3275L886.331 86.8229L903.68 94.2563L899.056 102.957L889.142 96.0262L887.726 99.5659L896.223 108.061L891.642 116.911L868.982 105.584L873.33 87.5308L856.236 78.6814L848.447 92.8404L811.788 122.751L820.122 136.025L852.596 151.041L863.317 136.025L857.298 130.008L859.068 113.371L881.374 117.973L883.144 128.946L889.517 131.778L896.16 122.751L919.966 155.14L907.22 162.927L888.809 165.051L898.723 177.794L906.93 175.232L910.308 177.794L891.642 187.706V180.626L878.938 187.706L878.896 191.953L862.609 208.944V214.608L849.155 225.227L853.404 240.094L850.571 245.049L844.198 235.138L843.49 229.475H811.625L802.419 246.465L807.376 259.916L819.414 263.456L824.796 254.607H834.638L828.619 270.536H841.104L844.198 275.491L843.49 286.111L850.571 291.066L854.82 287.526L862.021 291.066L867.566 282.571L902.972 286.818L916.426 298.854H926.616L976.616 330.003V342.216L958.913 378.852L939.794 386.639V396.551L884.561 469.469V479.381L893.058 485.044L890.226 487.168L872.523 479.381L866.858 458.142L880.163 366.937L861.193 354.782L849.155 330.003L851.562 314.605L859.777 305.933L859.068 293.898L854.82 291.066L849.863 296.022L812.333 269.828L805.783 271.144L781.176 259.916V252.129L761.348 225.935H757.1L771.97 248.589L769.846 252.129L745.77 216.732H738.689L726.651 198.325V170.007L683.845 122.751L651.236 130.008L616.709 151.041L617.955 145.583L637.782 130.716L618.663 125.76L615.122 113.017L625.744 110.185L627.16 105.23H613.706L608.749 99.5659L617.955 96.0262L625.036 97.4421L627.869 94.6103L620.079 93.1944L612.644 84.8618L641.323 73.3718L683.81 83.2831H800.649L807.022 75.4957L810.563 57.7969H823.309ZM824.406 57.089H809.982L809.869 57.6553L806.363 75.1842L800.295 82.5752H683.895L641.486 72.6639L641.266 72.6072L641.061 72.6922L612.382 84.1893L611.44 84.5645L612.113 85.3149L619.548 93.6475L619.711 93.8245L619.952 93.867L626.41 95.0421L624.802 96.6492L618.097 95.3112L617.891 95.2687L617.7 95.3465L608.494 98.8863L607.546 99.2474L608.218 100.012L613.175 105.676L613.388 105.916H626.219L625.171 109.583L614.938 112.309L614.23 112.493L614.421 113.201L617.962 125.944L618.068 126.333L618.465 126.44L636.168 131.027L617.53 145.016L617.325 145.172L617.268 145.427L616.022 150.885L615.646 152.521L617.063 151.643L651.491 130.673L683.583 123.53L725.928 170.255V198.537L726.042 198.714L738.08 217.121L738.292 217.439H745.373L769.237 252.525L769.86 253.446L770.434 252.49L772.558 248.95L772.784 248.575L772.544 248.2L758.381 226.643H760.966L780.439 252.37V260.37L780.85 260.561L805.457 271.789L805.67 271.888L805.896 271.845L812.149 270.578L849.431 296.602L849.913 296.942L850.337 296.524L854.884 291.979L858.353 294.294L859.026 305.671L851.017 314.117L850.868 314.28L850.833 314.492L848.425 329.897L848.39 330.117L848.489 330.315L860.527 355.093L860.612 355.27L860.782 355.376L879.37 367.291L866.15 458.043V458.185L866.185 458.326L871.85 479.565L871.942 479.89L872.254 480.032L889.957 487.819L890.332 487.982L890.665 487.734L893.497 485.611L894.297 485.009L893.462 484.457L885.283 478.998V469.71L940.374 396.975L940.516 396.791V387.114L959.196 379.51L959.444 379.404L959.564 379.163L977.267 342.52L977.338 342.378V329.635L977.005 329.43L927.005 298.28L926.828 298.174H916.709L903.46 286.316L903.29 286.167H903.071L867.665 281.919L867.226 281.863L866.985 282.231L861.781 290.203L855.145 286.939L854.735 286.741L854.381 287.031L850.55 290.224L844.241 285.806L844.949 275.59V275.357L844.828 275.166L841.734 270.21L841.521 269.877H829.675L835.34 254.904L835.701 253.948H824.371L824.165 254.288L819.067 262.67L807.886 259.385L803.163 246.572L812.05 230.183H842.867L843.497 235.223V235.386L843.582 235.52L849.955 245.432L850.585 246.416L851.166 245.403L853.998 240.448L854.147 240.186L854.062 239.903L849.948 225.489L863.027 215.16L863.296 214.947V209.227L879.384 192.442L879.583 192.244V191.953L879.618 188.116L890.934 181.83V188.909L891.975 188.357L910.641 178.446L911.625 177.929L910.74 177.256L907.355 174.701L907.065 174.481L906.718 174.587L898.978 177.001L890.141 165.639L907.298 163.657H907.454L907.589 163.572L920.335 155.784L920.993 155.388L920.54 154.765L896.733 122.376L896.16 121.597L895.593 122.376L889.284 130.942L883.782 128.5L882.075 117.881L881.997 117.399L881.516 117.3L859.21 112.698L858.445 112.543L858.367 113.314L856.597 129.951L856.562 130.291L856.795 130.532L862.39 136.124L852.356 150.184L820.611 135.509L812.715 122.942L848.893 93.4209L848.999 93.336L849.07 93.2157L856.526 79.6655L872.523 87.8848L868.274 105.399L868.139 105.945L868.642 106.192L891.302 117.52L891.925 117.831L892.251 117.215L896.854 108.366L897.094 107.906L896.726 107.537L888.554 99.3748L889.517 97.0881L898.68 103.509L899.332 103.969L899.707 103.261L904.331 94.5607L904.692 93.8528L903.984 93.5484L887.11 86.3132L887.776 78.3275L887.811 77.9168L887.457 77.6832L859.84 59.2766L859.663 59.1562H830.014L829.809 59.5031L824.93 67.7578L824.647 68.2392L825.051 68.6215L838.08 81.2796L833.612 92.1325L823.132 84.9326L814.344 70.0657L820.158 66.1861L820.327 66.0729L820.412 65.8888L823.953 58.1014L824.406 57.1032V57.089Z"
            fill="white"
          />
          <path
            d="M749.813 78.6815L744.998 69.018L735.785 71.0781L726.474 66.7101L730.283 53.1599L750.797 54.59L768.968 63.1208L780.829 55.2554L788.009 58.4837L782.649 63.1491L787.761 70.4551L799.056 78.6815H749.813Z"
            fill="#D2D2D2"
          />
          <path
            d="M730.545 53.5351L750.705 54.951L768.996 63.5313L780.864 55.6731L787.357 58.5899L782.174 63.0995L787.506 70.717L797.972 78.3417H750.019L745.175 68.6215L735.814 70.7453L726.884 66.5543L730.531 53.5776L730.545 53.5351ZM730.007 52.8271L729.851 53.3864L726.205 66.3631L726.042 66.9436L726.58 67.1985L735.509 71.3896L735.729 71.4887L735.969 71.4391L744.793 69.4639L749.381 78.6673L749.579 79.0567H800.132L798.376 77.7753L788.023 70.1861L783.123 63.1915L787.825 59.0996L788.653 58.3916L787.648 57.9386L781.154 55.0218L780.8 54.8589L780.475 55.0714L768.932 62.7172L751.01 54.2997L750.889 54.2501H750.755L730.595 52.8342L730.021 52.7917L730.007 52.8271Z"
            fill="white"
          />
          <path
            d="M757.85 56.0271L756.646 53.1599H750.642L747.632 51.2555L753.163 43.9637L756.462 43.6309L765.243 48.4308L767.332 45.4079L773.684 41.592L775.553 46.1937L783.123 47.9069L779.646 53.7121L772.034 53.5564L765.725 56.0271H757.85Z"
            fill="#D2D2D2"
          />
          <path
            d="M773.514 42.1088L775.298 46.491L782.571 48.1405L779.448 53.351L771.97 53.1953L765.661 55.6731H758.084L756.88 52.7989H750.727L748.121 51.1564L753.333 44.3035L756.392 43.992L765.356 48.891L767.58 45.6698L773.514 42.1301V42.1088ZM773.854 41.0964L773.146 41.5212L767.212 45.061L767.084 45.1388L766.992 45.2592L765.137 47.9565L756.732 43.3619L756.54 43.2557H756.321L753.276 43.5601H752.971L752.787 43.8079L747.583 50.6679L747.115 51.2767L747.767 51.6945L750.366 53.3369L750.543 53.4431H756.392L757.411 55.8855L757.595 56.3173H765.774L765.894 56.2678L772.076 53.8395L779.412 53.9953H779.823L780.036 53.6413L783.158 48.4308L783.661 47.5954L782.705 47.376L775.794 45.8114L774.165 41.8681L773.854 41.1035V41.0964Z"
            fill="white"
          />
          <path
            d="M734.44 49.1954V44.8699L743.667 38.739H754.869L744.368 50.7175L734.44 49.1954Z"
            fill="#D2D2D2"
          />
          <path
            d="M754.09 39.093L744.226 50.3635L734.794 48.9476V45.0539L743.773 39.093H754.09ZM755.648 38.385H743.56L743.383 38.4983L734.44 44.4663L734.121 44.6716V49.4998L734.723 49.5918L744.155 51.0077L744.538 51.0644L744.793 50.7741L754.657 39.5319L755.683 38.3567L755.648 38.385Z"
            fill="white"
          />
          <path
            d="M763.6 40.4522L755.159 36.8771L767.615 31.1923L771.262 33.6772L767.792 40.4522H763.6Z"
            fill="#D2D2D2"
          />
          <path
            d="M767.58 31.5958L770.809 33.7904L767.58 40.0982H763.671L756.037 36.8558L767.58 31.5958ZM767.643 30.7887L767.282 30.9516L755.747 36.2045L754.281 36.9125L755.761 37.5355L763.395 40.7779L763.529 40.8345H768.012L768.21 40.4522L771.439 34.1444L771.722 33.5851L771.205 33.2311L767.976 31.0365L767.643 30.817V30.7887Z"
            fill="white"
          />
          <path
            d="M795.161 50.2219H787.867L781.827 45.5636L783.18 41.2451L788.837 43.0433L793.249 41.3372H802.263L804.763 47.5954L803.637 52.2183L796.634 53.974L795.161 50.2219Z"
            fill="#D2D2D2"
          />
          <path
            d="M802.023 41.684L804.395 47.6166L803.347 51.928L796.853 53.5492L795.437 49.8608H788.023L782.238 45.4078L783.406 41.6628L788.852 43.3972L793.32 41.6628H802.023V41.684ZM782.946 40.7778L782.734 41.4858L781.565 45.2308L781.417 45.698L781.806 46.0025L787.556 50.4272L787.747 50.5758H794.92L796.195 53.8182L796.421 54.3917L797.023 54.243L803.517 52.6218L803.934 52.5156L804.034 52.0979L805.082 47.7936L805.138 47.5741L805.053 47.3618L802.681 41.4291L802.497 40.9831H793.214L793.086 41.0327L788.838 42.6751L783.64 41.0185L782.932 40.8061L782.946 40.7778Z"
            fill="white"
          />
          <path
            d="M791.748 68.4303H789.347L786.756 64.1331L791.741 58.519H801.789L805.096 65.8392L803.772 70.094L796.393 73.2727L791.748 68.4303Z"
            fill="#D2D2D2"
          />
          <path
            d="M801.562 58.859L804.721 65.8464L803.481 69.818L796.478 72.8339L791.904 68.0552H789.546L787.195 64.1544L791.904 58.859H801.562ZM802.023 58.151H791.585L791.373 58.3846L786.664 63.6872L786.317 64.0765L786.586 64.5225L788.944 68.4233L789.149 68.7632H791.599L795.968 73.3223L796.308 73.6763L796.761 73.4781L803.765 70.4693L804.062 70.3419L804.154 70.0304L805.393 66.0517L805.471 65.7968L805.365 65.5562L802.207 58.5687L802.023 58.151Z"
            fill="white"
          />
          <path
            d="M805.96 53.8112V51.206L811.497 48.4733L816.263 52.5015L813.105 56.0837L805.96 53.8112Z"
            fill="#D2D2D2"
          />
          <path
            d="M811.448 48.8909L815.76 52.5369L812.991 55.6731L806.314 53.5492V51.4254L811.448 48.8909ZM811.554 48.0485L811.136 48.2538L806.002 50.7882L805.606 50.9865V54.066L806.101 54.2218L812.772 56.3457L813.218 56.4873L813.522 56.1403L816.291 53.0041L816.766 52.459L816.213 51.9917L811.908 48.3458L811.554 48.0485Z"
            fill="white"
          />
          <path
            d="M820.342 54.6112L817.7 52.3882L819.046 48.9688L816.426 46.045H810.924L807.199 43.3902V40.8416L814.917 41.7831L815.909 43.4256L820.752 42.8451L826.304 45.5069L824.427 46.491L833.881 49.967L840.445 48.0414L847.484 47.383L854.763 50.0874V53.705L852.313 56.0341L820.342 54.6112Z"
            fill="#D2D2D2"
          />
          <path
            d="M807.553 41.2381L814.698 42.1089L815.718 43.8009L820.674 43.2062L825.497 45.5141L823.535 46.5406L833.852 50.3353L840.53 48.3742L847.42 47.7371L854.395 50.3353V53.5493L852.164 55.6732L820.462 54.2573L818.111 52.2821L819.442 48.891L816.567 45.684H811.023L807.539 43.2062V41.2381H807.553ZM806.831 40.4381V43.5673L807.128 43.7796L810.612 46.2646L810.796 46.392H816.256L818.628 49.0397L817.452 52.0202L817.261 52.4945L817.651 52.8201L820.009 54.8024L820.193 54.9511H820.434L852.136 56.367H852.44L852.653 56.1546L854.883 54.0307L855.103 53.8254V49.8113L854.643 49.6414L847.668 47.0504L847.519 46.9937H847.356L840.466 47.6309H840.395H840.332L833.881 49.5282L825.284 46.3636L825.829 46.0805L827.076 45.4221L825.801 44.8132L820.986 42.4983L820.795 42.4133H820.589L816.079 42.9584L815.293 41.6558L815.116 41.3585L814.769 41.316L807.624 40.4523L806.831 40.3531V40.4381Z"
            fill="white"
          />
          <path
            d="M799.233 36.9125C797.705 36.9301 796.178 36.8592 794.658 36.7001C794.534 36.6776 794.416 36.6261 794.316 36.5498C794.215 36.4736 794.133 36.3747 794.078 36.2612C793.897 35.6143 793.952 34.9243 794.233 34.3144L790.056 33.8683L784.999 35.2276L782.273 33.2666L780.397 27.8012L788.661 26.9941L796.776 30.2932L800.316 34.7816L799.459 36.9054L799.233 36.9125Z"
            fill="#D2D2D2"
          />
          <path
            d="M788.611 27.3551L796.556 30.5905L799.919 34.8382L799.211 36.5585C797.71 36.5729 796.209 36.5044 794.715 36.3532C793.752 36.155 794.715 34.0169 794.715 34.0169L790.006 33.5143L785.049 34.8382L782.549 33.04L780.857 28.0844L788.59 27.3268L788.611 27.3551ZM788.696 26.6189H788.519L780.786 27.3764L779.894 27.4684L780.184 28.3109L781.877 33.2665L781.955 33.4789L782.132 33.6134L784.638 35.4045L784.907 35.6028L785.233 35.5178L790.062 34.2223L793.738 34.6187C793.532 35.2005 793.532 35.8351 793.738 36.4169C793.82 36.5765 793.937 36.7155 794.08 36.8234C794.224 36.9313 794.39 37.0053 794.566 37.0399C796.109 37.2049 797.66 37.2782 799.211 37.2594H799.693L799.87 36.8133L800.578 35.093L800.734 34.7178L800.479 34.3922L797.108 30.1445L796.995 29.9958L796.818 29.925L788.88 26.6897L788.717 26.6259L788.696 26.6189Z"
            fill="white"
          />
          <path
            d="M819.01 35.1993L815.498 27.7729L805.754 23.7022L812.319 14.9661H817.799L822.204 19.9217H829.108L837.733 27.3693L827.756 35.1993H819.01Z"
            fill="#D2D2D2"
          />
          <path
            d="M817.644 15.32L822.048 20.2756H828.973L837.181 27.3551L827.635 34.8382H819.23L815.76 27.4967L806.314 23.5464L812.496 15.32H817.644ZM817.962 14.6121H812.141L811.929 14.8953L805.747 23.1216L805.202 23.8296L806.038 24.1765L815.243 28.0206L818.6 35.1001L818.791 35.5036H827.911L828.102 35.355L837.648 27.8719L838.356 27.341L837.705 26.7746L829.497 19.6951L829.299 19.5252H822.43L818.238 14.8103L818.026 14.5696L817.962 14.6121Z"
            fill="white"
          />
          <path
            d="M837.181 46.1158L823.684 43.3972L830.708 38.2858L832.79 34.6682L835.262 30.3072L840.813 28.2542L836.904 25.3162L834.228 20.2614L836.451 16.7854L830.921 17.6633L824.378 14.3218L818.217 12.4174L827.062 8.58736H844.375L849.622 2.2229H874.293L907.489 3.66712L903.574 9.93247L868.883 27.6241L863.841 35.8788L858.516 36.8983L855.273 39.1071L860.725 43.2769L854.749 46.1158H837.181Z"
            fill="#D2D2D2"
          />
          <path
            d="M874.293 2.57698L906.866 3.99288L903.326 9.65647L868.628 27.3552L863.614 35.5604L858.36 36.5585L854.657 39.093L860.031 43.2062L854.657 45.7619H837.166L824.526 43.2062L830.963 38.5267L833.088 34.8382L835.495 30.5905L841.535 28.3534L837.173 25.0827L834.631 20.2757L837.173 16.3112L830.97 17.2952L824.533 14.0033L819.223 12.3608L827.125 8.93435H844.538L849.785 2.56281H874.286L874.293 2.57698ZM874.286 1.85486H849.438L849.226 2.10975L844.191 8.21227H826.991L826.849 8.26888L818.954 11.6954L817.198 12.4529L819.024 13.0192L824.272 14.6475L830.645 17.9111L830.85 18.0174L831.076 17.982L835.715 17.274L834.029 19.9147L833.803 20.2615L834.001 20.6297L836.536 25.4296L836.614 25.5712L836.741 25.6703L840.07 28.1623L835.24 29.9463L834.999 30.0383L834.872 30.2578L832.464 34.5055L830.425 38.0452L824.109 42.6328L822.806 43.5814L824.385 43.9L837.025 46.4557H837.095H854.798L854.947 46.3849L860.322 43.8292L861.37 43.3336L860.449 42.6257L855.846 39.0859L858.629 37.1886L863.728 36.2187L864.039 36.155L864.202 35.8931L869.102 27.8579L903.68 10.2866L903.857 10.1945L903.963 10.0317L907.503 4.36811L908.148 3.34158L906.93 3.28493L874.357 1.86903L874.286 1.85486Z"
            fill="white"
          />
          <path
            d="M809.373 39.447L802.738 35.0648L801.364 30.1587L811.426 31.6595L811.079 34.5975L816.213 36.3037V39.447H809.373Z"
            fill="#D2D2D2"
          />
          <path
            d="M801.853 30.5905L811.058 31.9568L810.711 34.8382L815.88 36.5585V39.093H809.507L803.078 34.8453L801.881 30.5976L801.853 30.5905ZM800.904 29.7339L801.201 30.7887L802.391 35.0364L802.462 35.2913L802.681 35.4399L809.118 39.6876L809.295 39.808H816.581V36.0558L816.1 35.893L811.476 34.3568L811.752 32.0489L811.837 31.3409L811.129 31.2418L801.924 29.8755L800.84 29.7126L800.904 29.7339Z"
            fill="white"
          />
          <path
            d="M834.922 105.853L841.528 99.658L852.83 108.713L850.295 112.097L845.494 108.67L838.292 113.789L834.922 105.853Z"
            fill="#D2D2D2"
          />
          <path
            d="M841.543 100.125L852.341 108.769L850.217 111.601L845.494 108.231L838.448 113.237L835.347 105.938L841.543 100.125ZM841.507 99.1908L841.061 99.6085L834.865 105.421L834.504 105.761L834.695 106.214L837.825 113.513L838.165 114.327L838.873 113.817L845.508 109.102L849.82 112.175L850.38 112.578L850.798 112.026L852.922 109.194L853.333 108.649L852.801 108.217L842.003 99.5731L841.521 99.1908H841.507Z"
            fill="white"
          />
          <path
            d="M935.623 115.389L925.582 94.5891L931.509 85.4707V73.1312L921.496 70.8516L909.536 47.284H884.433L871.758 33.3586L890.495 27.1924L906.689 10.598L951.81 2.23007L998.128 0.354004L1015.02 6.09547L1012.89 10.1449L1022.24 12.8139L1029.48 8.54498L1041.41 13.09L1015.53 33.4506L1026.13 38.3709L1024.06 42.123L1014.32 42.4345L1021.23 48.7353V61.6624L1014.02 62.3774L1011.33 67.6375L1015.66 76.317L1001.92 86.3203H988.172L982.883 96.6776L970.738 97.0882L963.855 103.339V109.414L950.125 124.811L935.623 115.389Z"
            fill="#D2D2D2"
          />
          <path
            d="M998.079 0.707925L1014.52 6.29365L1012.4 10.3644L1022.31 13.1962L1029.53 8.94846L1040.72 13.1962L1014.85 33.5214L1025.64 38.5266L1023.84 41.7761L1013.43 42.1088L1020.87 48.8909V61.3367L1013.78 62.0447L1010.95 67.6304L1015.2 76.2036L1001.8 85.9662H987.946L982.649 96.3235L970.611 96.7342L963.53 103.184V109.279L950.076 124.344L935.913 115.141L926 94.6103L931.877 85.5698V72.8267L921.751 70.5188L909.77 46.9087H884.561L872.353 33.5001L890.658 27.4755L906.838 10.9024L951.846 2.55566L998.05 0.686709L998.079 0.707925ZM998.157 -0.0212402H998.022L951.832 1.86897H951.782L906.774 10.2157L906.555 10.2511L906.392 10.4139L890.339 26.8596L872.197 32.8347L871.163 33.1816L871.871 33.9886L884.079 47.3901L884.292 47.6237H909.345L921.135 70.8445L921.284 71.1418L921.609 71.2197L931.183 73.3931V85.3503L925.391 94.2563L925.171 94.5961L925.348 94.9501L935.262 115.481L935.347 115.665L935.517 115.771L949.679 124.974L950.182 125.307L950.592 124.854L964.047 109.782L964.224 109.583V103.53L970.894 97.4704L982.698 97.0669H983.116L983.307 96.6988L988.406 86.7238H1002.05L1002.24 86.5892L1015.64 76.8266L1016.12 76.4727L1015.85 75.9346L1011.74 67.687L1014.26 62.7313L1020.96 62.0659L1021.6 61.9951V48.5794L1021.36 48.3671L1015.22 42.7601L1023.89 42.484H1024.29L1024.48 42.13L1026.28 38.8806L1026.64 38.2151L1025.94 37.8965L1016.2 33.3727L1041.14 13.7625L1042.12 12.9838L1040.96 12.5449L1029.76 8.29716L1029.44 8.17678L1029.14 8.34672L1022.19 12.4528L1013.41 9.94665L1015.14 6.64054L1015.53 5.93259L1014.75 5.66357L998.305 0.0849262L998.185 0.042451L998.157 -0.0212402Z"
            fill="white"
          />
          <path
            d="M1009.77 106.992L1007.28 100.019L1012.31 95.6156L1017.35 97.7607L1031.01 95.651L1037.71 103.311L1023.54 109.647L1009.77 106.992Z"
            fill="#D2D2D2"
          />
          <path
            d="M1030.87 96.0263L1037.13 103.184L1023.49 109.279L1010.04 106.681L1007.69 100.125L1012.38 96.0263L1017.33 98.1501L1030.9 96.0263H1030.87ZM1012.27 95.198L1011.94 95.4953L1007.26 99.5943L1006.89 99.9058L1007.06 100.359L1009.4 106.922L1009.54 107.297L1009.93 107.375L1023.39 109.973L1023.61 110.015L1023.81 109.923L1037.45 103.828L1038.32 103.438L1037.69 102.731L1031.43 95.5732L1031.18 95.2829L1030.79 95.3396L1017.42 97.4068L1012.68 95.3891L1012.27 95.2121V95.198Z"
            fill="white"
          />
          <path
            d="M920.625 173.702L909.125 171.281L919.775 157.533L921.34 163.77L929.604 169.044V175.678L920.625 173.702Z"
            fill="#D2D2D2"
          />
          <path
            d="M919.612 158.326L921.029 163.989L929.25 169.235V175.232L920.675 173.356L909.727 171.048L919.584 158.305L919.612 158.326ZM919.917 156.719L919.025 157.873L909.168 170.616L908.46 171.515L909.564 171.749L920.512 174.056L929.052 175.933L929.915 176.124V168.846L929.59 168.634L921.602 163.543L920.257 158.156L919.903 156.74L919.917 156.719Z"
            fill="white"
          />
          <path
            d="M860.676 259.18L855.549 254.925L846.655 252.143L838.328 253.807L844.46 248.589H851.024L860.244 254.288L868.416 257.248L866.695 260.688L860.676 259.18Z"
            fill="#D2D2D2"
          />
          <path
            d="M850.925 248.943L860.088 254.607L867.92 257.439L866.504 260.27L860.839 258.855L855.726 254.607L846.676 251.775L839.595 253.191L844.587 248.943H850.925ZM851.123 248.235H844.325L844.127 248.405L839.135 252.653L837.06 254.423L839.737 253.885L846.641 252.469L855.379 255.209L860.386 259.364L860.513 259.463L860.669 259.506L866.334 260.922L866.886 261.056L867.134 260.554L868.55 257.722L868.911 257.014L868.161 256.745L860.371 253.913L851.279 248.342L851.102 248.235H851.123Z"
            fill="white"
          />
          <path
            d="M853.007 263.456H865.994L861.589 265.601L853.007 263.456Z"
            fill="#D2D2D2"
          />
          <path
            d="M864.457 263.81L861.547 265.226L855.882 263.81H864.457ZM867.53 263.102H850.132L855.712 264.518L861.377 265.934L861.625 265.998L861.858 265.885L864.769 264.469L867.53 263.124V263.102Z"
            fill="white"
          />
          <path
            d="M867.141 262.047H872.034L870.292 260.27L872.742 257.786L881.537 258.515L886.834 264.1L870.25 265.601L867.141 262.047Z"
            fill="#D2D2D2"
          />
          <path
            d="M872.877 258.147L881.374 258.855L886.076 263.81L870.398 265.226L867.92 262.394H872.877L870.788 260.271L872.877 258.147ZM872.608 257.439L872.374 257.679L870.285 259.803L869.796 260.299L870.285 260.794L871.191 261.722H866.355L867.389 262.897L869.867 265.729L870.101 265.998H870.462L886.14 264.582L887.591 264.447L886.586 263.386L881.891 258.43L881.7 258.239H881.431L872.933 257.531H872.608V257.439Z"
            fill="white"
          />
          <path
            d="M887.761 263.633L894.241 262.614L891.854 265.672L887.761 263.633Z"
            fill="#D2D2D2"
          />
          <path
            d="M893.412 263.102L891.748 265.226L888.915 263.81L893.419 263.102H893.412ZM895.083 262.125L893.306 262.401L888.809 263.109L886.621 263.456L888.604 264.44L891.436 265.856L891.953 266.118L892.307 265.665L893.972 263.541L895.076 262.125H895.083Z"
            fill="white"
          />
          <path
            d="M83.3059 363.985L89.679 344.87L74.8085 317.26L77.5773 304.107H26.8691L1.87256 274.125L5.45567 251.223L36.0463 211.387L80.3602 205.673L82.6403 210.99L80.5655 217.907L105.633 230.076L111.857 219.139L134.722 226.282L146.463 224.866L151.887 208.583L132.435 209.999L124.433 202.728L123.725 194.502L115.334 196.435L118.046 202.53L115.752 210.955L108.791 205.539L109.499 201.291L105.293 197.086L104.585 191.422L88.6947 178.297L84.885 183.373L104.004 196.824L102.177 199.557L98.9057 196.909V201.227L95.0111 207.528L92.5256 203.387L93.2337 197.1L79.8645 187.253L78.4837 183.805L74.6315 183.161L70.3828 188.116L60.6675 187.408V192.18L51.462 197.844L50.7538 203.458L45.62 208.583L34.7787 209.999L26.7133 206.339L24.5394 186.778L30.523 183.784L46.6185 185.907L48.5941 179.331L36.3861 168.591L39.6152 166.17L58.7343 159.798L67.9398 150.737L76.154 148.542L73.3994 140.981L74.1571 137.201L81.1391 132.549L81.9251 139.629L79.1705 143.756L83.0652 148.301L87.1864 146.241L92.1432 147.657C94.1188 146.765 99.9325 144.117 100.641 144.117H110.2V135.14L113.373 132.762L117.465 135.487L118.655 132.528L110.915 121.279L110.207 111.806L121.211 102.171L114.272 99.6438L108.706 109.378L100.279 114.291L99.6139 121.682L105.427 125.314L102.283 129.25L98.1551 130.624L97.447 139.119L85.8269 144.924L81.7127 144.103L83.3697 140.79L86.7615 138.078L81.4365 126.114L75.283 133.632L67.0263 131.381L66.3182 115.332L78.4837 108.182L99.7272 81.9876L124.044 72.6356L165.426 89.7609L166.212 95.2121L156.617 98.1643L143.453 95.028L149.118 99.0138L149.826 106.015L156.907 107.955V106.483L152.46 103.516L155.066 100.904L160.887 103.814H163.146L161.794 99.7571L170.772 94.5183L173.477 97.2227L175.184 94.3909L171.757 92.3378L172.536 84.5504L181.869 88.437L180.148 91.021L178.328 91.6299L180.12 94.6174H182.655L200.358 83.9982H220.135L214.067 77.924L218.861 74.7311L240.033 87.4317L243.17 83.6654L236.132 76.6284L246.548 58.1509L254.337 70.271L259.875 62.6535L260.144 62.788C260.437 62.8467 260.737 62.8657 261.036 62.8447C265.143 62.8447 280.155 61.188 287.378 60.3951C290.352 60.0695 291.676 59.9208 291.853 59.9208C292.689 59.6376 306.164 50.498 315.001 44.4167L315.094 44.3601H368.776L350.117 61.3509L410.385 62.0588L412.509 70.5542H440.366L444.615 64.1827H461.914L475.369 74.094H494.573L498.113 79.7576L539.609 78.7098L581.813 98.1005L569.846 107.07L552.914 99.9907L547.632 106.688L551.172 114.652L515.328 125.406H505.209L502.178 134.27L504.302 142.836L491.386 158.616L484.454 161.696L483.746 137.625L506.115 119.516L508.636 113.236L505.18 114.383L497.221 121.668L492.972 116.712L480.396 129.286H445.699L429.306 144.995L443.829 147.763L440.94 169.433L425.213 188.01L415.299 190.134L407.057 199.054L412.722 208.208L409.004 214.891L400.507 217.206L403.339 205.029H398.474V197.886L388.985 195.175L380.134 201.985L390.756 230.239L377.833 248.179L360.796 254.168L359.733 258.147H357.014L356.136 254.288L350.379 254.94L344.785 261.311L355.874 272.334L355.265 284.164L343.425 293.063L331.019 277.686L328.392 288.843L338.95 301.509L342.016 312.241L330.488 306.861V298.309L323.676 292.737L324.108 270.005L320.277 267.449L315.087 273.113L305.846 253.226L294.091 254.961L274.519 272.136V285.842L266.616 293.162L266.389 292.78C262.445 285.912 253.275 269.863 253.275 269.141V252.795L247.206 257.573L235.048 243.273L212.388 242.565L207.474 237.659L202.616 239.074L193.843 236.151L191.754 229.199L184.793 230.466L195.684 247.457L207.658 242.501L217.968 252.072L207.807 265.856L175.566 279.463L149.366 234.154L144.997 236.646L159.705 267.463L175.12 285.672L195.351 281.339L189.46 298.273L159.797 332.878L165.462 355.532L149.225 371.107L149.848 385.323L141.938 389.634L124.908 413.053L104.656 416.664L83.3059 363.985Z"
            fill="#D2D2D2"
          />
          <path
            d="M367.877 44.6999L349.225 61.6907L410.123 62.3986L412.247 70.894H440.572L444.82 64.5225H461.815L475.269 74.4338H494.389L497.929 80.0974L539.545 79.0496L581.133 98.1642L569.803 106.66L552.808 99.5801L547.228 106.66L550.684 114.447L515.278 125.066H504.954L501.824 134.27L503.948 142.765L491.202 158.34L484.829 161.172L484.121 137.809L506.427 119.743L509.259 112.663L505.01 114.079L497.221 121.158L492.972 116.203L480.226 128.946H445.529L428.534 145.229L443.404 148.06L440.572 169.299L424.993 187.706L415.08 189.83L406.582 199.033L412.247 208.236L408.707 214.608L400.917 216.732L403.75 204.696H398.793V197.617L388.879 194.785L379.674 201.865L390.296 230.183L377.549 247.881L360.434 253.899L359.393 257.793H357.269L356.384 253.899L350.174 254.607L344.268 261.332L355.485 272.483L354.89 283.987L343.454 292.581L330.814 276.907L327.981 288.942L338.603 301.686L341.435 311.597L330.814 306.641V298.146L324.002 292.581L324.441 269.828L320.192 266.996L315.157 272.483L306.03 252.837L293.935 254.607L274.164 271.952V285.665L266.701 292.581C266.701 292.581 253.629 269.828 253.629 269.12V252.065L247.256 257.085L235.218 242.926L212.558 242.218L207.602 237.262L202.645 238.678L194.147 235.846L192.023 228.767L184.234 230.183L195.564 247.881L207.602 242.926L217.515 252.129L207.602 265.58L175.736 279.031L149.536 233.722L144.579 236.554L159.45 267.704L175.028 286.111L194.855 281.863L189.191 298.146L159.45 332.835L165.115 355.49L148.913 371.065L149.536 385.224L141.747 389.471L124.752 412.834L104.925 416.373L83.6812 363.985L90.0542 344.87L75.1838 317.26L78.0163 303.809H27.0319L2.24783 274.075L5.78841 251.421L36.2374 211.776L80.1406 206.112L82.265 211.068L80.1406 218.147L105.76 230.544L112.006 219.563L134.666 226.643L146.704 225.227L152.368 208.236L132.541 209.652L124.752 202.573L124.044 194.077L114.838 196.201L117.671 202.573L115.546 210.36L109.173 205.404L109.881 201.157L105.633 196.909L104.925 191.245L88.638 177.794L84.3893 183.458L103.508 196.909L102.092 199.033L98.5516 196.201V201.157L95.011 206.82L92.8867 203.281L93.5948 196.909L80.1406 186.998L78.7244 183.458L74.4757 182.75L70.227 187.706L60.3134 186.998V191.953L51.1078 197.617L50.3997 203.281L45.4429 208.236L34.8212 209.652L27.0319 206.112L24.9075 186.998L30.5725 184.166L46.8591 186.29L48.9835 179.21L36.9455 168.591L39.778 166.467L58.8971 160.096L68.1026 151.041L76.6 148.768L73.7676 140.981L74.4757 137.441L80.8487 133.194L81.5568 139.565L78.7244 143.813L82.9731 148.768L87.2218 146.645L92.1786 148.06C92.1786 148.06 99.9679 144.521 100.676 144.521H110.59V135.317L113.422 133.194L117.671 136.025L119.087 132.486L111.298 121.158L110.59 111.955L121.919 102.044L114.13 99.212L108.465 109.123L99.9679 114.079L99.2597 121.866L104.925 125.406L102.092 128.946L97.8435 130.362L97.1354 138.857L85.8055 144.521L82.265 143.813L83.6812 140.981L87.2218 138.149L81.5568 125.406L75.1838 133.194L67.3945 131.07L66.6864 115.495L78.7244 108.415L99.9679 82.2212L124.044 73.0179L165.115 90.0087L165.823 94.9643L156.617 97.7961L141.747 94.2563L148.828 99.212L149.536 106.291L157.325 108.415V106.291L153.077 103.46L155.201 101.336L160.866 104.168H163.698L162.282 99.9199L170.779 94.9643L173.612 97.7961L175.736 94.2563L172.196 92.1325L172.904 85.053L181.401 88.5928L179.985 90.7166L177.861 91.4245L179.985 94.9643H182.817L200.52 84.3451H221.056L214.683 77.9735L218.931 75.1417L240.175 87.8848L243.715 83.6371L236.634 76.5576L246.548 58.8589L254.337 70.894L260.002 63.1066C260.344 63.1926 260.698 63.2237 261.05 63.1986C266.588 63.1986 291.223 60.2748 291.867 60.2748C292.512 60.2748 315.235 44.6999 315.235 44.6999H367.891H367.877ZM369.718 43.9919H315.016L314.832 44.1123C306.249 50.0166 293.149 58.9014 291.747 59.5597C291.372 59.5597 290.288 59.7084 287.364 60.027C280.155 60.8199 265.15 62.4765 261.064 62.4765C260.807 62.494 260.549 62.494 260.292 62.4765L259.797 62.2287L259.443 62.7101L254.387 69.6622L247.157 58.4978L246.52 57.5067L245.946 58.5332L236.032 76.2319L235.77 76.6992L236.146 77.0815L242.774 83.7008L240.033 86.9857L219.307 74.5541L218.924 74.3276L218.556 74.5754L214.307 77.4072L213.599 77.8815L214.208 78.4974L219.377 83.6584H200.35L200.188 83.7574L182.619 94.2563H180.389L178.923 91.8139L180.212 91.3892L180.438 91.3113L180.573 91.106L181.989 88.9821L182.47 88.2742L181.67 87.9485L173.173 84.4088L172.295 84.0406L172.203 84.9893L171.495 92.0688L171.445 92.5148L171.835 92.7484L174.766 94.5041L173.47 96.628L171.282 94.4333L170.893 94.0511L170.425 94.3271L161.928 99.2828L161.425 99.5731L161.609 100.118L162.714 103.431H161.036L155.52 100.677L155.059 100.444L154.698 100.805L152.574 102.929L151.965 103.545L152.673 104.019L156.603 106.645V107.46L150.18 105.711L149.515 99.1129V98.7872L149.246 98.6032L145.209 95.7714L156.468 98.4474L156.653 98.497L156.837 98.4403L166.042 95.6085L166.623 95.4245L166.538 94.8298L165.83 89.8741L165.773 89.4706L165.398 89.322L124.327 72.3312L124.065 72.2179L123.803 72.3241L99.7271 81.5274L99.5501 81.5911L99.4297 81.7398L78.2712 107.835L66.3394 114.851L65.9712 115.063V115.495L66.6793 131.07V131.579L67.182 131.714L74.9713 133.838L75.4104 133.965L75.7007 133.604L81.3656 126.709L86.3224 137.901L83.2138 140.393L83.0864 140.493L83.0226 140.627L81.6064 143.459L81.1886 144.287L82.095 144.471L85.6356 145.179L85.8763 145.229L86.0959 145.115L97.4258 139.452L97.7798 139.275V138.878L98.4454 130.85L102.255 129.583L102.453 129.519L102.581 129.349L105.413 125.81L105.909 125.194L105.201 124.769L99.9042 121.463L100.541 114.468L108.72 109.697L108.89 109.605L108.982 109.442L114.35 100.047L120.454 102.263L110.023 111.389L109.754 111.622V111.976L110.462 121.18V121.364L110.575 121.527L118.145 132.542L117.196 134.914L113.656 132.571L113.245 132.294L112.841 132.592L110.009 134.716L109.726 134.928V143.813H100.52C99.8121 143.813 95.5633 145.689 91.9661 147.31L87.2572 145.965L86.9952 145.887L86.7473 146.015L82.9943 147.891L79.4538 143.756L81.9888 139.954L82.1305 139.742V139.487L81.4223 133.116L81.2948 131.962L80.3318 132.606L73.9588 136.854L73.7109 137.017L73.6542 137.3L72.9461 140.839L72.9037 141.038L72.9745 141.222L75.5449 148.301L67.7557 150.368L67.5715 150.418L67.437 150.552L58.3519 159.487L39.3885 165.809L39.2823 165.844L39.1903 165.915L36.3578 168.039L35.6497 168.563L36.3011 169.136L47.9992 179.458L46.1794 185.525L30.6645 183.458H30.4521L30.2539 183.557L24.5889 186.389L24.1499 186.608L24.2065 187.097L26.3309 206.211L26.3733 206.615L26.7415 206.778L34.5308 210.318L34.7149 210.403H34.9132L45.535 208.987H45.7757L45.9457 208.817L50.9025 203.861L51.0724 203.684V203.443L51.7381 198.12L60.6532 192.633L60.9931 192.428V187.833L70.1491 188.491H70.5032L70.7368 188.222L74.7235 183.571L78.1862 184.145L79.4538 187.316L79.5316 187.507L79.6945 187.628L92.8159 197.291L92.1573 203.259V203.493L92.2777 203.698L94.4021 207.238L94.9969 208.229L95.6129 207.252L99.1535 201.589L99.2597 201.419V197.73L101.653 199.642L102.255 200.123L102.68 199.479L104.096 197.355L104.479 196.782L103.919 196.385L85.3949 183.359L88.7584 178.87L104.259 191.67L104.967 197.051V197.291L105.137 197.468L109.131 201.454L108.479 205.348L108.416 205.758L108.749 206.02L115.121 210.976L115.957 211.627L116.233 210.601L118.358 202.813L118.428 202.573L118.322 202.339L115.844 196.753L123.414 195.005L124.051 202.686V202.969L124.256 203.153L132.046 210.233L132.265 210.438H132.57L151.342 209.093L146.151 224.668L134.708 226.013L112.197 218.983L111.652 218.813L111.369 219.309L105.449 229.708L80.9691 217.864L82.9235 211.365L82.9943 211.118L82.8952 210.884L80.7708 205.928L80.5584 205.433L80.0273 205.504L36.1241 211.167H35.8338L35.6568 211.401L5.20779 251.046L5.09447 251.187V251.372L1.55389 274.026L1.50427 274.337L1.70965 274.585L26.4937 304.319L26.7062 304.574H77.1524L74.4969 317.168L74.4473 317.423L74.5677 317.65L89.2895 344.991L83.0156 363.815L82.9305 364.063L83.0297 364.311L104.273 416.699L104.493 417.23L105.059 417.124L124.886 413.584L125.163 413.534L125.333 413.308L142.235 390.073L149.883 385.903L150.272 385.691V385.252L149.663 371.419L165.631 356.056L165.929 355.773L165.83 355.376L160.257 333.076L189.757 298.663L189.842 298.563L189.884 298.436L195.549 282.153L195.967 280.964L194.735 281.226L175.326 285.388L160.08 267.371L145.528 236.929L149.302 234.806L175.148 279.505L175.467 280.044L176.041 279.803L207.906 266.352L208.083 266.274L208.203 266.118L218.117 252.667L218.485 252.157L218.025 251.733L208.111 242.529L207.779 242.218L207.361 242.395L195.868 247.124L185.43 230.841L191.556 229.722L193.496 236.2L193.602 236.547L193.949 236.667L202.446 239.499L202.659 239.57L202.864 239.506L207.424 238.204L212.084 242.869L212.282 243.067H212.565L234.914 243.775L246.746 257.694L247.185 258.21L247.723 257.793L252.921 253.545V269.12C252.921 269.368 252.921 270.019 266.085 292.928L266.531 293.7L267.182 293.098L274.646 286.181L274.873 285.969V272.27L294.247 255.279L305.577 253.616L314.477 272.78L314.931 273.743L315.639 272.964L320.263 267.923L323.683 270.203L323.251 292.567V292.907L323.52 293.126L330.07 298.478V307.094L330.481 307.285L341.103 312.241L342.519 312.892L342.094 311.406L339.262 301.494L339.219 301.346L339.127 301.232L328.732 288.758L331.154 278.479L342.887 293.02L343.312 293.558L343.857 293.148L355.293 284.553L355.555 284.355V284.022L356.15 272.518V272.206L355.923 271.98L345.238 261.332L350.528 255.315L355.839 254.713L356.547 257.984L356.674 258.536H359.91L360.052 258.012L360.994 254.472L377.755 248.575L377.967 248.504L378.095 248.32L390.841 230.622L391.06 230.317L390.933 229.963L380.495 202.134L388.992 195.592L398.049 198.176V205.404H402.822L400.209 216.569L399.933 217.73L401.08 217.411L408.869 215.287L409.16 215.209L409.301 214.955L412.842 208.583L413.047 208.215L412.828 207.868L407.446 199.118L415.427 190.474L425.121 188.399L425.354 188.35L425.51 188.166L441.089 169.759L441.223 169.596V169.391L444.056 148.153L444.148 147.487L443.489 147.367L429.964 144.79L445.812 129.654H480.509L480.722 129.449L492.923 117.243L496.676 121.619L497.15 122.171L497.688 121.682L505.371 114.702L508.027 113.817L505.832 119.311L483.668 137.243L483.399 137.463V137.816L484.107 161.179L484.142 162.234L485.105 161.802L491.478 158.97L491.627 158.906L491.733 158.772L504.479 143.197L504.706 142.921L504.621 142.581L502.546 134.284L505.442 125.788H515.356H515.455L550.861 115.169L551.626 114.936L551.3 114.228L548.021 106.837L552.978 100.508L569.477 107.382L569.845 107.537L570.171 107.297L581.501 98.8014L582.45 98.0934L581.374 97.5978L539.779 78.4832L539.63 78.4124H539.467L498.319 79.3894L494.991 74.0656L494.778 73.7329H475.503L462.233 63.9561L462.049 63.8216H444.438L444.233 64.1402L440.189 70.1932H412.799L410.831 62.2287L410.696 61.6978H410.123L351.023 60.9898L368.344 45.2379L369.696 44.0061L369.718 43.9919Z"
            fill="white"
          />
          <path
            d="M35.8834 162.765L42.7875 157.186H38.0502L42.2564 150.935V146.921L37.3775 145.625L34.4459 136.726L37.4129 129.3H43.6514L39.2186 132.953L45.967 133.831L43.0354 140.195L56.4188 153.037V158.977L45.5633 161.143L35.8834 166.354V162.765Z"
            fill="#D2D2D2"
          />
          <path
            d="M42.6671 129.654L38.3618 133.194L45.4429 134.114L42.6105 140.273L56.0647 153.186V158.68L45.4429 160.804L36.2374 165.759V162.927L43.786 156.825H38.7158L42.6105 151.041V146.645L37.6537 145.328L34.8212 136.733L37.6537 129.654H42.6671ZM44.6428 128.946H37.1721L36.9951 129.392L34.1626 136.471L34.0706 136.712L34.1485 136.953L36.981 145.554L37.1013 145.915L37.4695 146.015L41.9024 147.19V150.822L38.1281 156.436L37.3846 157.533H41.782L35.7913 162.375L35.5293 162.588V166.942L36.5702 166.382L45.6837 161.476L56.2063 159.352L56.7728 159.239V152.868L56.5532 152.655L43.4673 140.096L46.0874 134.433L46.4909 133.562L45.535 133.434L40.0755 132.726L43.1132 130.22L44.6428 128.967V128.946Z"
            fill="white"
          />
          <path
            d="M23.5197 155.515V147.353H27.5984L30.3884 142.723L35.9046 143.515L35.1611 155.112L25.4528 159.133L23.5197 155.515Z"
            fill="#D2D2D2"
          />
          <path
            d="M30.5725 143.105L35.5293 143.813L34.8212 154.864L25.6157 158.68L23.8738 155.423V147.707H27.7967L30.5725 143.105ZM30.2114 142.34L29.9636 142.737L27.4002 146.984H23.1515V155.586L23.2365 155.749L24.9784 158.998L25.2829 159.565L25.8706 159.317L35.0761 155.508L35.4868 155.338V154.899L36.1949 143.841L36.2375 143.19L35.586 143.098L30.6291 142.39L30.1689 142.326L30.2114 142.34Z"
            fill="white"
          />
          <path
            d="M89.7002 39.5885V35.6948L81.9109 30.8807V23.0295L92.1007 25.21L97.1212 21.6278L121.884 36.9124L115.603 40.8416L110.356 39.3407L106.32 32.6081L97.3974 45.2096L89.7002 39.5885Z"
            fill="#D2D2D2"
          />
          <path
            d="M97.1354 22.0456L121.211 36.9125L115.546 40.4522L110.59 39.0364L106.341 31.9569L97.3125 44.6999L90.0543 39.4116V35.4966L82.265 30.6826V23.4615L92.1786 25.5853L97.1354 22.0456ZM97.1354 21.196L96.753 21.4721L92.0511 24.8278L82.4137 22.7535L81.5569 22.5694V31.0648L81.8897 31.2702L89.3462 35.8789V39.7443L89.6365 39.9567L96.8947 45.2592L97.4753 45.684L97.8931 45.0964L106.291 33.2312L109.981 39.3762L110.129 39.6169L110.398 39.6947L115.355 41.1106L115.653 41.1956L115.922 41.0328L121.587 37.493L122.55 36.8842L121.587 36.2895L97.5108 21.4226L97.1071 21.1748L97.1354 21.196Z"
            fill="white"
          />
          <path
            d="M102.135 23.5535L107 19.504L111.411 21.6916H124.695L127.846 24.6508L115.539 29.5144L102.135 23.5535Z"
            fill="#D2D2D2"
          />
          <path
            d="M107.049 19.9217L111.298 22.0455H124.525L127.167 24.5233L115.546 29.125L102.8 23.4614L107.049 19.9217ZM106.95 19.0792L106.596 19.3765L102.347 22.9163L101.469 23.6242L102.51 24.0844L115.256 29.748L115.532 29.8683L115.809 29.7622L127.457 25.1605L128.498 24.7499L127.684 23.9853L125.035 21.5075L124.83 21.3163H111.496L107.361 19.2633L106.95 19.058V19.0792Z"
            fill="white"
          />
          <path
            d="M202.538 75.4957L193.63 69.5631L208.076 51.5104L219.923 44.3601H232.343L238.759 40.0275L243.758 43.3619L217.019 54.2006L206.532 66.08L206.369 69.3578L211.532 75.4957H202.538Z"
            fill="#D2D2D2"
          />
          <path
            d="M238.759 40.4522L243.007 43.284L216.807 53.9032L206.185 65.9384L206.008 69.4781L210.767 75.1417H202.645L194.147 69.4781L208.31 51.7794L220.022 44.6999H232.456L238.759 40.4522ZM238.759 39.6027L238.362 39.8646L232.237 44.0061H219.831L219.661 44.1052L207.941 51.1847L207.835 51.2555L207.757 51.3546L193.595 69.0534L193.114 69.6551L193.758 70.0799L202.255 75.7435L202.432 75.8638H212.289L211.312 74.7028L206.731 69.2516L206.879 66.2357L217.225 54.5121L243.276 43.9566L244.516 43.4539L243.397 42.7106L239.148 39.8788L238.759 39.6168V39.6027Z"
            fill="white"
          />
          <path
            d="M313.005 27.341L301.625 22.796L306.547 20.3323L313.741 14.5767L321.254 16.8279V20.3535L329.971 22.5057L326.785 31.6949L313.005 27.341Z"
            fill="#D2D2D2"
          />
          <path
            d="M313.819 14.966L320.9 17.0898V20.6296L329.511 22.7534L326.565 31.2488L313.111 27.0011L302.489 22.7534L306.738 20.6296L313.819 14.966ZM313.663 14.1802L313.38 14.4138L306.355 20.0278L302.171 22.1517L300.754 22.8596L302.22 23.4472L312.842 27.6949H312.891L326.346 31.9426L327.004 32.155L327.224 31.5037L330.177 23.0083L330.431 22.3003L329.674 22.1163L321.601 20.1269V16.5872L321.098 16.4314L314.017 14.3076L313.656 14.2014L313.663 14.1802Z"
            fill="white"
          />
          <path
            d="M335.82 25.7198L338.971 30.5551L343.914 30.9233V34.4064L326.395 35.9356L335.82 25.7198Z"
            fill="#D2D2D2"
          />
          <path
            d="M335.771 26.2932L338.766 30.8949L343.56 31.2489V34.0807L327.273 35.4966L335.771 26.2932ZM335.87 25.1464L335.254 25.8118L326.756 35.0152L325.51 36.3603L327.337 36.2045L343.624 34.7886L344.268 34.732V30.5905L343.609 30.5409L339.17 30.2153L336.337 25.9039L335.841 25.1464H335.87Z"
            fill="white"
          />
          <path
            d="M430.771 48.8839L435.013 46.4486L440.515 48.5512L443.886 45.9955L457.29 48.7352L453.417 52.636L438.653 56.0625L430.771 48.8839Z"
            fill="#D2D2D2"
          />
          <path
            d="M443.971 46.3707L456.575 48.9476L453.24 52.3104L438.759 55.6731L431.366 48.9476L435.041 46.8238L440.572 48.9476L443.971 46.3707ZM443.801 45.6132L443.546 45.8043L440.459 48.1476L435.296 46.1725L434.985 46.0521L434.694 46.222L431.012 48.3459L430.17 48.8344L430.878 49.4857L438.263 56.2112L438.539 56.4589L438.901 56.374L453.382 53.0112L453.58 52.9688L453.722 52.8201L457.064 49.4573L457.992 48.5299L456.703 48.268L444.098 45.6911L443.787 45.6273L443.801 45.6132Z"
            fill="white"
          />
          <path
            d="M464.549 54.9652L457.446 50.668H464.244L473.789 52.6856L469.031 54.9652H464.549Z"
            fill="#D2D2D2"
          />
          <path
            d="M464.209 51.0219L472.706 52.8201L468.96 54.6112H464.648L458.714 51.0219H464.209ZM464.28 50.314H456.15L458.317 51.6307L464.251 55.22L464.421 55.3192H469.088L469.229 55.2484L472.975 53.4573L474.852 52.5582L472.812 52.1263L464.315 50.3281H464.237L464.28 50.314Z"
            fill="white"
          />
          <path
            d="M445.175 155.069L448.899 146.878L450.861 147.855L450.131 154.588L451.526 161.391L454.522 166.616L452.574 167.593L449.99 165.66L448.743 170.573L450.535 173.207L451.604 177.249L449.976 178.276L448.361 175.939L447.561 177.568L445.897 178.347L445.175 155.069Z"
            fill="#D2D2D2"
          />
          <path
            d="M449.069 147.353L450.485 148.061L449.777 154.602L451.193 161.512L454.026 166.467L452.61 167.175L449.777 165.051L448.361 170.637L450.209 173.356L451.193 177.086L450.075 177.794L448.304 175.232L447.299 177.292L446.237 177.794L445.529 155.14L449.069 147.353ZM448.729 146.39L448.425 147.098L444.884 154.885L444.813 155.034V155.14L445.521 177.794L445.557 178.871L446.534 178.41L447.596 177.915L447.816 177.809L447.929 177.582L448.404 176.612L449.48 178.177L449.869 178.736L450.443 178.375L451.562 177.667L452.001 177.384L451.873 176.881L450.889 173.15V173.037L450.825 172.938L449.154 170.481L450.23 166.234L452.213 167.72L452.56 167.982L452.957 167.784L454.373 167.076L455.039 166.743L454.67 166.092L451.895 161.235L450.521 154.545L451.229 148.117L451.285 147.629L450.847 147.409L449.43 146.701L448.772 146.369L448.729 146.39Z"
            fill="white"
          />
          <path
            d="M439.446 188.194L444.466 186.29V180.477L446.215 178.729L451.356 183.132L454.975 183.84L456.674 187.238L456.221 187.33C454.89 187.599 452.61 188.187 452.15 188.647L449.105 191.699L446.152 189.483L443.156 190.084L443.808 192.031L441.089 194.757L439.446 188.194Z"
            fill="#D2D2D2"
          />
          <path
            d="M446.237 179.21L451.193 183.458L454.734 184.166L456.15 186.998C456.15 186.998 452.61 187.706 451.902 188.414L449.069 191.245L446.237 189.122L442.696 189.829L443.404 191.953L441.28 194.077L439.864 188.414L444.82 186.537V180.626L446.237 179.21ZM446.201 178.247L445.734 178.708L444.318 180.123L444.112 180.336V186.049L439.616 187.748L439.021 187.975L439.177 188.583L440.593 194.247L440.897 195.465L441.783 194.58L443.907 192.456L444.211 192.144L444.077 191.727L443.624 190.368L446.067 189.879L448.644 191.812L449.133 192.18L449.572 191.748L452.404 188.916C452.737 188.583 454.677 188.017 456.292 187.691L457.198 187.507L456.78 186.679L455.364 183.847L455.216 183.543L454.876 183.472L451.512 182.8L446.697 178.672L446.201 178.247Z"
            fill="white"
          />
          <path
            d="M413.231 221.213L410.987 220.462L412.693 217.907L421.318 211.436L428.343 210.735L432.698 204.93L434.879 206.381L439.524 202.396L440.239 196.017L444.212 192.838L447.356 198.339L443.751 204.109L443.036 212.703L439.97 214.473L432.28 214.955L430.184 218.445L427.882 219.209H422.019L418.202 221.227L416.765 225.546L411.751 226.381L413.231 221.213Z"
            fill="#D2D2D2"
          />
          <path
            d="M444.112 193.369L446.945 198.325L443.404 203.989L442.696 212.484L439.864 214.126L432.074 214.608L429.95 218.148L427.826 218.855H421.934L417.912 220.979L416.496 225.227L412.247 225.935L413.663 220.979L411.539 220.271L412.955 218.148L421.453 211.776L428.534 211.068L432.783 205.404L434.907 206.82L439.864 202.573L440.572 196.201L444.112 193.369ZM444.318 192.3L443.673 192.817L440.133 195.649L439.899 195.833V196.123L439.191 202.219L434.85 205.935L433.172 204.817L432.62 204.442L432.216 204.98L428.151 210.395L421.382 211.103H421.184L421.028 211.224L412.53 217.595L412.431 217.666L412.367 217.772L410.951 219.896L410.434 220.661L411.312 220.958L412.799 221.454L411.567 225.758L411.256 226.834L412.36 226.65L416.609 225.942L417.034 225.871L417.169 225.468L418.493 221.489L422.111 219.578H427.939H428.052L430.177 218.87L430.424 218.785L430.559 218.558L432.492 215.344L439.906 214.884H440.076L440.218 214.799L443.05 213.164L443.369 212.972L443.404 212.604L444.112 204.279L447.561 198.764L447.78 198.403L447.575 198.035L444.743 193.079L444.332 192.371L444.318 192.3Z"
            fill="white"
          />
          <path
            d="M386.868 256.313L384.978 251.464L385.707 246.324L388.851 242.395L390.635 244.186L391.365 250.763L389.12 256.313H386.868Z"
            fill="#D2D2D2"
          />
          <path
            d="M388.879 242.926L390.296 244.342L391.004 250.713L388.879 255.959H387.109L385.339 251.421L386.047 246.465L388.879 242.926ZM388.823 241.864L388.327 242.487L385.494 246.027L385.374 246.175V246.366L384.666 251.322V251.506L384.737 251.676L386.507 256.214L386.684 256.667H389.41L389.594 256.221L391.719 250.982L391.783 250.812V250.635L391.075 244.264V244.016L390.897 243.839L389.481 242.423L388.922 241.864H388.823Z"
            fill="white"
          />
          <path
            d="M351.583 262.118L353.268 259.591L358.452 258.847L361.56 259.683L359.386 264.476L355.506 265.254L351.583 262.118Z"
            fill="#D2D2D2"
          />
          <path
            d="M358.43 259.209L361.064 259.917L359.138 264.164L355.598 264.872L352.057 262.04L353.473 259.917L358.43 259.209ZM358.473 258.501H358.331L353.374 259.209L353.063 259.251L352.886 259.52L351.469 261.644L351.108 262.182L351.618 262.585L355.159 265.417L355.414 265.623L355.739 265.559L359.28 264.851L359.634 264.78L359.783 264.447L361.709 260.2L362.056 259.442L361.263 259.209L358.629 258.501H358.487H358.473Z"
            fill="white"
          />
          <path
            d="M272.345 296.893L274.639 287.718L276.544 288.695L277.33 290.953L279.539 296.1L276.345 299.533L272.345 296.893Z"
            fill="#D2D2D2"
          />
          <path
            d="M274.873 288.234L276.253 288.942L276.997 291.066L279.121 296.022L276.289 299.073L272.748 296.73L274.873 288.234ZM274.405 287.201L274.186 288.065L272.061 296.56L271.941 297.041L272.359 297.317L275.899 299.661L276.402 299.993L276.806 299.555L279.638 296.503L279.957 296.163L279.773 295.746L277.648 290.79L276.94 288.666L276.848 288.397L276.593 288.27L275.212 287.562L274.419 287.158L274.405 287.201Z"
            fill="white"
          />
          <path
            d="M174.051 387.701L171.126 376.735L174.83 360.799H179.801L187.689 349.33L191.669 352.141V358.385L181.784 387.701H174.051Z"
            fill="#D2D2D2"
          />
          <path
            d="M187.774 349.826L191.315 352.325V358.322L181.529 387.347H174.32L171.488 376.728L175.113 361.153H179.985L187.774 349.826ZM187.597 348.835L187.194 349.423L179.61 360.445H174.547L174.419 360.99L170.801 376.565L170.758 376.742L170.801 376.912L173.633 387.532L173.775 388.055H182.039L182.201 387.574L191.988 358.548L192.023 358.435V351.95L191.726 351.738L188.185 349.239L187.597 348.828V348.835Z"
            fill="white"
          />
          <path
            d="M439.701 424.685L417.119 405.443L377.302 416.749L369.399 413.556L373.662 410.766L365.858 391.645L368.025 376.452L387.902 370.781L390.706 363.305L403.672 353.699L411.412 355.483L419.505 346.01L432.166 349.592L429.667 357.323L441.726 364.141L443.765 352.601L446.924 344.028L456.448 366.951L476.764 387.17L479.178 397.995L469.165 424.444L456.164 428.755L439.701 424.685Z"
            fill="#D2D2D2"
          />
          <path
            d="M446.945 344.998L456.15 367.15L476.445 387.347L478.81 397.967L468.896 424.161L456.15 428.408L439.864 424.38L417.204 405.046L377.323 416.373L370.157 413.478L374.094 410.901L366.22 391.595L368.344 376.728L388.171 371.065L391.004 363.518L403.75 354.067L411.539 355.865L419.626 346.407L431.72 349.819L429.242 357.479L441.988 364.686L444.112 352.651L446.945 344.991V344.998ZM446.909 343.051L446.279 344.743L443.447 352.403V352.467V352.53L441.492 363.575L430.12 357.146L432.421 350.067L432.648 349.359L431.94 349.161L419.852 345.741L419.413 345.621L419.116 345.968L411.326 355.1L403.962 353.401L403.644 353.323L403.374 353.522L390.628 362.973L390.465 363.093L390.387 363.291L387.683 370.505L368.202 376.063L367.756 376.19L367.692 376.643L365.568 391.51V391.701L365.639 391.878L373.301 410.639L369.845 412.897L368.719 413.605L369.973 414.115L377.132 417.011L377.358 417.103L377.592 417.032L417.112 405.811L439.481 424.876L439.609 424.982L439.772 425.024L456.058 429.053L456.256 429.102L456.448 429.031L469.194 424.784L469.519 424.678L469.64 424.359L479.554 398.165L479.624 397.967L479.582 397.761L477.21 387.142L477.167 386.944L477.018 386.795L456.83 366.704L447.674 344.672L446.966 343.009L446.909 343.051Z"
            fill="white"
          />
          <path
            d="M452.659 435.842H463.501V440.592L458.933 445.251L452.659 435.842Z"
            fill="#D2D2D2"
          />
          <path
            d="M463.146 436.196V440.444L458.983 444.691L453.318 436.196H463.146ZM463.855 435.488H451.994L452.702 436.585L458.367 445.081L458.848 445.789L459.457 445.166L463.621 440.918L463.826 440.713V435.488H463.855Z"
            fill="white"
          />
          <path
            d="M516.099 454.957L514.499 450.95L522.805 444.451L529.688 434.306L532.209 435.842H536.479L534.744 440.614L528.796 448.705L523.223 454.957H516.099Z"
            fill="#D2D2D2"
          />
          <path
            d="M529.794 434.78L532.11 436.196H535.976L534.433 440.444L528.513 448.493L523.067 454.603H516.34L514.924 451.063L523.067 444.691L529.794 434.78ZM529.589 433.824L529.207 434.383L522.543 444.203L514.485 450.503L514.067 450.829L514.265 451.325L515.682 454.864L515.859 455.31H523.421L523.634 455.07L529.072 448.96L534.992 440.911L535.056 440.833V440.734L536.599 436.486L536.939 435.537H532.273L530.148 434.228L529.575 433.874L529.589 433.824Z"
            fill="white"
          />
          <path
            d="M537.208 435.53L537.895 432.791L535.665 430.929L535.02 428.897L537.23 428.132V424.281L531.458 416.437L532.45 413.69L537.938 417.612V421.683H540.565L544.028 425.152L546.973 423.679L548.489 427.41L538.929 438.964L537.208 435.53Z"
            fill="#D2D2D2"
          />
          <path
            d="M532.627 414.249L537.584 417.789V422.037H540.416L543.957 425.577L546.789 424.161L548.085 427.346L539 438.32L537.584 435.488L538.292 432.656L535.976 430.723L535.459 429.116L537.584 428.408V424.161L531.855 416.373L532.627 414.249ZM532.28 413.131L531.961 414.009L531.189 416.133L531.062 416.487L531.289 416.791L536.876 424.394V427.877L535.226 428.444L534.574 428.67L534.787 429.336L535.297 430.936L535.36 431.134L535.523 431.261L537.499 432.918L536.897 435.318L536.833 435.573L536.954 435.806L538.37 438.638L538.851 439.608L539.559 438.773L548.645 427.8L548.914 427.474L548.758 427.077L547.462 423.892L547.172 423.184L546.463 423.531L544.091 424.713L540.912 421.534L540.699 421.329H538.292V417.428L537.994 417.216L533.038 413.676L532.28 413.131Z"
            fill="white"
          />
          <path
            d="M341.988 331.773L325.503 313.876V310.344L314.74 301.02L316.722 298.663L323.067 300.673L328.888 307.746L331.706 308.446L346.052 323.512L345.174 331.773H341.988Z"
            fill="#D2D2D2"
          />
          <path
            d="M316.843 299.073L322.862 300.978L328.689 308.057L331.522 308.765L345.684 323.632L344.856 331.419H342.144L325.857 313.721V310.181L315.235 300.978L316.843 299.073ZM316.602 298.252L316.297 298.613L314.69 300.524L314.244 301.055L314.775 301.516L325.149 310.507V314.046L325.333 314.252L341.62 331.95L341.832 332.177H345.493L345.564 331.547L346.385 323.759L346.421 323.434L346.194 323.193L332.032 308.326L331.89 308.177L331.692 308.128L329.086 307.477L323.421 300.574L323.287 300.418L323.088 300.355L317.069 298.443L316.616 298.301L316.602 298.252Z"
            fill="white"
          />
          <path
            d="M359.301 339.384L355.513 337.437H349.834L343.517 333.494L349.005 331.037L356.575 334.315L361.043 332.694L368.556 334.386L370.206 337.918L368.004 339.384H359.301Z"
            fill="#D2D2D2"
          />
          <path
            d="M349.012 331.419L356.561 334.69L361.064 333.055L368.309 334.69L369.76 337.791L367.898 339.023H359.401L355.598 337.083H349.933L344.268 333.543L349.012 331.419ZM349.012 330.648L348.729 330.775L343.985 332.899L342.774 333.437L343.9 334.145L349.565 337.685L349.735 337.791H355.435L359.068 339.653L359.224 339.731H368.117L368.294 339.617L370.157 338.378L370.667 338.046L370.412 337.494L368.995 334.393L368.847 334.074L368.507 334.003L361.263 332.361L361.064 332.318L360.866 332.389L356.618 333.933L349.324 330.768L349.041 330.648H349.012Z"
            fill="white"
          />
          <path
            d="M356.724 323.802L353.799 311.512L356.462 308.319L360.994 310.407L376.091 295.569L382.988 300.171L379.376 305.954L382.988 312.857L378.959 314.868L375.765 321.614L375.014 326.874L356.724 323.802Z"
            fill="#D2D2D2"
          />
          <path
            d="M376.133 296.022L382.506 300.27L378.966 305.933L382.506 312.694L378.69 314.606L375.425 321.508L374.717 326.464L357.014 323.483L354.182 311.597L356.561 308.765L361.064 310.846L376.133 296.022ZM376.048 295.116L375.638 295.519L360.916 309.983L356.858 308.114L356.37 307.887L356.016 308.298L353.636 311.13L353.41 311.399L353.495 311.745L356.327 323.639L356.433 324.092L356.894 324.17L374.597 327.15L375.305 327.271L375.411 326.563L376.119 321.713L379.235 315.129L382.832 313.331L383.476 313.006L383.143 312.368L379.787 305.997L383.115 300.68L383.476 300.1L382.903 299.717L376.53 295.47L376.055 295.151L376.048 295.116Z"
            fill="white"
          />
          <path
            d="M383.554 330.357L383.724 326.584L381.409 323.71L384.192 314.4L388.766 310.875L395.21 311.944L399.855 310.011V312.482L396.775 314.797L389.042 314.096L387.166 316.602L387.938 318.322L389.46 316.899L394.82 317.416L390.182 320.708L394.367 326.598L389.347 329.104L388.214 324.354L387.074 330.357H383.554Z"
            fill="#D2D2D2"
          />
          <path
            d="M399.501 310.535V312.305L396.669 314.429L388.879 313.721L386.755 316.552L387.817 318.924L389.587 317.26L393.836 317.678L389.686 320.623L393.836 326.464L389.587 328.588L388.171 322.655L386.755 330.003H383.922L384.085 326.464L381.798 323.632L384.503 314.606L388.858 311.243L395.231 312.305L399.48 310.535H399.501ZM400.188 309.473L399.211 309.883L395.146 311.575L388.95 310.542L388.646 310.492L388.405 310.683L384.043 314.046L383.866 314.181L383.802 314.4L381.097 323.427L380.991 323.788L381.225 324.078L383.349 326.697L383.214 330.003L383.179 330.711H387.371L387.477 330.138L388.249 326.046L388.901 328.75L389.106 329.621L389.906 329.218L394.155 327.094L394.898 326.726L394.417 326.053L390.678 320.793L394.219 318.251L395.769 317.154L393.879 316.97L389.63 316.552H389.311L389.078 316.772L388.03 317.756L387.541 316.673L389.184 314.492L396.577 315.2H396.846L397.065 315.037L399.898 312.914L400.181 312.701V309.473H400.188Z"
            fill="white"
          />
          <path
            d="M370.702 340.212L371.707 337.253L373.881 338.648L378.236 337.43L382.86 338.117V340.233L376.126 340.984L370.702 340.212Z"
            fill="#D2D2D2"
          />
          <path
            d="M378.258 337.791L382.506 338.421V339.915L376.133 340.623L371.176 339.915L371.885 337.791L373.811 339.023L378.258 337.791ZM371.516 336.708L371.226 337.564L370.518 339.688L370.249 340.495L371.091 340.616L376.048 341.324H376.133H376.225L382.598 340.616L383.229 340.552V337.791L382.627 337.699L378.378 337.069H378.229L378.081 337.111L373.952 338.258L372.295 337.196L371.531 336.708H371.516Z"
            fill="white"
          />
          <path
            d="M394.19 343.809V341.996L403.573 337.324L404.635 339.334L397.646 343.809H394.19Z"
            fill="#D2D2D2"
          />
          <path
            d="M403.424 337.791L404.168 339.207L397.547 343.454H394.544V342.216L403.424 337.791ZM403.729 336.849L403.105 337.154L394.226 341.578L393.836 341.777V344.162H397.752L397.929 344.049L404.55 339.801L405.102 339.455L404.798 338.874L404.047 337.458L403.729 336.849Z"
            fill="white"
          />
          <path
            d="M384.312 339.044L387.406 336.8L389.503 338.541L394.587 336.864L397.632 338.655L393.454 339.554L387.329 341.005L384.312 339.044Z"
            fill="#D2D2D2"
          />
          <path
            d="M394.544 337.246L396.669 338.499L393.376 339.207L387.392 340.623L384.935 339.023L387.392 337.246L389.425 338.938L394.544 337.246ZM387.421 336.354L386.974 336.672L384.517 338.449L383.682 339.058L384.553 339.617L387.01 341.217L387.265 341.38L387.555 341.309L393.539 339.894L396.817 339.186L398.588 338.803L397.03 337.883L394.905 336.63L394.629 336.467L394.325 336.566L389.573 338.131L387.845 336.715L387.421 336.368V336.354Z"
            fill="white"
          />
          <path
            d="M462.368 344.516L455.322 336.771L450.266 338.067V341.685H445.444L440.636 339.292H434.602L434.553 336.205L437.123 334.272L425.631 326.803L420.546 326.088L414.612 317.933L417.062 315.49H423.117L425.978 323.356L427.684 323.922L430.453 319.965L436.344 318.308L453.495 325.451L463.189 332.899L460.293 334.35L470.653 344.516H462.368Z"
            fill="#D2D2D2"
          />
          <path
            d="M422.869 315.844L425.701 323.632L427.826 324.34L430.658 320.269L436.323 318.676L453.318 325.756L462.523 332.835L459.691 334.251L469.789 344.162H462.523L455.442 336.375L449.912 337.791V341.331H445.529L440.72 338.938H434.949L434.907 336.375L437.739 334.251L425.758 326.464L420.745 325.756L415.08 317.968L417.204 315.844H422.869ZM423.365 315.136H416.914L416.708 315.342L414.584 317.466L414.159 317.897L414.513 318.386L420.178 326.173L420.355 326.414L420.653 326.457L425.51 327.165L436.514 334.315L434.489 335.83L434.199 336.049V336.41L434.241 338.966V339.674H440.543L445.203 341.996L445.352 342.067H450.613V338.371L455.194 337.196L461.992 344.665L462.205 344.899H471.509L470.277 343.688L460.888 334.485L462.835 333.508L463.841 333.005L462.948 332.297L453.743 325.218L453.672 325.161L453.58 325.126L436.585 318.046L436.359 317.947L436.125 318.018L430.46 319.611L430.219 319.682L430.07 319.887L427.528 323.526L426.225 323.087L423.513 315.625L423.343 315.158L423.365 315.136Z"
            fill="white"
          />
          <path
            d="M465.915 333.189L463.175 330.449L469.605 329.671L472.72 326.11H475.482V330.195L471.07 333.189H465.915Z"
            fill="#D2D2D2"
          />
          <path
            d="M475.128 326.464V330.004L470.964 332.835H466.064L463.94 330.711L469.789 330.004L472.883 326.464H475.128ZM475.836 325.756H472.564L472.352 325.997L469.428 329.331L463.855 330.039L462.438 330.209L463.465 331.242L465.59 333.366L465.802 333.572H471.205L471.389 333.451L475.553 330.619L475.864 330.407V325.756H475.836Z"
            fill="white"
          />
          <path
            d="M411.334 325.416L408.643 326.145L406.228 324.531V323.101L411.185 321.48L416.354 324.29L413.975 326.145L411.334 325.416Z"
            fill="#D2D2D2"
          />
          <path
            d="M411.149 321.862L415.71 324.34L413.897 325.756L411.334 325.048L408.706 325.756L406.582 324.34V323.356L411.149 321.862ZM411.213 321.09L410.93 321.19L406.363 322.683L405.874 322.846V324.722L406.193 324.927L408.317 326.343L408.579 326.52L408.891 326.443L411.326 325.784L413.706 326.435L414.053 326.535L414.329 326.315L416.149 324.899L416.999 324.234L416.05 323.717L411.482 321.239L411.213 321.09Z"
            fill="white"
          />
          <path
            d="M400.429 324.333L402.185 322.57H404.083L405.619 325.975L402.78 326.874L400.429 324.333Z"
            fill="#D2D2D2"
          />
          <path
            d="M403.849 322.924L405.131 325.756L402.886 326.464L400.917 324.34L402.334 322.924H403.849ZM404.309 322.216H402.043L401.831 322.421L400.415 323.837L399.933 324.319L400.4 324.821L402.369 326.945L402.673 327.271L403.098 327.136L405.343 326.428L406.108 326.188L405.775 325.48L404.493 322.648L404.309 322.23V322.216Z"
            fill="white"
          />
          <path
            d="M397.023 284.312V281.353L389.807 276.766L388.419 282.132L386.047 281.282V278.295L387.045 276.893L384.241 271.987L387.952 261.991L392.03 263.18L392.809 268.617L389.991 270.026L390.862 274.323L395.472 275.173L397.625 278.762L400.471 280.185L402.029 283.3L399.544 287.441L397.023 284.312Z"
            fill="#D2D2D2"
          />
          <path
            d="M388.171 262.423L391.712 263.456L392.42 268.412L389.587 269.828L390.564 274.621L395.252 275.491L397.377 279.031L400.209 280.447L401.625 283.279L399.501 286.819L397.377 284.185V281.155L389.587 276.199L388.171 281.665L386.401 281.035V278.401L387.463 276.907L384.631 271.952L388.171 262.423ZM387.739 261.559L387.506 262.175L383.965 271.704L383.852 272.015L384.014 272.306L386.62 276.865L385.82 277.99L385.693 278.175V281.53L386.16 281.7L387.93 282.33L388.638 282.592L388.837 281.842L390.005 277.318L396.647 281.566V284.454L396.803 284.652L398.927 287.286L399.565 288.072L400.089 287.201L402.213 283.661L402.411 283.328L402.234 282.981L400.818 280.15L400.719 279.937L400.506 279.838L397.858 278.514L395.84 275.152L395.677 274.875L395.358 274.819L391.145 274.033L390.366 270.238L392.717 269.063L393.17 268.837L393.1 268.334L392.391 263.378L392.328 262.925L391.889 262.798L388.348 261.764L387.718 261.58L387.739 261.559Z"
            fill="white"
          />
          <path
            d="M397.271 299.427L395.075 294.245L390.827 296.503L389.842 294.535L393.383 290.995L389.134 284.666L389.262 284.468C389.767 283.749 390.223 282.997 390.628 282.217C390.628 282.217 390.628 281.863 391.103 281.863C392.369 282.076 393.618 282.379 394.842 282.769L395.097 282.84V284.964L398.389 288.291L395.337 290.054L396.654 291.279L400.868 287.774L403.367 289.445V295.328L402.496 299.406L397.271 299.427Z"
            fill="#D2D2D2"
          />
          <path
            d="M391.131 282.245C392.362 282.465 393.578 282.763 394.771 283.137V285.134L397.844 288.234L394.771 290.004L396.669 291.774L400.917 288.234L403.042 289.65V295.314L402.241 299.073H397.504L395.252 293.749L391.004 296.022L390.295 294.606L393.836 291.066L389.587 284.695C390.119 283.932 390.593 283.129 391.004 282.295C391.004 282.295 391.046 282.245 391.131 282.245ZM391.131 281.537C390.942 281.523 390.754 281.579 390.603 281.693C390.451 281.808 390.347 281.974 390.31 282.16C389.91 282.89 389.472 283.599 389 284.284L388.738 284.673L389 285.063L392.923 290.953L389.793 294.082L389.432 294.443L389.665 294.903L390.373 296.319L390.699 296.97L391.336 296.624L394.877 294.719L396.824 299.328L397.008 299.76H402.779L402.9 299.201L403.707 295.441V295.371V289.254L403.396 289.042L401.271 287.626L400.825 287.328L400.422 287.668L396.654 290.811L395.911 290.103L398.156 288.815L398.949 288.355L398.304 287.703L395.472 284.808V282.571L394.969 282.422C393.714 282.014 392.428 281.706 391.124 281.502L391.131 281.537Z"
            fill="white"
          />
          <path
            d="M374.186 293.544L377.266 289.445L385.19 281.155L384.255 286.273L377.705 293.544H374.186Z"
            fill="#D2D2D2"
          />
          <path
            d="M384.631 282.245L383.922 286.111L377.549 293.19H374.894L377.549 289.65L384.631 282.245ZM385.757 280.05L384.121 281.757L377.04 289.162V289.197L374.384 292.737L373.542 293.87H377.925L378.13 293.636L384.503 286.557L384.638 286.408L384.673 286.21L385.381 282.344L385.813 280.022L385.757 280.05Z"
            fill="white"
          />
        </g>
        <defs>
          <clipPath id="clip0_98_665">
            <rect
              width="1042"
              height="490"
              fill="white"
              transform="translate(0.123535)"
            />
          </clipPath>
        </defs>
      </svg>