<svg width="15" height="15" viewBox="0 0 15 15" fill="none" xmlns="http://www.w3.org/2000/svg">
<path d="M7.24271 2.47705C6.24762 2.47705 5.29328 2.87234 4.58964 3.57598C3.88601 4.27961 3.49072 5.23391 3.49072 6.229C3.56641 6.99788 3.80357 7.74209 4.18672 8.41299C4.39471 8.84499 7.24271 12.7891 7.24271 12.7891C7.24271 12.7891 10.0507 8.88499 10.2987 8.41299C10.6876 7.74463 10.9252 6.99914 10.9947 6.229C10.9947 5.23391 10.5994 4.27961 9.89577 3.57598C9.19214 2.87234 8.2378 2.47705 7.24271 2.47705ZM7.24271 7.70898H7.1867C6.72131 7.70476 6.27656 7.5164 5.94972 7.18506C5.62288 6.85372 5.44058 6.40642 5.44272 5.94102C5.44272 5.47211 5.629 5.02238 5.96056 4.69082C6.29212 4.35926 6.7418 4.17305 7.2107 4.17305H7.26671C7.72305 4.18957 8.1553 4.38199 8.47293 4.71006C8.79056 5.03813 8.96894 5.47637 8.9707 5.93301C8.97292 6.39644 8.79308 6.84225 8.4699 7.17441C8.14672 7.50658 7.70603 7.6985 7.24271 7.70898Z" fill="#404040"/>
<path d="M7.24268 14.6367C5.38681 14.6346 3.60756 13.8965 2.29526 12.5842C0.982968 11.2719 0.244793 9.49258 0.242676 7.63672C0.242676 5.7802 0.980165 3.99977 2.29292 2.68701C3.60567 1.37426 5.38616 0.636719 7.24268 0.636719C9.09854 0.638836 10.8778 1.37706 12.1901 2.68936C13.5024 4.00165 14.2406 5.78085 14.2427 7.63672C14.2385 9.49194 13.4996 11.27 12.1877 12.5818C10.8759 13.8937 9.09789 14.6325 7.24268 14.6367ZM7.24268 1.03672C5.4929 1.03884 3.81538 1.73489 2.5781 2.97217C1.34082 4.20945 0.644793 5.88694 0.642676 7.63672C0.644793 9.3865 1.34082 11.064 2.5781 12.3013C3.81538 13.5386 5.4929 14.2346 7.24268 14.2367C8.99245 14.2346 10.67 13.5386 11.9073 12.3013C13.1445 11.064 13.8406 9.3865 13.8427 7.63672C13.8406 5.88694 13.1445 4.20945 11.9073 2.97217C10.67 1.73489 8.99245 1.03884 7.24268 1.03672Z" fill="#404040"/>
</svg>
