<svg width="15" height="14" viewBox="0 0 15 14" fill="none" xmlns="http://www.w3.org/2000/svg">
<path d="M8.29073 7.30375C8.05806 7.47108 7.77725 7.55808 7.49073 7.55171C7.20275 7.55115 6.92247 7.4587 6.69072 7.28774L3.4187 4.8877C3.3704 4.9874 3.34577 5.09693 3.34671 5.20772V9.51981C3.34671 9.73199 3.43098 9.93541 3.58101 10.0854C3.73104 10.2355 3.93454 10.3198 4.14671 10.3198H10.8268C11.0389 10.3198 11.2424 10.2355 11.3924 10.0854C11.5425 9.93541 11.6268 9.73199 11.6268 9.51981V5.20772C11.6212 5.13449 11.6078 5.06206 11.5868 4.9917L8.29073 7.30375Z" fill="#404040"/>
<path d="M7.84269 6.6884L10.9947 4.48828C10.9441 4.48373 10.8933 4.48373 10.8427 4.48828H4.13867L7.1787 6.70442C7.27706 6.77177 7.3941 6.80642 7.51327 6.80355C7.63244 6.80067 7.74769 6.76041 7.84269 6.6884Z" fill="#404040"/>
<path d="M7.24268 14C5.38681 13.9979 3.60756 13.2597 2.29526 11.9474C0.982968 10.6351 0.244793 8.85587 0.242676 7C0.242676 5.14348 0.980165 3.36295 2.29292 2.0502C3.60567 0.737441 5.38616 0 7.24268 0C9.09854 0.00211736 10.8778 0.740243 12.1901 2.05254C13.5024 3.36484 14.2406 5.14413 14.2427 7C14.2385 8.85522 13.4996 10.6332 12.1877 11.945C10.8759 13.2569 9.09789 13.9958 7.24268 14ZM7.24268 0.4C5.4929 0.402117 3.81538 1.09817 2.5781 2.33545C1.34082 3.57273 0.644793 5.25022 0.642676 7C0.644793 8.74978 1.34082 10.4273 2.5781 11.6646C3.81538 12.9018 5.4929 13.5979 7.24268 13.6C8.99245 13.5979 10.67 12.9018 11.9073 11.6646C13.1445 10.4273 13.8406 8.74978 13.8427 7C13.8406 5.25022 13.1445 3.57273 11.9073 2.33545C10.67 1.09817 8.99245 0.402117 7.24268 0.4Z" fill="#404040"/>
</svg>
