<svg width="15" height="14" viewBox="0 0 15 14" fill="none" xmlns="http://www.w3.org/2000/svg">
<path d="M7.24268 14C5.38681 13.9979 3.60756 13.2597 2.29526 11.9474C0.982968 10.6351 0.244793 8.85587 0.242676 7C0.242676 5.14348 0.980165 3.36295 2.29292 2.0502C3.60567 0.737441 5.38616 0 7.24268 0C9.09854 0.00211736 10.8778 0.740243 12.1901 2.05254C13.5024 3.36484 14.2406 5.14413 14.2427 7C14.2385 8.85522 13.4996 10.6332 12.1877 11.945C10.8759 13.2569 9.09789 13.9958 7.24268 14ZM7.24268 0.4C5.4929 0.402117 3.81538 1.09817 2.5781 2.33545C1.34082 3.57273 0.644793 5.25022 0.642676 7C0.644793 8.74978 1.34082 10.4273 2.5781 11.6646C3.81538 12.9018 5.4929 13.5979 7.24268 13.6C8.99245 13.5979 10.67 12.9018 11.9073 11.6646C13.1445 10.4273 13.8406 8.74978 13.8427 7C13.8406 5.25022 13.1445 3.57273 11.9073 2.33545C10.67 1.09817 8.99245 0.402117 7.24268 0.4Z" fill="#404040"/>
<path d="M8.64269 9.57617H6.42669C6.32272 9.57617 6.223 9.53483 6.14949 9.4613C6.07597 9.38777 6.03467 9.28807 6.03467 9.18408C6.03467 9.08009 6.07597 8.9804 6.14949 8.90686C6.223 8.83333 6.32272 8.79199 6.42669 8.79199H8.64269C8.69417 8.79199 8.74514 8.80218 8.7927 8.82188C8.84026 8.84159 8.88349 8.87045 8.91989 8.90686C8.95629 8.94327 8.98516 8.98647 9.00486 9.03404C9.02456 9.08162 9.03469 9.13259 9.03469 9.18408C9.03469 9.23557 9.02456 9.28655 9.00486 9.33412C8.98516 9.38169 8.95629 9.42489 8.91989 9.4613C8.88349 9.49771 8.84026 9.52667 8.7927 9.54638C8.74514 9.56608 8.69417 9.57617 8.64269 9.57617Z" fill="#404040"/>
<path d="M8.64269 10.8081H6.42669C6.32272 10.8081 6.223 10.7668 6.14949 10.6933C6.07597 10.6198 6.03467 10.5202 6.03467 10.4163C6.03467 10.3123 6.07597 10.2126 6.14949 10.1391C6.223 10.0656 6.32272 10.0244 6.42669 10.0244H8.64269C8.69417 10.0244 8.74514 10.0345 8.7927 10.0542C8.84026 10.0739 8.88349 10.1027 8.91989 10.1391C8.95629 10.1755 8.98516 10.2188 9.00486 10.2663C9.02456 10.3139 9.03469 10.3648 9.03469 10.4163C9.03469 10.4677 9.02456 10.5187 9.00486 10.5662C8.98516 10.6137 8.95629 10.6569 8.91989 10.6933C8.88349 10.7297 8.84026 10.7585 8.7927 10.7782C8.74514 10.7979 8.69417 10.8081 8.64269 10.8081Z" fill="#404040"/>
<path d="M11.6428 5.73587C11.6429 5.62736 11.621 5.51991 11.5783 5.42015C11.5356 5.32038 11.4731 5.23033 11.3945 5.1555C11.3159 5.08066 11.2229 5.02256 11.1212 4.98479C11.0195 4.94702 10.9111 4.93044 10.8028 4.93587H10.5788V2.63975C10.5788 2.53366 10.5366 2.43195 10.4616 2.35693C10.3866 2.28192 10.2849 2.23975 10.1788 2.23975H4.95475C4.84866 2.23975 4.7469 2.28192 4.67189 2.35693C4.59687 2.43195 4.55475 2.53366 4.55475 2.63975V4.93587H3.27474C3.06256 4.93587 2.85906 5.02012 2.70903 5.17015C2.559 5.32018 2.47473 5.5237 2.47473 5.73587V9.73591H4.58673V11.8319C4.58673 11.938 4.62888 12.0397 4.70389 12.1147C4.77891 12.1898 4.88064 12.2319 4.98673 12.2319H10.2108C10.3168 12.2319 10.4186 12.1898 10.4936 12.1147C10.5686 12.0397 10.6108 11.938 10.6108 11.8319V9.73591H11.6748L11.6428 5.73587ZM5.35475 2.99981H9.77877V4.89583H5.35475V2.99981ZM4.44273 8.99987H3.24273V5.79984H4.44273V8.99987ZM9.77877 11.3999H5.35475V8.4319H9.77877V11.3999ZM10.6428 6.28783H9.54676V5.73587H10.6428V6.28783Z" fill="#404040"/>
</svg>
