<svg width="15" height="14" viewBox="0 0 15 14" fill="none" xmlns="http://www.w3.org/2000/svg">
<path d="M2.76262 7.48801C3.19289 8.65764 3.98988 9.65678 5.03462 10.3362C6.02975 11.0905 7.24199 11.503 8.49064 11.5122C10.1547 11.4322 10.4507 11.0081 10.5467 10.8721C10.8115 10.5399 10.9703 10.1358 11.0027 9.71213C10.9547 9.27211 9.54664 8.48807 9.10664 8.60007C8.66664 8.71208 8.64264 9.52806 8.08263 9.55207C7.36817 9.49494 6.68513 9.23397 6.11463 8.80008C5.51499 8.40854 5.04023 7.85323 4.74663 7.20001C4.57863 6.67199 5.33063 6.39999 5.29063 5.91197C5.25063 5.42395 4.03464 4.39991 3.60264 4.51191C3.17063 4.62392 2.80263 5.19194 2.67463 5.31195C2.54663 5.43195 2.24262 5.88795 2.76262 7.48801Z" fill="#404040"/>
<path d="M9.53072 7.22401H9.44273C9.34087 7.19582 9.25392 7.12919 9.2002 7.03816C9.14648 6.94713 9.13019 6.8388 9.15474 6.73599C9.24879 6.4796 9.2567 6.19949 9.1773 5.93819C9.09791 5.67688 8.93551 5.44857 8.71473 5.28785C8.47634 5.14031 8.19778 5.07104 7.91805 5.08969C7.63832 5.10834 7.37144 5.21398 7.15474 5.39186C7.11272 5.42338 7.06488 5.44631 7.01399 5.45934C6.96311 5.47238 6.91016 5.47527 6.85816 5.46784C6.80616 5.46041 6.75614 5.44285 6.71094 5.41608C6.66574 5.38932 6.62624 5.3539 6.59473 5.31187C6.5331 5.22628 6.50701 5.12017 6.52192 5.01576C6.53684 4.91135 6.59161 4.81669 6.67473 4.75178C7.02392 4.47282 7.45179 4.31045 7.89812 4.28749C8.34446 4.26453 8.78676 4.38219 9.16273 4.62384C9.52354 4.8731 9.79559 5.2308 9.93944 5.6451C10.0833 6.0594 10.0914 6.50875 9.96273 6.928C9.93834 7.02104 9.88125 7.10216 9.80191 7.15653C9.72257 7.21089 9.62628 7.23485 9.53072 7.22401Z" fill="#404040"/>
<path d="M10.9306 6.88817H10.8507C10.7992 6.87767 10.7503 6.85712 10.7067 6.82772C10.6632 6.79831 10.6258 6.76061 10.5969 6.71678C10.5679 6.67294 10.5478 6.62383 10.5378 6.57224C10.5278 6.52066 10.5281 6.46766 10.5386 6.41618C10.6516 5.96257 10.6223 5.48513 10.4549 5.04868C10.2875 4.61222 9.98998 4.23781 9.60265 3.9761C9.20412 3.70438 8.73297 3.5591 8.25064 3.5591C7.7683 3.5591 7.29715 3.70438 6.89863 3.9761C6.81141 4.03477 6.70458 4.05679 6.60128 4.03733C6.49798 4.01787 6.40651 3.95848 6.34662 3.87209C6.31632 3.82862 6.29496 3.77956 6.28378 3.72775C6.2726 3.67595 6.27183 3.62243 6.28151 3.57033C6.29118 3.51822 6.31112 3.46857 6.34015 3.42423C6.36918 3.3799 6.40673 3.34182 6.45062 3.31212C6.98144 2.95098 7.60862 2.75781 8.25064 2.75781C8.89265 2.75781 9.51983 2.95098 10.0506 3.31212C10.5741 3.65985 10.9773 4.16088 11.205 4.74662C11.4327 5.33236 11.4738 5.97416 11.3227 6.58416C11.3011 6.67155 11.2506 6.74911 11.1795 6.80428C11.1083 6.85945 11.0206 6.889 10.9306 6.88817Z" fill="#404040"/>
<path d="M7.24268 14C5.38681 13.9979 3.60756 13.2597 2.29526 11.9474C0.982968 10.6351 0.244793 8.85587 0.242676 7C0.242676 5.14348 0.980165 3.36295 2.29292 2.0502C3.60567 0.737441 5.38616 0 7.24268 0C9.09854 0.00211736 10.8778 0.740243 12.1901 2.05254C13.5024 3.36484 14.2406 5.14413 14.2427 7C14.2385 8.85522 13.4996 10.6332 12.1877 11.945C10.8759 13.2569 9.09789 13.9958 7.24268 14ZM7.24268 0.4C5.4929 0.402117 3.81538 1.09817 2.5781 2.33545C1.34082 3.57273 0.644793 5.25022 0.642676 7C0.644793 8.74978 1.34082 10.4273 2.5781 11.6646C3.81538 12.9018 5.4929 13.5979 7.24268 13.6C8.99245 13.5979 10.67 12.9018 11.9073 11.6646C13.1445 10.4273 13.8406 8.74978 13.8427 7C13.8406 5.25022 13.1445 3.57273 11.9073 2.33545C10.67 1.09817 8.99245 0.402117 7.24268 0.4Z" fill="#404040"/>
</svg>
