<svg width="126" height="59" viewBox="0 0 126 59" fill="none" xmlns="http://www.w3.org/2000/svg">
<g clip-path="url(#clip0_98_1043)">
<path d="M97.9259 58.3196H29.7413L29.2106 58.2596C27.338 58.0996 25.4454 58.0996 23.6128 57.7596C17.6176 56.6926 12.1316 53.7096 7.98104 49.2596C3.91679 45.0114 1.25977 39.6173 0.370509 33.8095C0.220301 32.8695 0.120167 31.9297 0 30.9897V27.4296C0 27.2596 0.0601616 27.0798 0.0801893 26.8998C0.230398 25.7798 0.300436 24.6495 0.520742 23.5395C1.65445 17.4626 4.72855 11.9163 9.2829 7.72996C13.8551 3.38704 19.7696 0.724517 26.0562 0.179687L27.8587 0H98.1161L98.697 0.0898435C99.6483 0.199843 100.6 0.269941 101.541 0.43994C107.53 1.49364 113.04 4.38921 117.3 8.72263C121.561 13.0561 124.359 18.6107 125.304 24.6098C125.484 25.7398 125.564 26.8897 125.694 28.0297V30.5898C125.694 30.7498 125.624 30.9097 125.604 31.0697C125.484 32.0697 125.424 33.0697 125.254 34.0697C124.246 39.9796 121.437 45.4348 117.209 49.6908C112.981 53.9468 107.541 56.796 101.631 57.8494C100.399 58.0394 99.1576 58.1597 97.9259 58.3196ZM41.9783 55.6497H42.2987C60.4038 55.6497 78.499 55.6497 96.5941 55.6497C100.217 55.7003 103.809 54.9758 107.129 53.5252C110.449 52.0747 113.419 49.9315 115.841 47.2396C118.85 44.1492 121.029 40.3507 122.177 36.1957C123.326 32.0407 123.406 27.6637 122.41 23.4697C121.124 17.5779 117.864 12.3007 113.168 8.50974C108.473 4.71873 102.622 2.64071 96.584 2.61962H41.8981C52.4928 8.3096 58.5713 16.9598 58.6013 29.0697C58.6313 41.1797 52.573 49.8998 41.9783 55.6497ZM55.9977 29.0795C55.9974 23.815 54.4305 18.6698 51.4959 14.2963C48.5612 9.92293 44.3912 6.51867 39.5155 4.51659C34.6398 2.51451 29.2783 2.00485 24.1118 3.05175C18.9453 4.09864 14.2067 6.65492 10.4981 10.3965C6.78943 14.138 4.27789 18.8956 3.28238 24.0654C2.28688 29.2351 2.85237 34.5838 4.90695 39.432C6.96153 44.2802 10.4126 48.4095 14.8218 51.2953C19.2311 54.181 24.3996 55.693 29.6712 55.6395C36.6697 55.5476 43.3513 52.7109 48.2733 47.7416C53.1952 42.7722 55.9625 36.0689 55.9777 29.0795H55.9977Z" fill="#5E5E5E"/>
<path d="M62.066 11.75H63.4881V15.1299C64.084 14.983 64.6898 14.8794 65.3006 14.8198C65.8017 14.7825 66.2993 14.9283 66.7009 15.23C67.1025 15.5316 67.3806 15.9688 67.4836 16.4599C67.7939 17.5755 67.7939 18.7541 67.4836 19.8696C67.073 21.5296 65.631 21.9499 63.9386 21.4399C63.6408 21.3271 63.3499 21.1968 63.0674 21.0498C62.9072 21.6398 62.4766 21.5097 62.066 21.4697V11.75ZM63.4881 18.2597C63.5182 18.6525 63.5182 19.0472 63.4881 19.4399C63.3879 20.0299 63.6983 20.2398 64.189 20.3398C64.3341 20.3729 64.4814 20.3961 64.6297 20.4096C64.8204 20.454 65.0189 20.4543 65.2097 20.4101C65.4005 20.366 65.5786 20.2788 65.7304 20.1552C65.8822 20.0317 66.0037 19.875 66.0854 19.6972C66.1671 19.5195 66.2069 19.3254 66.2018 19.1299C66.2419 18.624 66.2419 18.1157 66.2018 17.6098C66.208 17.3151 66.1293 17.0244 65.9752 16.7729C65.821 16.5215 65.5978 16.3199 65.332 16.1914C65.0663 16.0629 64.7691 16.0131 64.476 16.0483C64.1829 16.0835 63.906 16.2019 63.6783 16.3896C63.6214 16.4403 63.5754 16.5021 63.5427 16.5708C63.51 16.6395 63.4914 16.7136 63.4881 16.7895C63.4881 17.2595 63.4881 17.7297 63.4881 18.2597Z" fill="#5E5E5E"/>
<path d="M79.6405 42.4899L79.4202 47.4899H78.4188L78.7192 41.03C79.1193 41.0046 79.5208 41.0046 79.9209 41.03C80.0511 41.03 80.2013 41.2699 80.2613 41.4299C80.6519 42.5299 81.0124 43.6399 81.3829 44.7399L81.5632 45.2399C81.6379 45.0936 81.7047 44.9432 81.7634 44.7897C82.1339 43.6897 82.5245 42.5899 82.875 41.4699C82.9851 41.1199 83.1454 40.9599 83.5359 41.0099C83.9265 41.0599 84.1167 41.0099 84.4472 41.0099L84.7476 47.4499H83.7462L83.5259 42.4499H83.4458C83.2856 42.8899 83.1253 43.3299 82.9751 43.7599C82.7047 44.5199 82.4144 45.28 82.1941 46.05C82.0539 46.52 81.7134 46.3298 81.443 46.3698C81.3851 46.3878 81.3238 46.3933 81.2636 46.3854C81.2034 46.3775 81.1457 46.3567 81.0943 46.3244C81.0429 46.2921 80.9991 46.2487 80.9659 46.1979C80.9328 46.1471 80.9111 46.0899 80.9022 46.0299C80.5718 45.0299 80.2013 43.9799 79.9009 42.9499L79.7105 42.4699L79.6405 42.4899Z" fill="#5E5E5E"/>
<path d="M68.1345 20.0996C68.7754 20.1996 69.3662 20.3199 69.967 20.3799C70.3047 20.4018 70.6436 20.3642 70.9684 20.2695C71.1428 20.247 71.302 20.1591 71.4136 20.0234C71.5252 19.8878 71.5809 19.7147 71.5692 19.5396C71.5692 19.0896 71.2488 18.9096 70.8583 18.8496C70.4677 18.7896 70.0772 18.7499 69.6966 18.6699C68.5951 18.4499 68.1445 17.9497 68.1245 16.9697C68.0757 16.4994 68.2111 16.0286 68.5024 15.6558C68.7936 15.2829 69.2179 15.037 69.6866 14.9698C70.5295 14.8948 71.3773 14.8948 72.2202 14.9698C72.6107 14.9698 72.7509 15.2099 72.7108 15.5899C72.6708 15.9699 72.7108 16.0798 72.7108 16.2998C71.9898 16.2198 71.3089 16.1198 70.6079 16.0698C70.3813 16.041 70.1516 16.0905 69.957 16.21C69.7501 16.393 69.6182 16.6458 69.5865 16.9199C69.6174 17.038 69.6763 17.1468 69.7582 17.2373C69.8402 17.3278 69.9428 17.3974 70.0572 17.44C70.5579 17.59 71.0585 17.6 71.5993 17.73C71.9756 17.7603 72.3263 17.9316 72.5809 18.21C72.8355 18.4883 72.975 18.853 72.9712 19.23C73.0666 19.6614 73.0052 20.1122 72.7979 20.5025C72.5905 20.8927 72.2508 21.1969 71.8396 21.3599C70.7255 21.7348 69.5191 21.7348 68.4049 21.3599C68.3479 21.3363 68.2973 21.2994 68.2573 21.2524C68.2172 21.2055 68.1889 21.1498 68.1746 21.0899C68.1145 20.7699 68.1345 20.4296 68.1345 20.0996Z" fill="#5E5E5E"/>
<path d="M91.1163 40.9397C91.9675 40.9397 92.7886 40.9397 93.6098 40.9397C94.0177 40.909 94.4224 41.0314 94.7447 41.283C95.0669 41.5345 95.2835 41.8969 95.3522 42.2996C95.4961 42.7512 95.4649 43.2404 95.2645 43.6702C95.0642 44.0999 94.7095 44.4385 94.2707 44.6194L94.0204 44.7693L95.4924 47.3996C94.5511 47.6096 94.4309 47.5593 94.0104 46.7693C93.8101 46.3793 93.5998 45.9796 93.4096 45.5896C93.019 44.7896 93.029 44.7894 92.0477 44.8494V47.4494H91.1163V40.9397ZM92.1177 44.1794C92.7218 44.1084 93.3206 43.9981 93.9102 43.8494C94.431 43.6794 94.4811 43.1695 94.451 42.6995C94.421 42.2295 94.2407 41.9194 93.8202 41.8694C93.2532 41.8343 92.6846 41.8343 92.1177 41.8694V44.1794Z" fill="#5E5E5E"/>
<path d="M96.1734 41.0194H97.1047V43.5697L97.2348 43.6297C97.8633 42.9943 98.4582 42.3268 99.0173 41.6297C99.2123 41.3463 99.4967 41.1359 99.8252 41.0326C100.154 40.9293 100.507 40.9387 100.83 41.0594L98.0961 44.0594L100.91 47.4295C100.611 47.576 100.267 47.6059 99.9471 47.5135C99.6268 47.4211 99.3526 47.2129 99.1776 46.9295L97.5954 44.9295C97.4832 44.7842 97.3296 44.6761 97.1548 44.6195V47.4998H96.1534L96.1734 41.0194Z" fill="#5E5E5E"/>
<path d="M66.8728 47.4798C66.5662 47.5055 66.258 47.5055 65.9515 47.4798C65.7078 47.4455 65.4807 47.3372 65.3007 47.1698C64.6798 46.4398 64.109 45.6795 63.5081 44.9295C63.408 44.7995 63.2879 44.6694 63.1677 44.5394H63.0375V47.4198H62.0361V40.9999H62.9373V43.6996C63.2577 43.3796 63.488 43.1798 63.6883 42.9598C64.1288 42.5404 64.5342 42.0852 64.9001 41.5995C65.3407 40.9195 65.9014 40.8896 66.7125 41.0296L63.9487 44.0296L66.8728 47.4798Z" fill="#5E5E5E"/>
<path d="M90.4154 47.4801C90.232 47.4698 90.0481 47.4698 89.8646 47.4801C89.5842 47.4801 89.4641 47.4097 89.394 47.1197C89.1437 46.1197 89.1236 46.1197 88.0922 46.1197H87.8418C87.4713 46.1197 86.9906 46.01 86.7403 46.19C86.49 46.37 86.4899 46.86 86.3497 47.19C86.3163 47.2543 86.2696 47.3107 86.2126 47.3556C86.1556 47.4004 86.0897 47.4324 86.0193 47.4498C85.7895 47.4704 85.5583 47.4704 85.3284 47.4498C85.3885 47.1598 85.4285 46.91 85.4986 46.67C86.0293 44.91 86.57 43.1497 87.0908 41.3898C87.1809 41.0598 87.3412 40.9198 87.6817 40.9698C87.8785 40.9598 88.0756 40.9598 88.2725 40.9698C88.344 40.9842 88.4115 41.014 88.4704 41.0572C88.5292 41.1004 88.5778 41.1559 88.6129 41.2198C89.2237 43.2198 89.8146 45.2198 90.4154 47.2198C90.4221 47.3064 90.4221 47.3935 90.4154 47.4801ZM88.8933 45.2101L87.942 42.0196H87.8319L86.8905 45.2101H88.8933Z" fill="#5E5E5E"/>
<path d="M77.7779 41.0298V41.8599H75.0341V43.6997H77.2572V44.5698H75.0241V46.5698H77.7679V47.4497H74.0628V41.0298H77.7779Z" fill="#5E5E5E"/>
<path d="M75.5047 20.3696V21.5195C74.5033 21.7395 73.6321 21.2495 73.592 20.2895C73.5219 18.5395 73.592 16.7898 73.592 15.0098H74.984C74.984 15.1898 74.984 15.3598 74.984 15.5298V19.6196C74.9539 19.9896 74.9439 20.3696 75.5047 20.3696Z" fill="#5E5E5E"/>
<path d="M70.7682 41.8599H68.9957V41.0298H73.4219V41.8496H71.7395V47.4399H70.7381L70.7682 41.8599Z" fill="#5E5E5E"/>
<path d="M80.832 27.3396V29.0496H80.081V28.2595C80.081 27.0895 80.081 25.9195 80.081 24.7595C80.081 24.3695 80.2112 24.2398 80.5917 24.2498C81.1425 24.2498 81.7033 24.1998 82.2541 24.2498C82.421 24.2523 82.5858 24.2881 82.7387 24.3552C82.8916 24.4223 83.0296 24.5192 83.1443 24.6404C83.2591 24.7615 83.3484 24.9042 83.407 25.0603C83.4657 25.2165 83.4924 25.3829 83.4857 25.5496C83.5573 25.8987 83.4938 26.2619 83.308 26.5662C83.1222 26.8704 82.8279 27.0933 82.4844 27.1897C82.2325 27.2563 81.9737 27.2931 81.7133 27.2996C81.4229 27.3496 81.1625 27.3396 80.832 27.3396ZM80.832 26.7097C81.4629 26.7097 82.1439 26.8896 82.5245 26.2996C82.6082 26.1318 82.6518 25.9469 82.6518 25.7595C82.6518 25.5721 82.6082 25.3872 82.5245 25.2195C82.1039 24.6295 81.4329 24.9194 80.832 24.8894V26.7097Z" fill="#5E5E5E"/>
<path d="M76.5061 24.3198H77.197V29.0395C77.197 29.0395 77.1069 29.0895 77.0769 29.0395C76.6262 28.8395 76.2057 29.0399 75.7651 29.1099C75.6127 29.1384 75.456 29.1347 75.3052 29.0986C75.1545 29.0626 75.0131 28.9948 74.8902 28.9004C74.7674 28.806 74.6658 28.687 74.5922 28.5508C74.5187 28.4145 74.4747 28.2642 74.4633 28.1099C74.3982 27.6387 74.3982 27.161 74.4633 26.6899C74.5834 25.7899 75.0441 25.4598 75.9553 25.5098L76.5362 25.5596L76.5061 24.3198ZM76.5061 28.3198V27.9497C76.5061 27.4697 76.5061 26.9995 76.5061 26.5195C76.5033 26.4604 76.4884 26.4029 76.4626 26.3496C76.4368 26.2963 76.4005 26.2489 76.3559 26.21C76.2347 26.1405 76.0979 26.1027 75.9581 26.1001C75.8184 26.0974 75.6803 26.13 75.5566 26.1948C75.4328 26.2596 75.3273 26.3544 75.25 26.4707C75.1727 26.587 75.126 26.7208 75.1142 26.8599C75.0843 27.0855 75.0843 27.3139 75.1142 27.5395C75.1943 28.5595 75.625 28.7999 76.5562 28.3599L76.5061 28.3198Z" fill="#5E5E5E"/>
<path d="M64.6897 27.0298H62.9373V29.0298H62.2363V24.3096H65.0602V24.9199H62.9573V26.3198H64.6897V27.0298Z" fill="#5E5E5E"/>
<path d="M68.3748 41.0498V47.4497H67.4936V41.0498H68.3748Z" fill="#5E5E5E"/>
<path d="M103.013 27.2595C103.013 26.0695 103.604 25.4793 104.665 25.5393C105.006 25.5255 105.34 25.6455 105.594 25.8733C105.848 26.1011 106.004 26.4191 106.027 26.7595C106.08 27.0907 106.08 27.4283 106.027 27.7595C106.026 27.9974 105.967 28.2314 105.854 28.4412C105.742 28.6509 105.58 28.8301 105.383 28.9631C105.185 29.0962 104.958 29.1793 104.722 29.2048C104.485 29.2303 104.245 29.1976 104.024 29.1096C103.343 28.9296 102.993 28.3395 103.013 27.2595ZM105.376 27.3396C105.376 26.5396 105.126 26.1694 104.575 26.1594C104.024 26.1494 103.744 26.4995 103.714 27.2395C103.684 27.9795 103.934 28.4695 104.475 28.5095C105.016 28.5495 105.376 28.1996 105.376 27.3596V27.3396Z" fill="#5E5E5E"/>
<path d="M89.4641 27.2596C89.4641 28.7096 88.7331 29.3594 87.4613 29.0994L87.231 29.0296C86.9564 28.9122 86.7251 28.7127 86.5691 28.4583C86.413 28.2039 86.3398 27.9073 86.3598 27.6097C86.3598 26.8897 86.3599 26.1598 87.0709 25.7498C87.3431 25.5887 87.6562 25.5094 87.9724 25.5218C88.2886 25.5342 88.5945 25.6377 88.8532 25.8196C89.0707 25.9867 89.2412 26.207 89.3482 26.4593C89.4552 26.7116 89.4951 26.9873 89.4641 27.2596ZM88.7531 27.3396C88.7531 26.5696 88.5128 26.1997 87.9921 26.1697C87.4713 26.1397 87.1509 26.4697 87.1108 27.1097C87.0507 28.0497 87.2811 28.4893 87.8619 28.5193C88.4427 28.5493 88.7531 28.1894 88.7531 27.3494V27.3396Z" fill="#5E5E5E"/>
<path d="M73.8223 27.1596C73.8223 28.7295 73.0813 29.3795 71.8195 29.0995C71.7399 29.0868 71.6624 29.0634 71.5892 29.0297C71.1663 28.727 70.8687 28.2803 70.7525 27.7738C70.6363 27.2673 70.7095 26.736 70.9583 26.2797C71.1868 25.925 71.5449 25.6732 71.9563 25.578C72.3677 25.4828 72.8 25.5514 73.1615 25.7694C73.3878 25.9191 73.569 26.128 73.6855 26.3729C73.802 26.6179 73.8492 26.8897 73.8223 27.1596ZM73.1214 27.3295C73.1214 26.5695 72.831 26.1698 72.2902 26.1698C71.7495 26.1698 71.449 26.5695 71.439 27.3295C71.429 28.0895 71.7094 28.5297 72.2802 28.5297C72.851 28.5297 73.1214 28.1695 73.1214 27.3295Z" fill="#5E5E5E"/>
<path d="M67.083 27.3599C67.083 25.9499 68.0244 25.2099 69.2661 25.6699C69.5291 25.756 69.7551 25.9286 69.907 26.1597C70.1087 26.5203 70.2145 26.9268 70.2145 27.3399C70.2145 27.753 70.1087 28.1589 69.907 28.5195C69.7433 28.7794 69.4996 28.9794 69.2125 29.0894C68.9255 29.1993 68.6105 29.2138 68.3147 29.1299C68.0415 29.1096 67.7824 29.0007 67.5765 28.8203C67.3705 28.6399 67.229 28.3977 67.1732 28.1299C67.1283 27.8752 67.0981 27.6181 67.083 27.3599ZM69.4763 27.2896C69.4843 27.173 69.4843 27.0565 69.4763 26.94C69.4751 26.8362 69.453 26.7336 69.4112 26.6387C69.3694 26.5437 69.3087 26.4582 69.233 26.3872C69.1572 26.3162 69.0678 26.2612 68.9703 26.2256C68.8727 26.19 68.769 26.1743 68.6653 26.1797C68.5663 26.1743 68.4672 26.1887 68.374 26.2222C68.2807 26.2557 68.1951 26.3079 68.1223 26.375C68.0495 26.4421 67.9908 26.5231 67.9499 26.6133C67.909 26.7034 67.8867 26.801 67.8842 26.8999C67.8442 27.2555 67.8442 27.6142 67.8842 27.9697C67.9112 28.1349 67.9991 28.2841 68.1307 28.3877C68.2623 28.4913 68.428 28.542 68.5951 28.5298C69.1959 28.5598 69.4964 28.1998 69.4964 27.2598L69.4763 27.2896Z" fill="#5E5E5E"/>
<path d="M95.172 27.6194H93.1692C93.1692 28.4894 93.5898 28.6696 94.9817 28.3596L95.142 28.8596C94.8825 29.0101 94.5952 29.1062 94.2974 29.1423C93.9996 29.1784 93.6975 29.1537 93.4096 29.0696C93.1171 28.967 92.8624 28.7788 92.6786 28.5295C92.4667 28.159 92.3603 27.7378 92.3709 27.3113C92.3815 26.8848 92.5086 26.4692 92.7386 26.1096C92.8989 25.8884 93.1222 25.7204 93.3794 25.6277C93.6366 25.535 93.9158 25.5217 94.1807 25.5896C94.4401 25.63 94.6789 25.7547 94.8599 25.9446C95.041 26.1345 95.1543 26.3787 95.1821 26.6394C95.1992 26.966 95.1958 27.2933 95.172 27.6194ZM93.1692 27.0193H94.5311C94.5311 26.4193 94.2908 26.1697 93.9002 26.1697C93.5097 26.1697 93.2393 26.4393 93.1592 27.0193H93.1692Z" fill="#5E5E5E"/>
<path d="M107.549 29.0698H106.888V25.5698C107.459 26.0498 107.95 25.5698 108.481 25.5698C109.011 25.5698 109.562 25.8897 109.602 26.4497C109.602 27.3097 109.602 28.1798 109.602 29.0698H108.921V27.0698C108.921 26.3298 108.661 26.1398 107.92 26.2998C107.856 26.3057 107.794 26.3245 107.739 26.3555C107.683 26.3864 107.634 26.4287 107.596 26.4795C107.557 26.5303 107.529 26.5884 107.514 26.6504C107.5 26.7124 107.498 26.7771 107.509 26.8398C107.549 27.5298 107.549 28.2598 107.549 29.0698Z" fill="#5E5E5E"/>
<path d="M90.3354 26.2598L89.9048 26.1797C89.6844 25.6897 90.0048 25.6399 90.3553 25.6099L90.4355 24.6699H91.0263L91.0864 25.5996H91.9676V26.1396L91.0664 26.1997C91.0664 26.8597 91.0664 27.4999 91.0664 28.1299C91.0664 28.7599 91.5169 28.3696 91.8474 28.3696L92.0477 28.8398C91.8642 28.9716 91.6491 29.0529 91.4242 29.0757C91.1993 29.0985 90.9723 29.062 90.7659 28.9697C90.3253 28.7797 90.3254 28.3597 90.3254 27.9697C90.3254 27.4497 90.3354 26.8698 90.3354 26.2598Z" fill="#5E5E5E"/>
<path d="M99.1375 26.3496L98.6468 25.7695L99.2877 25.6196L99.3778 24.6899H99.9886V25.5996L100.91 25.6699V26.21H100.009C99.9731 26.8761 99.9731 27.5438 100.009 28.21C100.009 28.3399 100.419 28.4298 100.64 28.5298L100.75 28.3799L100.98 28.8696C100.795 28.9977 100.581 29.0776 100.357 29.102C100.133 29.1265 99.9067 29.0949 99.6983 29.0098C99.2777 28.8398 99.2576 28.4398 99.2576 28.0098V26.2397L99.1375 26.3496Z" fill="#5E5E5E"/>
<path d="M98.2262 26.26C97.6154 26.31 96.9444 25.9901 96.604 26.6501C96.4652 26.8982 96.3975 27.1797 96.4081 27.4636C96.4187 27.7475 96.5073 28.0229 96.6641 28.26C97.0847 28.85 97.6654 28.4799 98.2362 28.3899L98.4065 28.8801C98.0713 29.1016 97.6756 29.2139 97.2738 29.2014C96.8721 29.1888 96.4841 29.0517 96.1634 28.8098C95.9098 28.4345 95.7612 27.9985 95.733 27.5466C95.7048 27.0947 95.7981 26.6437 96.0032 26.24C96.3536 25.63 97.1848 25.43 98.2663 25.74L98.2262 26.26Z" fill="#5E5E5E"/>
<path d="M65.7311 24.3096H66.3511V29.0596H65.7311V24.3096Z" fill="#5E5E5E"/>
<path d="M84.1166 25.5698L84.7876 25.8496L85.9692 25.4897C86.1294 26.0397 86.0293 26.23 85.5286 26.21C85.0279 26.19 84.7976 26.3697 84.7976 26.9697V29.0596H84.1166V25.5698Z" fill="#5E5E5E"/>
<path d="M73.3017 13.0396C73.2991 12.9172 73.3209 12.7957 73.366 12.6817C73.4111 12.5678 73.4785 12.4641 73.5643 12.3766C73.6501 12.289 73.7527 12.2195 73.8658 12.172C73.9789 12.1245 74.1003 12.0997 74.2229 12.0997C74.3567 12.0909 74.4909 12.1107 74.6164 12.1578C74.7419 12.2049 74.8559 12.2785 74.9508 12.3731C75.0456 12.4678 75.1189 12.5818 75.1661 12.7071C75.2133 12.8325 75.2332 12.9661 75.2243 13.0997C75.2129 13.3429 75.113 13.5737 74.9434 13.7486C74.7738 13.9235 74.5462 14.0307 74.3031 14.0499C74.168 14.0606 74.0322 14.0418 73.9051 13.9947C73.7781 13.9476 73.6628 13.8731 73.5675 13.7769C73.4721 13.6808 73.399 13.5649 73.3531 13.4376C73.3072 13.3103 73.2897 13.1744 73.3017 13.0396Z" fill="#5E5E5E"/>
<path d="M76.8967 21.63C76.7073 21.6299 76.5222 21.5732 76.3652 21.4674C76.2081 21.3616 76.0862 21.2116 76.0152 21.0362C75.9442 20.8609 75.9272 20.6681 75.9664 20.483C76.0056 20.298 76.0993 20.1293 76.2353 19.9977C76.3714 19.8661 76.5437 19.7779 76.7302 19.7447C76.9166 19.7115 77.1087 19.7346 77.282 19.8111C77.4552 19.8877 77.6016 20.0138 77.7025 20.1739C77.8033 20.3341 77.8539 20.521 77.8479 20.7101C77.8494 20.8339 77.8257 20.9566 77.778 21.0709C77.7303 21.1852 77.6597 21.2885 77.5707 21.3746C77.4816 21.4607 77.376 21.5275 77.2601 21.5714C77.1442 21.6153 77.0205 21.6354 76.8967 21.63Z" fill="#5E5E5E"/>
<path d="M101.631 25.6597H102.251V29.0596H101.631V25.6597Z" fill="#5E5E5E"/>
<path d="M102.783 41.88L102.632 42.5299L102.462 42.4801V40.9601C103.033 40.9101 102.883 41.52 103.233 41.69C103.32 41.4951 103.417 41.3046 103.524 41.1197C103.524 41.0397 103.684 41 103.774 40.94C103.864 40.88 103.924 41.1098 103.934 41.1998C103.934 41.6198 103.934 42.0398 103.934 42.4698L103.764 42.5196L103.604 41.7896C103.474 41.9096 103.343 42.13 103.183 42.15C103.023 42.17 102.893 41.96 102.783 41.88Z" fill="#5E5E5E"/>
<path d="M102.172 41C102.077 41.2452 101.997 41.4956 101.931 41.75C101.931 41.93 101.931 42.1095 101.931 42.2895C101.931 42.4695 101.851 42.43 101.801 42.5C101.73 42.4364 101.669 42.362 101.621 42.2798C101.611 42.18 101.611 42.0797 101.621 41.98C101.621 41.64 101.741 41.24 101.27 40.98L102.172 41Z" fill="#5E5E5E"/>
<path d="M102.542 24.6299C102.292 24.8199 102.132 25.0298 102.011 25.0098C101.891 24.9898 101.741 24.7697 101.611 24.6397C101.741 24.5197 101.851 24.3199 101.991 24.2999C102.132 24.2799 102.252 24.4599 102.542 24.6299Z" fill="#5E5E5E"/>
<path d="M29.1704 53.5896C28.5896 52.5896 28.0588 51.6893 27.518 50.7693C22.1206 41.4694 16.7532 32.1595 11.3056 22.8895C10.2846 21.0662 9.9306 18.945 10.3042 16.8895C10.547 14.6567 11.5188 12.5659 13.0698 10.9394C14.6208 9.31283 16.6646 8.24091 18.8861 7.88957C20.7175 7.51676 22.6175 7.67345 24.3629 8.34123C26.1083 9.00901 27.6267 10.1602 28.7398 11.6596C28.89 11.8496 29.0302 12.0495 29.2105 12.2895C29.3101 12.1849 29.4038 12.0751 29.4909 11.9599C32.1245 8.52988 35.5893 7.07989 39.8252 7.95988C44.061 8.83988 46.6046 11.5298 47.7562 15.6098C48.1758 17.1379 48.2476 18.7403 47.9665 20.2997C47.8041 21.1212 47.4954 21.9068 47.0552 22.6195C43.2833 29.2262 39.4847 35.8197 35.6593 42.3997C33.5831 45.993 31.5069 49.5764 29.4307 53.1497L29.1704 53.5896ZM14.7503 21.5394L15.0107 22.0497C18.0282 27.383 21.0324 32.7431 24.0232 38.1297C24.4878 38.9792 25.1749 39.6864 26.011 40.1761C26.847 40.6658 27.8006 40.9192 28.7698 40.9095C29.5135 40.9789 30.2628 40.8606 30.9487 40.5653C31.6346 40.2699 32.2352 39.8072 32.6953 39.2196C33.2947 38.3534 33.5762 37.3072 33.4923 36.2577C33.4083 35.2081 32.9641 34.22 32.2347 33.4598C31.7728 33.0157 31.2773 32.6076 30.7526 32.2396C29.561 31.3696 28.2891 30.5898 27.1576 29.6498C26.2768 28.971 25.6 28.0632 25.2009 27.0262C24.8017 25.9892 24.6957 24.8625 24.8944 23.7694C25.0539 23.0167 25.2512 22.2724 25.4853 21.5394H14.7503ZM43.5403 21.5394H43.0797H31.8241C31.1437 21.5344 30.4787 21.7418 29.9221 22.1327C29.3656 22.5236 28.9452 23.0785 28.7198 23.7196C28.4758 24.3054 28.4529 24.96 28.6555 25.5614C28.8581 26.1628 29.2723 26.6702 29.8213 26.9896C30.7326 27.6996 31.7039 28.3196 32.6552 28.9896C34.4452 30.0823 35.8463 31.7088 36.6607 33.6395C36.6607 33.6395 36.6607 33.6395 36.7709 33.6395L43.5403 21.5394ZM44.4816 17.7099C44.3879 15.9988 43.6412 14.3885 42.3951 13.2104C41.149 12.0322 39.4983 11.3754 37.7823 11.3754C36.0663 11.3754 34.4156 12.0322 33.1696 13.2104C31.9235 14.3885 31.1768 15.9988 31.0831 17.7099H44.4816ZM14.0093 17.7099H27.438C27.3442 15.9962 26.5965 14.3835 25.3485 13.2035C24.1006 12.0236 22.4473 11.3656 20.7287 11.3656C19.0101 11.3656 17.3569 12.0236 16.1089 13.2035C14.861 14.3835 14.1131 15.9962 14.0193 17.7099H14.0093ZM29.1804 47.2996L30.6724 44.5994H27.6683L29.1804 47.2996Z" fill="#5E5E5E"/>
</g>
<defs>
<clipPath id="clip0_98_1043">
<rect width="125.694" height="58.3198" fill="white"/>
</clipPath>
</defs>
</svg>
