<svg width="55" height="54" viewBox="0 0 55 54" fill="none" xmlns="http://www.w3.org/2000/svg">
<path d="M36.0158 15.9408L26.1438 25.8279L21.721 21.4579C21.721 21.5766 21.721 21.6557 21.721 21.7249C21.721 22.9904 21.721 24.2558 21.721 25.5214C21.721 26.342 21.721 27.1629 21.721 27.9835C21.7193 28.1292 21.7722 28.2702 21.8691 28.3789C23.2413 29.7631 24.6334 31.1376 26.0154 32.5119L26.1733 32.6403L38.928 19.9058C40.4175 23.0897 40.6619 26.717 39.6128 30.0724C38.5637 33.4279 36.2974 36.2679 33.2607 38.0323C30.224 39.7967 26.6375 40.3576 23.2083 39.6042C19.7792 38.8508 16.7563 36.8376 14.7359 33.9621C12.7155 31.0866 11.8443 27.5573 12.2939 24.0702C12.7436 20.5831 14.4815 17.3915 17.165 15.1245C19.8485 12.8574 23.2828 11.6795 26.7905 11.8233C30.2983 11.9672 33.625 13.4221 36.1145 15.9012L36.0158 15.9408Z" fill="#5E5E5E"/>
<path d="M51.6628 31.6906V38.6116C51.6628 38.9675 51.6628 38.9775 51.2877 38.9775H46.944C46.5688 38.9775 46.5688 38.9774 46.5688 38.6116C46.5688 34.3997 46.6281 30.1878 46.5688 25.9857C46.6107 22.6179 45.8217 19.2919 44.2717 16.3028C42.7218 13.3138 40.459 10.7541 37.684 8.85132C35.2755 7.13916 32.5173 5.98429 29.6087 5.47001C27.8625 5.1361 26.0789 5.04317 24.3074 5.19338C18.9021 5.57272 13.8662 8.07838 10.2992 12.1636C7.79425 14.9651 6.11605 18.4088 5.45197 22.1101C5.28998 23.0924 5.17799 24.0824 5.11636 25.0762C5.11636 25.2937 5.02745 25.363 4.81027 25.363H0.34823C-0.00716182 25.363 -0.00725822 25.3629 0.00261377 25.0168C0.106433 22.2345 0.656441 19.4871 1.63152 16.8798C2.81829 13.6707 4.63294 10.7313 6.96892 8.23386C9.3049 5.73641 12.1152 3.73122 15.2351 2.33587C17.2537 1.38758 19.3929 0.722187 21.5926 0.358455C23.2419 0.075747 24.9155 -0.0402819 26.5879 0.0123095C31.3913 0.153544 36.0604 1.63273 40.0711 4.28385C44.0818 6.93496 47.2754 10.6532 49.2935 15.0211C50.351 17.2588 51.0569 19.6463 51.3864 22.0999C51.5344 23.2963 51.6233 24.5128 51.6529 25.7091C51.6529 27.6865 51.6529 29.6638 51.6529 31.6906H51.6628ZM16.7357 4.21433C17.0023 4.65925 17.2786 5.10428 17.5452 5.56897C17.6439 5.73706 17.7327 5.7666 17.9203 5.69739C18.1079 5.62818 18.256 5.4898 18.177 5.24262C18.1403 5.12988 18.114 5.01397 18.098 4.89648C18.0388 4.53066 17.9795 4.16497 17.9104 3.79915C18.1355 4.25025 18.3302 4.71615 18.493 5.19338C18.5818 5.47022 18.7199 5.39101 18.8976 5.3218C19.0753 5.25259 19.2235 5.22306 19.1149 4.966C18.8286 4.24424 18.562 3.52206 18.2954 2.8003C18.0289 2.07854 18.0092 2.06873 17.3082 2.38512C17.17 2.45433 17.1206 2.52383 17.1601 2.68202C17.2589 3.1566 17.328 3.62098 17.4168 4.09557C17.2115 3.84379 17.0267 3.57593 16.864 3.29465C16.5087 2.69154 16.5087 2.70156 15.8769 2.93885C15.6597 3.01795 15.6103 3.10684 15.6991 3.33424C16.0051 4.10543 16.2914 4.88663 16.5876 5.6776C16.7949 6.20161 16.8542 6.22158 17.3675 5.87553L16.7357 4.21433ZM44.3773 11.8372C44.1601 12.2822 43.9231 12.7272 43.7059 13.1721C43.6691 13.2641 43.6691 13.3668 43.7059 13.4589C43.8239 13.6378 43.9524 13.8095 44.091 13.973L46.5491 12.0748C46.577 12.0468 46.5971 12.012 46.6075 11.9739C46.6179 11.9357 46.6182 11.8953 46.6084 11.857C46.506 11.6873 46.387 11.5284 46.253 11.3825L44.9399 12.3712C45.2065 11.8571 45.4434 11.3823 45.6606 10.9374C45.6996 10.8389 45.6996 10.7297 45.6606 10.6313C45.5533 10.465 45.4346 10.3064 45.3052 10.1567L42.6891 12.1341L43.1334 12.7173L44.3773 11.8372ZM26.8939 2.7805C27.0821 2.63654 27.2192 2.43625 27.285 2.20842C27.3507 1.9806 27.3417 1.73748 27.2593 1.51517C27.2312 1.36074 27.1493 1.2213 27.0281 1.12171C26.907 1.02212 26.7545 0.969036 26.5978 0.971571H25.4329C25.2552 0.971571 25.1861 1.02075 25.1861 1.20861C25.1861 2.06879 25.1861 2.93897 25.1861 3.79915C25.1861 4.33305 25.0775 4.27373 25.6698 4.2935C25.9166 4.2935 25.966 4.20446 25.9561 3.98694C25.9462 3.76943 25.9561 3.35417 25.9561 2.99823H26.0548C26.1165 3.0869 26.1726 3.17915 26.2227 3.27486C26.3313 3.5517 26.4102 3.83852 26.5286 4.11536C26.5286 4.19446 26.6472 4.30316 26.7262 4.30316C26.9793 4.31868 27.2332 4.31868 27.4863 4.30316L26.8939 2.7805ZM42.4423 11.5109C42.8946 11.4416 43.3188 11.2477 43.6675 10.9509C44.0161 10.6541 44.2755 10.2663 44.4167 9.83037C44.4543 9.66319 44.4534 9.48973 44.4139 9.32298C44.3744 9.15624 44.2974 9.00023 44.1889 8.86773C44.0804 8.73523 43.9432 8.62967 43.7876 8.55828C43.6321 8.48688 43.4624 8.45175 43.2914 8.45593C42.832 8.53005 42.4028 8.73267 42.0534 9.04056C41.7041 9.34846 41.4488 9.74885 41.317 10.1958C41.2878 10.3569 41.2945 10.5224 41.3369 10.6805C41.3792 10.8386 41.456 10.9854 41.5617 11.1102C41.6675 11.235 41.7995 11.3352 41.9483 11.4027C42.0972 11.4703 42.2592 11.5039 42.4226 11.5012L42.4423 11.5109ZM14.3368 4.58992L14.9389 4.26357C15.4523 3.98673 15.4326 4.12542 15.1365 3.55197C15.0673 3.39377 14.9883 3.3739 14.8402 3.453C14.4651 3.66063 14.0801 3.84858 13.7049 4.04632L13.2904 4.2935C13.784 5.23278 14.2776 6.14219 14.7415 7.0617C14.8205 7.21 14.9094 7.16057 15.018 7.0617L16.0052 6.5181L16.5382 6.22168C16.4592 6.04371 16.3704 5.91473 16.3112 5.76643C16.2519 5.61812 16.1137 5.5295 15.9163 5.64815C15.7188 5.76679 15.3734 5.92491 15.1167 6.06333C14.781 5.60852 14.781 5.60833 15.2351 5.37104C15.8176 5.06454 15.8176 5.06467 15.4424 4.52088H15.3734L14.9094 4.74827L14.4355 4.99545L14.3368 4.58992ZM24.6234 2.6125C24.6234 2.18736 24.6234 2.18743 24.2088 2.19732L23.6855 2.24705C23.4585 2.24705 23.4881 2.08858 23.4782 1.96994C23.489 1.92961 23.5102 1.89275 23.5397 1.86324C23.5692 1.83373 23.6058 1.81269 23.6461 1.80193C23.8837 1.75767 24.1251 1.73774 24.3667 1.74255C24.5839 1.74255 24.653 1.66367 24.6234 1.46593C24.6185 1.3902 24.6185 1.31426 24.6234 1.23854C24.6234 1.02103 24.5345 0.941909 24.3173 0.971571L22.9945 1.08019C22.6391 1.08019 22.6095 1.0801 22.6391 1.47558C22.7181 2.36542 22.7971 3.25545 22.8563 4.14529C22.8563 4.35292 22.9551 4.43204 23.1723 4.41226C23.577 4.41226 23.9916 4.33282 24.3964 4.30316C24.8011 4.27349 24.8899 4.30314 24.8505 3.78901V3.65094C24.8505 3.50263 24.7913 3.45325 24.6432 3.46314L23.8435 3.53217C23.5572 3.53217 23.5967 3.34422 23.5769 3.18603C23.5572 3.02784 23.6461 2.96853 23.8041 2.95865C23.962 2.94876 24.1693 2.90921 24.3569 2.95865C24.5444 3.00808 24.732 2.83025 24.6037 2.60285L24.6234 2.6125ZM7.50542 10.2948C7.35633 10.1332 7.15263 10.0329 6.93385 10.0129C6.71508 9.99277 6.49666 10.0544 6.32071 10.1862C6.1095 10.3176 5.95554 10.5239 5.88966 10.764C5.82377 11.0042 5.85083 11.2604 5.96533 11.4814C6.03361 11.6092 6.12754 11.7212 6.2413 11.8107C6.35505 11.9002 6.48612 11.9651 6.6262 12.0014C6.76628 12.0376 6.91239 12.0443 7.05521 12.0212C7.19802 11.998 7.33451 11.9458 7.45601 11.8672C7.5989 11.7668 7.75504 11.6867 7.91997 11.6297C7.98084 11.6291 8.04119 11.6411 8.09723 11.6649C8.15328 11.6887 8.20389 11.724 8.24582 11.7682C8.27023 11.8084 8.28306 11.8544 8.28306 11.9014C8.28306 11.9485 8.27023 11.9949 8.24582 12.0352C8.14787 12.1066 8.03112 12.148 7.91009 12.1539C7.85085 12.1539 7.77192 12.1536 7.70281 12.0844C7.63371 12.0152 7.56456 12.0844 7.53495 12.0844C7.50533 12.0844 7.30792 12.4305 7.19933 12.6184C7.3335 12.735 7.49092 12.8216 7.66112 12.8728C7.83131 12.9239 8.01039 12.9382 8.18653 12.9148C8.46636 12.8275 8.70259 12.6375 8.8474 12.3823C8.99221 12.1271 9.03481 11.8262 8.96646 11.5408C8.91964 11.3899 8.84288 11.2496 8.74087 11.129C8.63885 11.0084 8.51369 10.9099 8.37272 10.8389C8.23174 10.7678 8.07782 10.726 7.92033 10.7158C7.76284 10.7056 7.60495 10.7272 7.45601 10.7795C7.25857 10.8784 7.08092 11.0169 6.88348 11.1058C6.79124 11.1408 6.6894 11.1408 6.59716 11.1058C6.5568 11.0521 6.53904 10.9847 6.54775 10.918C6.62577 10.8539 6.71212 10.8006 6.80443 10.7597C6.83324 10.7499 6.86456 10.7499 6.89336 10.7597C7.08093 10.8685 7.17966 10.7595 7.2685 10.6014C7.35735 10.4432 7.40668 10.4038 7.48566 10.2851L7.50542 10.2948ZM11.2567 6.81452C11.1497 6.61939 10.9757 6.46991 10.767 6.39354C10.5582 6.31718 10.3288 6.31919 10.1214 6.39934C9.89306 6.47439 9.69992 6.63019 9.57815 6.83769C9.45639 7.0452 9.41443 7.29029 9.46006 7.5266C9.48024 7.68219 9.53703 7.8309 9.62588 7.96013C9.71472 8.08935 9.83308 8.1952 9.97101 8.26958C10.1089 8.34397 10.2626 8.38471 10.4192 8.38786C10.5758 8.39101 10.7309 8.3567 10.8717 8.28793C11.043 8.22384 11.2225 8.18379 11.4048 8.16917C11.4937 8.16917 11.6022 8.29791 11.6516 8.38689C11.6622 8.42826 11.6623 8.47147 11.652 8.5129C11.6416 8.55433 11.6211 8.59242 11.5923 8.62393C11.4939 8.68125 11.3798 8.70582 11.2666 8.69345C11.1876 8.69345 11.1284 8.60412 11.0494 8.58435C11.0151 8.56966 10.9782 8.56214 10.9409 8.56214C10.9035 8.56214 10.8666 8.56966 10.8323 8.58435C10.6743 8.68322 10.5163 8.81183 10.3781 8.9107C10.4645 9.07431 10.5916 9.21271 10.7471 9.31284C10.9025 9.41298 11.0811 9.47137 11.2656 9.4823C11.4501 9.49323 11.6344 9.45669 11.8006 9.3756C11.9667 9.29452 12.1091 9.17159 12.2143 9.01932C12.3448 8.8473 12.4155 8.63722 12.4155 8.42117C12.4155 8.20512 12.3448 7.99504 12.2143 7.82302C12.1212 7.62235 11.9637 7.45898 11.7668 7.3586C11.5699 7.25822 11.3451 7.22658 11.1284 7.26929C10.8914 7.32861 10.6644 7.41755 10.4374 7.47688C10.3487 7.49006 10.2582 7.47282 10.1807 7.42763C10.1642 7.39908 10.1555 7.36695 10.1555 7.33398C10.1555 7.301 10.1642 7.26839 10.1807 7.23984C10.2521 7.17113 10.3408 7.12313 10.4374 7.10128C10.4966 7.10128 10.5657 7.16091 10.6446 7.1708C10.7149 7.19568 10.7915 7.19568 10.8618 7.1708C10.9935 7.05591 11.1188 6.93366 11.2369 6.80486L11.2567 6.81452ZM38.1875 8.10979L38.2961 7.77378C38.533 6.96304 38.76 6.15233 38.997 5.34159C39.1451 4.82746 39.1451 4.83729 38.6712 4.54068C38.6386 4.51224 38.6002 4.49092 38.5588 4.4784C38.5174 4.46588 38.4737 4.46217 38.4308 4.46778C38.3879 4.47339 38.3467 4.48848 38.3098 4.51123C38.273 4.53397 38.2415 4.56418 38.2172 4.60006L36.1835 6.57748L35.996 6.78507C36.1539 6.88394 36.2921 6.96282 36.4204 7.0617C36.5487 7.16057 36.7166 7.18053 36.8252 7.01245C36.9338 6.84437 37.2003 6.93336 37.3977 7.01245C37.5952 7.09155 37.6544 7.25936 37.5755 7.47688C37.553 7.51954 37.5412 7.56719 37.5412 7.61543C37.5412 7.66367 37.553 7.71132 37.5755 7.75398C37.7642 7.88369 37.9621 7.99944 38.1678 8.10013L38.1875 8.10979ZM36.2921 4.62951C36.462 4.65847 36.6334 4.67833 36.8054 4.68889C36.8647 4.68889 36.9832 4.6297 36.9832 4.58027C37.055 4.35797 37.0514 4.11811 36.9728 3.89811C36.8942 3.67812 36.7451 3.49038 36.5487 3.36417C36.2918 3.2057 35.9827 3.15518 35.6888 3.22369C35.3949 3.29219 35.1398 3.47429 34.9791 3.73011C34.6599 4.15368 34.4497 4.6494 34.3671 5.17359C34.3096 5.43645 34.3515 5.7113 34.4846 5.94505C34.6177 6.1788 34.8325 6.35464 35.0877 6.43892C35.3291 6.526 35.5938 6.52286 35.8332 6.43023C36.0725 6.33761 36.2706 6.16195 36.3909 5.93491C36.4074 5.90106 36.4159 5.86351 36.4159 5.82581C36.4159 5.78811 36.4074 5.75104 36.3909 5.71719C36.2724 5.55899 36.1342 5.43027 35.996 5.27207C35.8973 5.38083 35.8281 5.48984 35.7393 5.52939C35.6504 5.56894 35.4332 5.66765 35.3147 5.61822C35.1963 5.56878 35.147 5.38106 35.1569 5.26242C35.1803 4.84604 35.3601 4.4541 35.6602 4.16508C35.713 4.12051 35.7746 4.08777 35.841 4.06901C35.9074 4.05025 35.9771 4.04556 36.0453 4.05598C36.1539 4.1153 36.2131 4.29364 36.2723 4.43205C36.3315 4.57047 36.2723 4.53087 36.2723 4.61985L36.2921 4.62951ZM21.8099 3.18603C21.7987 3.32777 21.7688 3.46732 21.721 3.60121C21.721 3.70008 21.5729 3.84864 21.4841 3.85853C21.4152 3.86166 21.3466 3.84876 21.2833 3.82135C21.22 3.79394 21.1637 3.75259 21.1188 3.70018C21.0009 3.52142 20.9193 3.32108 20.8786 3.11072C20.838 2.90036 20.8391 2.68435 20.8819 2.47443C20.9036 2.40393 20.9405 2.33889 20.99 2.28422C21.0395 2.22955 21.1003 2.18628 21.1682 2.15773C21.2571 2.15773 21.4347 2.237 21.5038 2.33587C21.5729 2.43475 21.6816 2.50378 21.8198 2.40491C21.9137 2.36526 22.003 2.31563 22.0862 2.2567C22.1169 2.22194 22.1399 2.18082 22.1535 2.13649C22.1671 2.09216 22.1711 2.04588 22.1653 1.99987C22.0874 1.79977 21.952 1.62723 21.7763 1.50406C21.6006 1.3809 21.3925 1.31242 21.1781 1.30758C20.9446 1.31576 20.7205 1.40183 20.5416 1.55234C20.3627 1.70285 20.2393 1.909 20.1909 2.13794C20.1063 2.50049 20.1003 2.877 20.1736 3.24203C20.2468 3.60706 20.3975 3.95223 20.6153 4.25391C20.7455 4.47742 20.958 4.64077 21.2071 4.70916C21.4563 4.77756 21.7224 4.74566 21.9481 4.61985C22.1545 4.52177 22.3247 4.36084 22.4346 4.16026C22.5445 3.95967 22.5885 3.72976 22.5602 3.50273C22.5561 3.46693 22.5443 3.43209 22.5255 3.40134C22.5067 3.3706 22.4815 3.34453 22.4515 3.32458C22.2279 3.26045 22.0004 3.21101 21.7704 3.17637L21.8099 3.18603ZM31.5733 5.07462C31.5733 5.07462 31.6819 4.98573 31.7017 4.92641C31.7807 4.69901 31.8497 4.46152 31.9188 4.23412C32.0373 3.82875 32.0373 3.82871 32.4322 3.94736C32.8271 4.066 32.8863 4.08593 33.0146 3.61135C33.064 3.44327 33.0146 3.34434 32.8566 3.30479C32.6987 3.26524 32.6296 3.23548 32.5111 3.20582C32.3927 3.17616 32.2249 3.1269 32.294 2.88961C32.3631 2.65232 32.4618 2.67219 32.6395 2.7414C32.7169 2.76698 32.7961 2.78638 32.8764 2.8003C33.449 2.96838 33.3305 2.99819 33.4983 2.46429C33.5674 2.26655 33.4983 2.17772 33.3206 2.12828C32.9158 2.01953 32.5012 1.9109 32.0965 1.77248C31.8694 1.69339 31.7904 1.77244 31.7312 1.98007C31.514 2.77104 31.2772 3.55178 31.06 4.34274C30.8823 4.93597 30.8822 4.93593 31.4943 5.04469L31.5733 5.07462ZM8.63072 9.14822L7.80151 8.83152C7.71255 8.79726 7.61403 8.79726 7.52506 8.83152C7.32763 8.96006 7.15986 9.10854 6.9723 9.25684L7.05123 9.3756L7.31779 9.48423C7.76203 9.64242 8.20623 9.77068 8.63072 9.94865C8.86718 10.0456 9.08706 10.1794 9.28231 10.3445C9.52911 10.5521 9.74632 10.7893 9.93389 10.9673L10.5361 10.5024C10.4571 10.4035 10.4274 10.3443 10.3781 10.3146C9.73005 9.80462 9.27981 9.08435 9.10468 8.27779C9.05415 8.11646 8.99478 7.95805 8.92693 7.80323C8.92693 7.72413 8.85779 7.64542 8.76894 7.45757C8.64855 7.62792 8.51671 7.78954 8.37416 7.94178C8.31187 7.98907 8.27 8.05864 8.25715 8.13585C8.2443 8.21307 8.26138 8.292 8.30499 8.35696C8.39384 8.58437 8.48274 8.8217 8.61108 9.13808L8.63072 9.14822ZM39.3129 8.97973L40.7641 7.00231L41.3564 7.41798L41.8698 6.72569L40.0929 5.38118L39.5696 6.07299L40.1323 6.52775L38.691 8.50517L39.3129 8.97973ZM12.7375 5.62836L13.3003 5.21317C12.9251 4.43209 12.9251 4.432 12.2637 4.86703L12.1946 4.91627L10.9901 5.71719L11.4739 6.43892L12.0762 6.05319L13.4187 8.03061C13.5866 7.92185 13.7049 7.83285 13.8333 7.76364C13.9616 7.69443 14.0506 7.5462 13.9222 7.34846C13.5076 6.81456 13.1225 6.22133 12.7177 5.61822L12.7375 5.62836ZM28.8388 4.4813L29.1645 2.0887C29.8654 2.16779 29.8556 2.16779 29.9543 1.59434C29.9543 1.38671 29.9543 1.27811 29.7273 1.25833L28.3254 1.08019C27.7331 1.02087 27.743 1.03084 27.6936 1.65372C27.6936 1.83169 27.6936 1.89078 27.9009 1.91056C28.355 1.96988 28.355 1.97978 28.3155 2.4247V2.70181C28.2464 3.17639 28.1773 3.69023 28.1279 4.13515C28.1279 4.22414 28.128 4.38258 28.2366 4.39247C28.4285 4.43329 28.6232 4.45981 28.819 4.47164L28.8388 4.4813ZM40.616 10.0674C40.6851 9.9982 40.7345 9.95898 40.774 9.90955L42.393 8.06054C42.8274 7.5563 42.8274 7.55638 42.2844 7.15101C42.2844 7.15101 42.2844 7.15101 42.1758 7.15101C41.5045 7.9222 40.8135 8.70292 40.1422 9.49388C40.1229 9.52509 40.1128 9.56101 40.1128 9.59768C40.1128 9.63434 40.1229 9.67027 40.1422 9.70147C40.2705 9.80034 40.4383 9.93911 40.5962 10.0578L40.616 10.0674ZM34.7915 2.67188C34.6398 2.61823 34.4915 2.55555 34.3473 2.48408C34.1301 2.37533 34.0215 2.48403 33.9425 2.67188C33.676 3.44307 33.3897 4.21435 33.1034 4.97565C32.8961 5.53922 32.8961 5.5392 33.4687 5.69739C33.5378 5.69739 33.6563 5.64809 33.6761 5.58877C34.0512 4.62972 34.3967 3.66082 34.7719 2.66223L34.7915 2.67188ZM30.517 4.77772C30.517 4.68873 30.5664 4.60987 30.5861 4.52088C30.7638 3.70026 30.9316 2.86974 31.0994 2.04911C31.2178 1.47566 31.2772 1.61398 30.7145 1.45579C30.4677 1.39646 30.4182 1.45579 30.3787 1.70296C30.2208 2.47416 30.053 3.24543 29.895 4.00674C29.7371 4.76804 29.7173 4.70874 30.4972 4.76806L30.517 4.77772Z" fill="#5E5E5E"/>
<path d="M45.3843 49.4281C45.3843 50.0806 45.3843 50.7431 45.3843 51.4055C45.3843 51.623 45.3151 51.7024 45.0881 51.7024C44.1009 51.7024 43.0446 51.7024 42.0278 51.7024C41.5136 51.7256 41.0075 51.5682 40.5966 51.2578C40.1857 50.9474 39.8959 50.5031 39.7769 50.0016C39.2733 48.2375 39.2733 46.3674 39.7769 44.6033C39.9302 44.0714 40.256 43.6059 40.7029 43.28C41.1498 42.9542 41.6924 42.7867 42.2449 42.804C42.9804 42.7326 43.7196 42.895 44.3575 43.2685C44.6226 43.4157 44.8426 43.6325 44.9939 43.8956C45.1453 44.1586 45.2221 44.4581 45.2164 44.7617C45.2164 45.5032 45.2164 45.5032 44.4958 45.5032C44.2786 45.5032 44.0515 45.5032 43.8343 45.5032C43.6171 45.5032 43.5776 45.4241 43.5776 45.256C43.5776 45.0879 43.5776 45.0283 43.5776 44.9195C43.5809 44.7702 43.5504 44.6223 43.4884 44.4865C43.4264 44.3507 43.3345 44.2306 43.2196 44.1355C43.1046 44.0404 42.9697 43.9725 42.8248 43.9371C42.6799 43.9017 42.5289 43.8994 42.3831 43.9308C42.1436 43.9285 41.9114 44.0133 41.7297 44.1698C41.5481 44.3262 41.4295 44.5439 41.3959 44.7815C41.2762 45.3081 41.2002 45.8435 41.1689 46.3828C41.1689 47.3715 41.1689 48.2909 41.1689 49.25C41.1823 49.4806 41.2427 49.7065 41.3465 49.9128C41.4152 50.1411 41.5639 50.3365 41.7653 50.4636C41.9667 50.5908 42.207 50.641 42.4423 50.6046C42.7385 50.6046 43.0346 50.5553 43.3308 50.5356C43.627 50.5158 43.558 50.4466 43.5481 50.2884V48.6074C43.5481 48.4393 43.4888 48.3701 43.3209 48.38C43.1531 48.3899 42.9162 48.38 42.7089 48.38C42.5016 48.38 42.4818 48.3306 42.4917 48.1724C42.5016 48.0142 42.4917 47.5793 42.4917 47.2827C42.5029 47.2372 42.5264 47.1956 42.5594 47.1625C42.5925 47.1294 42.634 47.1061 42.6793 47.0949C43.4592 47.0949 44.2391 47.0949 45.019 47.0949C45.2263 47.0949 45.246 47.2037 45.246 47.3618L45.3843 49.4281Z" fill="#5E5E5E"/>
<path d="M46.8945 49.1016C47.1345 49.0867 47.3753 49.0867 47.6153 49.1016C47.6612 49.1141 47.7033 49.1379 47.7377 49.1707C47.7722 49.2035 47.7979 49.2442 47.8127 49.2894C47.8127 49.5069 47.8126 49.7348 47.8817 49.9523C47.887 50.0893 47.9373 50.2205 48.0248 50.3259C48.1122 50.4314 48.232 50.5051 48.3655 50.5355C48.6006 50.6137 48.8491 50.6438 49.0961 50.6243C49.2733 50.5988 49.4402 50.5255 49.579 50.4124C49.7178 50.2992 49.8233 50.1503 49.8841 49.9817C49.9449 49.8131 49.9588 49.6314 49.9244 49.4555C49.8899 49.2796 49.8084 49.1164 49.6884 48.9834C49.4969 48.7554 49.2742 48.5556 49.0269 48.39C48.405 47.9649 47.7929 47.5299 47.1413 47.1541C46.8555 46.9895 46.6154 46.7554 46.443 46.4739C46.2706 46.1924 46.1712 45.872 46.1541 45.5422C46.0598 45.0752 46.1184 44.5906 46.3212 44.1595C46.5239 43.7285 46.86 43.3741 47.2796 43.1496C47.707 42.9551 48.1643 42.8349 48.632 42.7938C49.3122 42.7332 49.9958 42.8632 50.6064 43.1694C50.8652 43.2824 51.0864 43.4671 51.2438 43.7019C51.4012 43.9366 51.4883 44.2119 51.4949 44.4946C51.4949 44.722 51.5443 44.9491 51.4949 45.1864C51.4949 45.2457 51.3863 45.3546 51.3271 45.3645C50.8828 45.3645 50.4386 45.3645 49.9845 45.3645C49.9154 45.3645 49.8068 45.2457 49.7772 45.1468C49.743 45.0138 49.7199 44.8786 49.7082 44.7418C49.6391 44.3067 49.4909 44.1385 49.1454 44.0891C48.5827 44.01 48.2273 44.1483 48.0397 44.524C47.9053 44.7563 47.8631 45.0311 47.9216 45.2931C47.9802 45.5551 48.1352 45.7853 48.3557 45.9381C48.8832 46.2979 49.4302 46.628 49.9944 46.9268C50.3595 47.0685 50.6846 47.2975 50.941 47.594C51.1974 47.8904 51.3773 48.2449 51.4653 48.6271C51.5972 49.24 51.57 49.8767 51.3863 50.4761C51.2661 50.7983 51.0581 51.0803 50.7859 51.29C50.5136 51.4998 50.1881 51.629 49.8463 51.6627C48.9842 51.8158 48.1022 51.8158 47.2402 51.6627C46.8602 51.6003 46.5161 51.4008 46.2725 51.1022C46.0289 50.8036 45.9025 50.4264 45.9172 50.0411C45.9172 49.8137 45.9172 49.596 45.9172 49.3686C45.9172 49.1412 45.9765 49.1115 46.164 49.1214L46.8945 49.1016Z" fill="#5E5E5E"/>
<path d="M34.219 49.101C34.4425 49.1159 34.6668 49.1159 34.8904 49.101C35.1174 49.101 35.1865 49.2 35.2062 49.3878C35.214 49.6198 35.2372 49.8512 35.2754 50.0801C35.301 50.1962 35.3591 50.3026 35.4431 50.3867C35.6646 50.5551 35.9351 50.6459 36.2132 50.6459C36.4912 50.6459 36.7617 50.5551 36.9832 50.3867C37.1616 50.1829 37.2599 49.921 37.2599 49.65C37.2599 49.3789 37.1616 49.117 36.9832 48.9132C36.7851 48.714 36.5704 48.5323 36.3415 48.3696C35.6998 47.9346 35.0581 47.4995 34.3671 47.0942C34.1232 46.9464 33.9175 46.743 33.7666 46.5009C33.6157 46.2587 33.5238 45.9843 33.4984 45.6999C33.4342 45.3436 33.4342 44.9788 33.4984 44.6224C33.5772 44.1833 33.7906 43.7795 34.1091 43.4676C34.4276 43.1557 34.8353 42.951 35.2754 42.882C36.0744 42.7047 36.9076 42.7635 37.6742 43.0505C38.0184 43.1585 38.3178 43.3762 38.5264 43.6709C38.7351 43.9655 38.8414 44.3208 38.8293 44.6818C38.8293 45.5123 38.9576 45.354 38.1876 45.3639C37.9704 45.3639 37.7532 45.3639 37.5459 45.3639C37.3385 45.3639 37.1115 45.2649 37.1017 44.9782C37.1017 44.9782 37.1017 44.9781 37.1017 44.9188C37.0424 44.1872 36.8055 44.0093 36.1145 44.0687C35.9815 44.0806 35.8528 44.1219 35.7379 44.1898C35.6229 44.2578 35.5246 44.3504 35.4499 44.4612C35.3752 44.5719 35.326 44.6983 35.3061 44.8305C35.2862 44.9627 35.2959 45.0974 35.3345 45.2254C35.3979 45.4725 35.5317 45.6957 35.7196 45.8679C36.2091 46.3113 36.7741 46.6632 37.3879 46.9064C37.9277 47.114 38.3778 47.505 38.6592 48.011C38.9407 48.5169 39.0358 49.1055 38.928 49.6746C38.9154 49.8603 38.8923 50.0452 38.8589 50.2283C38.7728 50.6051 38.5696 50.9447 38.2788 51.1987C37.9879 51.4527 37.6243 51.6082 37.2399 51.6423C36.3779 51.7956 35.4957 51.7956 34.6337 51.6423C34.2667 51.5849 33.9331 51.3955 33.6952 51.1098C33.4572 50.8242 33.3311 50.4616 33.3404 50.0898C33.3404 49.8327 33.3404 49.5857 33.3404 49.3386C33.3404 49.0914 33.3404 49.101 33.5674 49.101H34.219Z" fill="#5E5E5E"/>
<path d="M39.8363 52.1375H28.3551C28.2702 52.1524 28.1834 52.1524 28.0984 52.1375C28.0714 52.1212 28.0478 52.0997 28.0292 52.0742C28.0105 52.0488 27.9972 52.0195 27.9899 51.9888C27.9899 51.9888 28.0491 51.8703 28.0984 51.8604C28.2002 51.8503 28.3027 51.8503 28.4044 51.8604H51.2087C51.3102 51.8753 51.4133 51.8753 51.5148 51.8604C51.6004 51.8211 51.6676 51.7506 51.7023 51.6629C51.7023 51.5937 51.7023 51.4948 51.7023 51.4157V41.5286C51.692 41.4466 51.692 41.3635 51.7023 41.2815C51.7196 41.2533 51.7427 41.2287 51.7699 41.21C51.7971 41.1913 51.8278 41.1785 51.8603 41.1724C51.8603 41.1724 51.9689 41.2417 51.9787 41.2911C51.9891 41.3732 51.9891 41.4562 51.9787 41.5383C51.9787 44.8703 51.9787 48.2122 51.9787 51.5442C51.9787 51.821 52.0478 51.9098 52.3341 51.9C53.1337 51.9 53.9334 51.9 54.7331 51.9C54.8416 51.9 54.9897 51.8405 54.9996 52.0482C55.0095 52.2558 54.8416 52.1969 54.7331 52.1969C53.9137 52.1969 53.0943 52.1969 52.2848 52.1969C52.0578 52.1969 51.9689 52.256 51.9787 52.4933C51.9787 52.9184 51.9787 53.3533 51.9787 53.7784C51.9787 53.8476 51.8899 53.9168 51.8405 53.986C51.7911 54.0552 51.7023 53.8476 51.7023 53.7784C51.7023 53.3434 51.7023 52.9184 51.7023 52.4933C51.7023 52.2758 51.6431 52.1969 51.4161 52.1969C50.9126 52.1969 50.4288 52.1969 49.8859 52.1969L39.8363 52.1375Z" fill="#5E5E5E"/>
<path d="M4.63264 32.1056C5.01066 32.0607 5.39235 32.1499 5.71155 32.3576C6.03075 32.5653 6.2673 32.8783 6.38001 33.2425C6.51745 33.5937 6.53064 33.9815 6.41748 34.3413C6.30433 34.701 6.07166 35.011 5.75807 35.2199C5.06332 35.7782 4.20054 36.0852 3.30983 36.0903C2.93234 36.1314 2.55282 36.0323 2.24346 35.8118C1.9341 35.5912 1.71637 35.2647 1.63152 34.894C1.50708 34.5337 1.50873 34.1415 1.6361 33.7822C1.76347 33.4229 2.00906 33.1177 2.33251 32.9166C2.9987 32.4177 3.80129 32.1345 4.63264 32.1056ZM3.4677 35.0224C4.04616 34.966 4.59869 34.7541 5.06695 34.4093C5.19197 34.3295 5.28763 34.2111 5.3393 34.0719C5.39097 33.9327 5.39587 33.7806 5.35328 33.6384C5.31673 33.493 5.23063 33.3647 5.10986 33.2763C4.98908 33.1878 4.84117 33.1445 4.69181 33.1537C4.02821 33.1676 3.38855 33.4045 2.8754 33.8261C2.76267 33.9175 2.68251 34.0426 2.64692 34.1834C2.61133 34.3242 2.62226 34.4732 2.67801 34.6073C2.7866 34.8841 3.01359 35.0224 3.4677 35.0224Z" fill="#5E5E5E"/>
<path d="M2.02648 29.7823C1.88402 29.8463 1.74551 29.9192 1.61182 30C1.50533 30.0673 1.4231 30.167 1.37695 30.2843C1.33079 30.4017 1.3231 30.5307 1.35513 30.6527C1.38057 30.7686 1.4461 30.8715 1.53999 30.9438C1.63388 31.0161 1.75015 31.0532 1.8685 31.0481C1.99699 31.057 2.12414 31.0172 2.22472 30.9366C2.32529 30.856 2.392 30.7406 2.4115 30.6131C2.48061 30.2967 2.51017 29.9704 2.59901 29.6244C2.6481 29.4335 2.73629 29.2546 2.85786 29.0996C2.97944 28.9447 3.13178 28.817 3.30531 28.724C3.47884 28.6311 3.66971 28.5751 3.86591 28.5599C4.06211 28.5447 4.25932 28.5706 4.44507 28.6357C4.69553 28.7007 4.9196 28.8423 5.08593 29.0407C5.25226 29.2392 5.35262 29.4844 5.3731 29.7427C5.43297 29.908 5.45856 30.0837 5.44842 30.2592C5.43828 30.4348 5.39256 30.6065 5.31405 30.7637C5.23554 30.921 5.12593 31.0606 4.99182 31.1741C4.8577 31.2875 4.70195 31.3725 4.53401 31.4237C4.34644 31.4929 4.25752 31.4235 4.21803 31.2653C4.19428 31.1583 4.16465 31.0529 4.12922 30.9491C4.04037 30.7118 4.00083 30.5239 4.31673 30.3954C4.41241 30.352 4.48761 30.273 4.52629 30.1752C4.56498 30.0775 4.56419 29.9688 4.52412 29.8716C4.45691 29.7188 4.33302 29.598 4.17863 29.5351C4.13644 29.5199 4.09126 29.5144 4.04667 29.5192C4.00208 29.5239 3.95925 29.5388 3.92122 29.5626C3.8832 29.5864 3.85104 29.6187 3.82723 29.6567C3.80341 29.6948 3.78854 29.7376 3.78373 29.7823C3.72907 30.0201 3.68951 30.2612 3.66527 30.504C3.65586 30.7622 3.58491 31.0145 3.45847 31.2397C3.33204 31.465 3.15375 31.6566 2.93836 31.7988C2.72298 31.941 2.47675 32.0295 2.22026 32.0571C1.96376 32.0847 1.70447 32.0507 1.46383 31.9576C1.14921 31.8552 0.876152 31.6531 0.685714 31.3822C0.495275 31.1112 0.397649 30.786 0.407461 30.4548C0.338357 29.5155 0.911005 29.1397 1.59217 28.8925C1.6514 28.8925 1.78957 28.8924 1.79945 28.9814C1.91791 29.2483 2.02648 29.5153 2.02648 29.7823Z" fill="#5E5E5E"/>
<path d="M9.47982 39.4724C9.70196 39.4683 9.92125 39.5226 10.116 39.6297C10.3107 39.7369 10.474 39.8931 10.5898 40.0831C10.7056 40.273 10.7697 40.4897 10.7759 40.7121C10.782 40.9345 10.73 41.1548 10.6249 41.3508C10.1965 42.1058 9.58982 42.7439 8.85788 43.2095C8.55457 43.4166 8.22175 43.5766 7.87068 43.684C7.65187 43.7272 7.42558 43.7126 7.21416 43.6415C7.00273 43.5705 6.81336 43.4456 6.66488 43.279C6.51641 43.1123 6.41386 42.9094 6.36735 42.691C6.32084 42.4725 6.33208 42.2458 6.39977 42.033C6.5029 41.7768 6.64248 41.5373 6.81431 41.3214C7.2707 40.7203 7.83278 40.2074 8.47286 39.8084C8.77497 39.6572 9.08465 39.5218 9.40077 39.4028L9.47982 39.4724ZM9.88449 40.7971C9.88449 40.4115 9.61799 40.2433 9.31195 40.4113C8.514 40.832 7.83492 41.4476 7.33756 42.201C7.29867 42.2722 7.27827 42.3525 7.27827 42.4337C7.27827 42.5149 7.29867 42.5946 7.33756 42.6659C7.4264 42.7647 7.65344 42.745 7.81139 42.745C7.8947 42.7408 7.97437 42.7092 8.03843 42.6557C8.67767 42.2243 9.24425 41.6938 9.71674 41.0838C9.79296 40.9936 9.86223 40.8977 9.92401 40.7971H9.88449Z" fill="#5E5E5E"/>
<path d="M8.93683 44.8993C9.03239 44.5889 9.14777 44.2852 9.28232 43.9897C9.67703 43.2464 10.2176 42.5909 10.8717 42.062C11.0448 41.8907 11.2617 41.7702 11.4986 41.7144C11.7355 41.6586 11.9831 41.6693 12.2143 41.7453C12.3876 41.7925 12.5487 41.8766 12.6864 41.992C12.8242 42.1074 12.9352 42.2514 13.0122 42.414C13.0891 42.5765 13.1299 42.7541 13.1319 42.9339C13.1339 43.1137 13.0971 43.2916 13.0238 43.4558C12.6158 44.4575 11.9309 45.3219 11.0494 45.9473C10.9106 46.0553 10.75 46.132 10.5789 46.1723C10.4077 46.2126 10.23 46.2157 10.0577 46.181C9.88532 46.1463 9.7224 46.0744 9.5801 45.971C9.4378 45.8676 9.31947 45.7347 9.23304 45.5814C9.10118 45.3699 9.00132 45.1401 8.93683 44.8993ZM9.92403 44.8003C9.92403 45.176 10.1017 45.3344 10.3781 45.2454C10.5118 45.2064 10.6338 45.1352 10.7335 45.0378C11.1975 44.494 11.6417 43.9303 12.0859 43.3766C12.1608 43.2911 12.2058 43.1834 12.2143 43.07C12.2319 42.9319 12.2005 42.7919 12.1255 42.6747C12.0694 42.6375 12.0063 42.6122 11.9401 42.6003C11.8739 42.5884 11.8059 42.5903 11.7404 42.6056C11.635 42.6306 11.5391 42.6857 11.4641 42.764C10.8943 43.2723 10.4108 43.8701 10.0326 44.5338C9.99135 44.6206 9.95511 44.7093 9.92403 44.8003Z" fill="#5E5E5E"/>
<path d="M29.8359 49.7252C29.8063 50.0575 29.7568 50.3876 29.6878 50.7139C29.6266 50.9651 29.4837 51.1887 29.2818 51.3497C29.0799 51.5108 28.8304 51.6001 28.5723 51.6037C28.3366 51.6377 28.0962 51.5991 27.8828 51.4931C27.6695 51.3872 27.4934 51.2188 27.3778 51.0103C27.099 50.5129 26.9368 49.9582 26.9038 49.3887C26.8495 48.8364 26.8495 48.2803 26.9038 47.728C26.9301 47.5105 27.0097 47.3027 27.1357 47.1236C27.2616 46.9445 27.4299 46.7996 27.6256 46.7016C27.8212 46.6037 28.038 46.5561 28.2567 46.5626C28.4753 46.5691 28.6888 46.6298 28.8782 46.7393C29.1738 46.9373 29.3878 47.2355 29.4805 47.5793C29.5759 47.8496 29.6485 48.1277 29.6977 48.4102C29.747 48.8254 29.7865 49.2605 29.8359 49.7252ZM28.9079 49.8435C28.9079 49.4975 28.9079 49.2209 28.8289 48.9441C28.7614 48.5335 28.6691 48.1274 28.5525 47.728C28.5312 47.6355 28.4766 47.5538 28.3991 47.4992C28.3216 47.4445 28.2268 47.4206 28.1327 47.4316C28.0385 47.4426 27.9518 47.488 27.889 47.559C27.8262 47.6301 27.7918 47.7219 27.7923 47.8168C27.7923 48.4199 27.7923 49.0229 27.891 49.6161C27.9279 49.9077 28.0112 50.1915 28.1378 50.4566C28.1562 50.5319 28.1993 50.599 28.2601 50.6468C28.321 50.6947 28.3962 50.7207 28.4736 50.7207C28.5509 50.7207 28.626 50.6947 28.6869 50.6468C28.7477 50.599 28.7908 50.5319 28.8092 50.4566C28.8654 50.2567 28.8985 50.0509 28.9079 49.8435Z" fill="#5E5E5E"/>
<path d="M23.4585 49.3588C23.512 48.7935 23.6011 48.2319 23.7251 47.6778C23.7744 47.465 23.8767 47.2683 24.0224 47.1057C24.168 46.9432 24.3525 46.82 24.5584 46.748C24.7643 46.676 24.9849 46.6576 25.2 46.6939C25.415 46.7303 25.6174 46.8203 25.7883 46.9561C26.0324 47.1794 26.2015 47.4731 26.2721 47.7966C26.4787 48.727 26.4583 49.6936 26.2128 50.6145C26.1824 50.8411 26.0883 51.054 25.9414 51.2291C25.7946 51.4041 25.6012 51.534 25.3836 51.6032C24.5741 51.8009 23.9323 51.6029 23.6855 50.7526C23.5853 50.2922 23.5096 49.8272 23.4585 49.3588ZM24.4457 49.3588C24.4457 49.7642 24.5049 50.12 24.5642 50.4759C24.5642 50.6638 24.7122 50.8713 24.9294 50.8317C25.0864 50.772 25.2209 50.6649 25.3144 50.5252C25.3777 50.4468 25.4125 50.3494 25.4131 50.2486C25.4131 49.8531 25.5119 49.4673 25.5119 49.0817C25.5122 48.6734 25.4725 48.2661 25.3935 47.8656C25.3636 47.7886 25.3141 47.7207 25.2501 47.6686C25.186 47.6166 25.1096 47.5825 25.0282 47.5692C24.9098 47.5692 24.7716 47.747 24.6531 47.8656C24.5346 47.9843 24.653 47.9844 24.6037 48.0437C24.505 48.4986 24.4556 48.9334 24.4063 49.3487L24.4457 49.3588Z" fill="#5E5E5E"/>
<path d="M23.113 48.0538C23.1085 48.789 22.9783 49.5182 22.728 50.2094C22.728 50.3379 22.6195 50.4663 22.5603 50.5849C22.4433 50.8712 22.2226 51.1026 21.9425 51.2328C21.6624 51.363 21.3436 51.3823 21.0498 51.2869C20.7695 51.224 20.519 51.0674 20.3395 50.8427C20.1601 50.6181 20.0624 50.3387 20.0626 50.051C20.0053 49.1099 20.1569 48.1678 20.5068 47.2925C20.5562 47.115 20.6423 46.9498 20.7595 46.8078C20.8767 46.6657 21.0223 46.5499 21.1871 46.4679C21.3518 46.3859 21.532 46.3396 21.7159 46.3318C21.8997 46.3239 22.083 46.3548 22.2542 46.4225C22.4939 46.498 22.7034 46.6481 22.8525 46.8507C23.0015 47.0533 23.0824 47.2981 23.0834 47.5498C23.1031 47.7171 23.113 47.8853 23.113 48.0538ZM20.9905 49.646V49.7942C20.9905 50.2193 21.0893 50.4073 21.3164 50.4469C21.5434 50.4864 21.7408 50.2788 21.8593 49.9327V49.8536C21.9382 49.4877 22.0567 49.1119 22.1061 48.7461C22.157 48.3429 22.1735 47.936 22.1555 47.53C22.1583 47.4728 22.146 47.4158 22.1199 47.3649C22.0938 47.314 22.0548 47.2709 22.0068 47.2398C21.9587 47.2088 21.9034 47.1911 21.8464 47.1882C21.7893 47.1853 21.7325 47.1973 21.6816 47.2234C21.5422 47.3083 21.4345 47.437 21.3755 47.5894C21.1309 48.2478 21.0006 48.9435 20.9905 49.646Z" fill="#5E5E5E"/>
<path d="M4.57337 38.5423L5.19531 39.2047C5.13687 39.2571 5.08982 39.321 5.05709 39.3925C5.05709 39.5309 4.96824 39.7288 5.05709 39.8178C5.10654 39.8752 5.16935 39.9196 5.2399 39.9472C5.31045 39.9747 5.38664 39.9844 5.46187 39.9756C5.81727 39.8669 6.14304 39.6989 6.44907 39.5605V39.4813L6.25168 39.4122C6.12266 39.393 5.99963 39.3447 5.89172 39.2713C5.78382 39.1979 5.69373 39.1009 5.62829 38.9879C5.56286 38.8749 5.52371 38.7488 5.51369 38.6186C5.50367 38.4883 5.52307 38.3575 5.57045 38.2357C5.74388 37.8027 6.05114 37.4365 6.44726 37.191C6.84339 36.9455 7.30757 36.8337 7.77189 36.8714C7.95265 36.9206 8.12144 37.0065 8.26753 37.1239C8.41362 37.2413 8.5339 37.3875 8.62098 37.5536C8.70807 37.7197 8.76009 37.9019 8.77367 38.089C8.78724 38.2761 8.76211 38.4638 8.69991 38.6408C8.53617 38.9622 8.32295 39.2562 8.06809 39.5112C7.57937 40.0111 6.98593 40.3957 6.33061 40.638C5.98138 40.7563 5.61282 40.807 5.24472 40.7867C4.98376 40.7606 4.73845 40.6499 4.54602 40.4714C4.35358 40.293 4.22458 40.0566 4.17859 39.798C4.11837 39.5727 4.12347 39.3349 4.19341 39.1124C4.26335 38.89 4.39514 38.6923 4.57337 38.5423ZM7.38698 37.7216C7.18094 37.7548 6.98506 37.8344 6.81409 37.9543C6.64312 38.0742 6.50148 38.2309 6.39978 38.4134C6.36057 38.4772 6.33924 38.5504 6.33821 38.6253C6.33717 38.7003 6.35644 38.7743 6.39388 38.8392C6.43132 38.9041 6.48556 38.9577 6.5509 38.9942C6.61624 39.0307 6.69027 39.0485 6.76504 39.0463C6.99653 39.0251 7.21868 38.9451 7.41048 38.8136C7.60229 38.6821 7.75735 38.5036 7.86082 38.2951C8.0089 37.9688 7.83122 37.7117 7.38698 37.7216Z" fill="#5E5E5E"/>
<path d="M19.2431 49.7642L18.9174 50.7529L16.1237 49.7642C16.3038 49.3072 16.6082 48.9102 17.0023 48.6176C17.3577 48.3606 17.7526 48.1629 18.1178 47.9355C18.3706 47.7958 18.6146 47.6404 18.8483 47.4706C18.9666 47.3941 19.0579 47.2823 19.1092 47.151C19.1606 47.0197 19.1695 46.8758 19.1345 46.7392C19.1112 46.6683 19.074 46.6026 19.0248 46.5465C18.9756 46.4905 18.9156 46.4451 18.8483 46.4128C18.6981 46.3923 18.5458 46.4312 18.4238 46.5214C18.3047 46.6354 18.2018 46.7653 18.1178 46.9072L17.3181 46.5412C17.3493 46.353 17.422 46.174 17.5308 46.0174C17.6397 45.8608 17.782 45.7307 17.9474 45.636C18.1128 45.5414 18.2972 45.4844 18.4872 45.47C18.6771 45.4556 18.868 45.4839 19.0457 45.5525C19.3303 45.6363 19.5931 45.7816 19.8158 45.9778C19.9614 46.1361 20.0613 46.331 20.1047 46.5417C20.1482 46.7524 20.1336 46.9711 20.0626 47.1741C20.0176 47.4123 19.9232 47.6382 19.7854 47.8375C19.6477 48.0367 19.4696 48.2049 19.2629 48.3309C19.004 48.4925 18.7371 48.6407 18.4633 48.7755L17.8018 49.1318V49.2206L19.2431 49.7642Z" fill="#5E5E5E"/>
<path d="M14.0604 45.0978L12.8857 45.1571V45.078C13.0535 44.811 13.2016 44.5443 13.3793 44.2872C13.4559 44.26 13.5395 44.26 13.6162 44.2872C14.1118 44.3073 14.6005 44.1648 15.0082 43.8817C15.1004 43.8467 15.2021 43.8467 15.2944 43.8817C15.4523 43.9608 15.6103 44.0693 15.7978 44.1781L13.2608 48.41L12.4415 47.9253L14.0604 45.0978Z" fill="#5E5E5E"/>
<path d="M0.210048 28.1507C0.210048 27.8442 0.160688 27.5672 0.210048 27.2904C0.221268 27.2449 0.244597 27.2037 0.277653 27.1706C0.310708 27.1375 0.352177 27.1138 0.397558 27.1026C1.61181 27.0136 2.83602 26.9347 4.06015 26.8655L4.81031 26.8062C4.96826 26.8062 5.03746 26.8061 5.02758 27.0137C5.01771 27.0793 5.01771 27.1461 5.02758 27.2117C5.08682 27.884 5.21516 27.8343 4.41552 27.8837L0.466729 28.1507C0.381275 28.1566 0.295503 28.1566 0.210048 28.1507Z" fill="#5E5E5E"/>
<path d="M15.0772 47.876L15.9855 48.2912L15.4424 49.4677L14.5343 49.0423L15.0772 47.876Z" fill="#5E5E5E"/>
<path d="M16.9134 46.3037C16.7455 46.6596 16.5975 46.9958 16.4395 47.2924C16.4145 47.3227 16.3827 47.3469 16.3466 47.3624C16.3106 47.3779 16.2714 47.3845 16.2323 47.3817C15.9756 47.2829 15.7288 47.1641 15.4622 47.0356C15.6202 46.6797 15.7682 46.3336 15.9361 46.0469C15.964 46.0187 15.9984 45.9976 16.0362 45.9856C16.074 45.9735 16.1142 45.971 16.1533 45.9778C16.4001 46.0569 16.637 46.1752 16.9134 46.3037Z" fill="#5E5E5E"/>
<path d="M25.9363 1.9696C25.9363 1.8114 25.9363 1.65315 26.1535 1.66304C26.3707 1.67293 26.509 1.74219 26.4991 1.9696C26.4892 2.197 26.3509 2.23682 26.1535 2.24671C25.9561 2.25659 25.9265 2.1179 25.9363 1.9696Z" fill="#5E5E5E"/>
<path d="M42.5016 10.6806C42.4435 10.687 42.3848 10.678 42.3312 10.6546C42.2777 10.6312 42.2312 10.5943 42.1963 10.5474C42.1614 10.5005 42.1393 10.4452 42.1323 10.3871C42.1252 10.329 42.1334 10.2697 42.1561 10.2157C42.3294 9.80014 42.6592 9.47004 43.0742 9.29655C43.1298 9.26739 43.1924 9.25369 43.255 9.25744C43.3177 9.26119 43.3781 9.28221 43.4299 9.31779C43.4817 9.35337 43.5228 9.4025 43.5488 9.45972C43.5749 9.51694 43.5848 9.58022 43.5776 9.64269C43.497 9.89081 43.3566 10.1148 43.169 10.2959C42.9814 10.4769 42.7522 10.6092 42.5016 10.6806Z" fill="#5E5E5E"/>
<path d="M38.1678 5.64858L37.9012 6.40991L37.5458 6.21197L38.1185 5.61865L38.1678 5.64858Z" fill="#5E5E5E"/>
</svg>
