<svg width="224" height="125" viewBox="0 0 224 125" fill="none" xmlns="http://www.w3.org/2000/svg">
<path d="M87.0043 0.637168C71.5022 0.637168 67.5461 12.2996 68.3785 20.3063C68.3785 30.3711 76.0579 38.2423 85.9034 39.0999L73.3728 47.4405H73.3101H73.2654H73.2206H73.158C72.3704 47.9821 67.922 50.7533 67.3402 56.1332C66.7237 60.27 67.7461 64.4853 70.1865 67.8679C71.0815 69.1497 75.2434 74.7643 81.9563 75.0893H82.8513C85.3387 75.186 87.8078 74.6226 90.0117 73.4554H90.0564L115.735 57.4872C117.525 62.1179 121.105 65.9182 122.896 67.7054C127.219 72.0653 133.153 74.3852 139.991 74.5657C140.215 74.5657 141.137 74.5657 141.351 74.5657C147.797 74.2179 153.893 71.4975 158.482 66.9201C162.063 63.5893 165.401 57.406 166.019 49.8236C166.323 41.6996 164.005 36.3467 158.67 31.03C160.878 29.4699 162.875 27.6282 164.613 25.5508C167.746 21.6603 167.066 14.1411 165.347 9.30278C163.736 4.04023 159.27 0.655221 155.654 0.583008L87.0043 0.637168Z" fill="#5E5E5E"/>
<path d="M122.6 46.4568C123.415 58.8053 130.656 66.153 141.029 66.478C146.063 66.5796 150.93 64.6604 154.561 61.1428C158.191 57.6251 160.288 52.797 160.389 47.7206C160.466 43.5277 159.215 39.4194 156.818 35.9926C154.422 32.5658 151.004 29.999 147.062 28.6652C146.996 28.6409 146.938 28.5985 146.894 28.5426C146.851 28.4867 146.824 28.4197 146.817 28.3492C146.809 28.2787 146.821 28.2075 146.852 28.1437C146.883 28.0799 146.931 28.026 146.99 27.9882L157.829 21.2363C157.829 21.2363 164.291 16.6688 160.657 9.50157C158.098 4.42858 151.788 4.78062 151.788 4.78062H86.6194C83.2383 4.76622 79.9898 6.10641 77.5881 8.50659C75.1864 10.9068 73.8279 14.1705 73.8113 17.5805C73.8196 19.2685 74.1574 20.9383 74.8055 22.4947C75.4536 24.051 76.3993 25.4634 77.5887 26.6511C78.778 27.8389 80.1877 28.7787 81.7372 29.417C83.2867 30.0553 84.9457 30.3796 86.6194 30.3713C88.2939 30.3808 89.9539 30.0574 91.5044 29.4196C93.055 28.7819 94.4657 27.8422 95.656 26.6543C96.8463 25.4665 97.7928 24.0537 98.4415 22.4968C99.0901 20.9398 99.4282 19.2692 99.4364 17.5805C99.4344 15.0238 98.6636 12.5279 97.2257 10.4223C97.2062 10.394 97.1946 10.3609 97.1924 10.3265C97.1901 10.2921 97.1972 10.2578 97.2128 10.2272C97.2285 10.1965 97.2521 10.1708 97.2812 10.1527C97.3103 10.1346 97.3437 10.1248 97.3778 10.1244H141.486L75.2524 51.3583C73.8397 52.3704 72.8507 53.8761 72.4777 55.5828C71.7975 60.0961 73.883 62.2896 74.0441 62.5694C74.0441 62.5694 76.8634 66.7849 80.7927 66.9564C82.3536 67.1201 83.9298 66.8713 85.3664 66.2343L122.43 43.3065L122.6 46.4568Z" fill="#5E5E5E"/>
<path d="M141.36 62.4162C149.803 62.4162 156.648 55.5135 156.648 46.9986C156.648 38.4837 149.803 31.5811 141.36 31.5811C132.917 31.5811 126.073 38.4837 126.073 46.9986C126.073 55.5135 132.917 62.4162 141.36 62.4162Z" fill="white"/>
<path d="M152.047 4.73545C153.264 4.73545 158.411 5.00625 160.657 9.4564C164.291 16.6236 157.829 21.1911 157.829 21.1911L146.99 27.943C146.931 27.9808 146.883 28.0347 146.852 28.0985C146.822 28.1623 146.809 28.2335 146.817 28.3041C146.824 28.3746 146.851 28.4416 146.894 28.4974C146.938 28.5533 146.996 28.5958 147.062 28.62C151.004 29.9538 154.422 32.5206 156.818 35.9474C159.215 39.3743 160.466 43.4826 160.389 47.6754C160.296 52.6702 158.272 57.4308 154.75 60.943C151.227 64.4551 146.484 66.4412 141.53 66.478H141.029C130.656 66.153 123.415 58.8053 122.6 46.4568L122.394 43.3065L85.3306 66.2342C84.1016 66.7943 82.757 67.0481 81.4103 66.9744H80.757C76.8277 66.8029 74.0083 62.5875 74.0083 62.5875C73.8472 62.3076 71.7618 60.078 72.442 55.6008C72.8115 53.8735 73.8115 52.3494 75.2435 51.3312L141.477 10.0973H97.369C97.3348 10.0977 97.3014 10.1074 97.2723 10.1255C97.2432 10.1436 97.2196 10.1694 97.204 10.2C97.1883 10.2307 97.1812 10.265 97.1835 10.2994C97.1858 10.3338 97.1973 10.3669 97.2168 10.3952C98.6547 12.5008 99.4256 14.9967 99.4276 17.5533C99.4229 19.2436 99.0877 20.9164 98.4411 22.4759C97.7946 24.0354 96.8494 25.4509 95.6597 26.6415C94.47 27.8321 93.0592 28.7744 91.5079 29.4144C89.9567 30.0544 88.2955 30.3795 86.6195 30.3712C84.9457 30.3795 83.2868 30.0553 81.7372 29.417C80.1877 28.7787 78.7781 27.8388 77.5887 26.6511C76.3994 25.4634 75.4537 24.051 74.8056 22.4946C74.1575 20.9383 73.8196 19.2684 73.8114 17.5804C73.8138 15.8882 74.1472 14.213 74.7926 12.651C75.4379 11.0889 76.3826 9.6706 77.5724 8.47736C78.7622 7.28412 80.1738 6.33939 81.7263 5.69728C83.2787 5.05517 84.9416 4.72832 86.6195 4.73545H152.047ZM87.4071 1.48584C78.2777 1.48584 70.4013 8.31904 70.4013 17.454C70.4013 26.589 77.6601 33.4854 86.7896 33.4854C88.3329 33.5427 89.8784 33.5035 91.4169 33.3681C93.5731 33.0414 95.7453 32.8335 97.9239 32.7452L73.3013 48.0906H73.2386H73.1849C70.8843 49.7 69.2977 52.1519 68.7634 54.9238C68.4547 56.6133 68.4891 58.3483 68.8645 60.024C69.2399 61.6996 69.9485 63.2811 70.9473 64.6726C71.368 65.2955 75.0018 70.4678 80.6317 70.7115C80.9091 70.7115 81.1866 70.7115 81.4462 70.7115C83.4461 70.7988 85.4354 70.3733 87.2281 69.4748H87.2729H87.3176L119.217 49.7425C119.992 54.9363 122.322 59.7675 125.894 63.5894C129.805 67.7688 135.185 69.3665 141.36 69.529C141.557 69.529 141.163 69.529 141.36 69.529C147.251 69.5248 152.9 67.1649 157.068 62.9666C161.241 58.8088 163.618 53.1578 163.683 47.2421C163.889 39.2896 159.44 32.3481 153.121 27.943L159.539 23.8901C162.068 22.1825 163.909 19.6194 164.73 16.6632C165.551 13.707 165.297 10.5524 164.014 7.76841C161.463 2.74958 157.14 1.48584 152.817 1.48584H87.4071Z" fill="white"/>
<path d="M4.21276 119.149C3.89306 119.007 3.59234 118.825 3.31771 118.607C3.25593 118.554 3.20692 118.487 3.17437 118.412C3.14181 118.337 3.12653 118.256 3.12974 118.174C3.12756 118.081 3.15058 117.988 3.1963 117.907C3.24202 117.826 3.30873 117.759 3.38931 117.713C3.61579 117.577 3.87745 117.511 4.14114 117.524C4.585 117.507 5.02312 117.63 5.39419 117.876L5.5911 118.011V116.766H5.51951C5.08771 116.591 4.62343 116.514 4.15906 116.54C3.59835 116.517 3.04545 116.679 2.58377 117C2.37786 117.142 2.2108 117.333 2.09812 117.558C1.98544 117.782 1.93082 118.031 1.93934 118.282C1.93545 118.64 2.05577 118.988 2.27946 119.266C2.59449 119.609 2.9791 119.88 3.4072 120.06C3.80997 120.259 4.10535 120.403 4.23961 120.494C4.35941 120.568 4.46294 120.666 4.54392 120.782C4.6149 120.879 4.65262 120.996 4.65132 121.116C4.65132 121.405 4.5439 121.784 3.63096 121.784C3.09375 121.795 2.5703 121.613 2.15414 121.27L1.9483 121.098V122.407H2.01093C2.23523 122.537 2.48074 122.626 2.73591 122.669C3.01566 122.728 3.30051 122.758 3.58622 122.759C4.16523 122.794 4.73986 122.639 5.22413 122.317C5.42369 122.167 5.58363 121.971 5.68979 121.744C5.79595 121.517 5.84506 121.268 5.83278 121.017C5.83799 120.646 5.71449 120.286 5.4837 119.997C5.12816 119.622 4.6939 119.332 4.21276 119.149Z" fill="#5E5E5E"/>
<path d="M9.57413 118.164C9.04062 118.155 8.51469 118.292 8.05254 118.561H7.98991V119.735L8.19575 119.572C8.55772 119.276 9.0094 119.114 9.47566 119.112C9.90528 119.112 10.129 119.338 10.1559 119.798L9.07291 119.952C8.08836 120.087 7.58713 120.592 7.58713 121.441C7.57817 121.623 7.60787 121.805 7.67424 121.975C7.74061 122.144 7.84212 122.298 7.97199 122.425C8.26056 122.673 8.6314 122.802 9.01025 122.786C9.22487 122.794 9.43857 122.754 9.63643 122.67C9.8343 122.586 10.0116 122.459 10.1559 122.298V122.687H11.2568V119.979C11.3005 119.741 11.2882 119.496 11.2209 119.264C11.1537 119.032 11.0334 118.819 10.8697 118.643C10.706 118.466 10.5035 118.331 10.2784 118.248C10.0534 118.165 9.81216 118.136 9.57413 118.164ZM10.1559 120.629V120.854C10.1619 120.981 10.1429 121.108 10.0999 121.227C10.0569 121.346 9.9907 121.456 9.90529 121.549C9.82591 121.64 9.72794 121.712 9.61819 121.76C9.50843 121.808 9.38955 121.832 9.26982 121.829C9.11434 121.833 8.96248 121.782 8.84019 121.685C8.79119 121.64 8.75224 121.586 8.72598 121.525C8.69972 121.465 8.68678 121.399 8.68804 121.333C8.68083 121.26 8.68994 121.186 8.71473 121.118C8.73952 121.049 8.77936 120.987 8.83125 120.935C8.99635 120.816 9.19212 120.747 9.39511 120.737L10.1559 120.629Z" fill="#5E5E5E"/>
<path d="M15.8841 118.165C15.6513 118.156 15.4196 118.201 15.2059 118.295C14.9922 118.388 14.802 118.529 14.649 118.706V118.264H13.5212V122.66H14.649V120.168C14.6352 119.891 14.7282 119.62 14.9085 119.41C14.9831 119.318 15.0774 119.244 15.1844 119.194C15.2914 119.144 15.4082 119.119 15.5261 119.121C15.8394 119.121 16.2601 119.239 16.2601 120.196V122.66H17.3878V120.006C17.3878 118.48 16.5644 118.165 15.8841 118.165Z" fill="#5E5E5E"/>
<path d="M23.9396 120.358C23.9396 121.712 23.3578 121.712 23.1699 121.712C22.9721 121.721 22.777 121.664 22.6149 121.549L22.4091 121.396V122.596H22.4896C22.712 122.684 22.9491 122.727 23.1877 122.723C23.4541 122.734 23.7194 122.682 23.9621 122.571C24.2047 122.46 24.4178 122.292 24.584 122.082C24.9447 121.576 25.1217 120.961 25.0852 120.34V116.566H23.9396V120.358Z" fill="#5E5E5E"/>
<path d="M29.292 118.164C29.011 118.159 28.7323 118.217 28.4757 118.332C28.219 118.448 27.9905 118.618 27.8062 118.832C27.4114 119.292 27.2036 119.885 27.2244 120.493C27.1873 121.097 27.3829 121.692 27.7704 122.154C27.9659 122.359 28.203 122.52 28.4657 122.624C28.7283 122.729 29.0101 122.775 29.292 122.759C29.8232 122.783 30.3496 122.648 30.8046 122.371H30.8673V121.324L30.6614 121.477C30.3244 121.728 29.9168 121.864 29.4978 121.865C29.3559 121.886 29.2111 121.876 29.0735 121.835C28.936 121.794 28.8088 121.723 28.7008 121.628C28.5928 121.533 28.5065 121.415 28.4478 121.283C28.3892 121.151 28.3596 121.008 28.3611 120.863H31.1805V120.322C31.2091 119.764 31.034 119.215 30.6882 118.778C30.5146 118.579 30.2994 118.42 30.0581 118.314C29.8167 118.208 29.5551 118.157 29.292 118.164ZM30.0707 119.97H28.388C28.4308 119.75 28.533 119.547 28.6834 119.383C28.76 119.3 28.8528 119.234 28.956 119.189C29.0592 119.144 29.1706 119.121 29.283 119.121C29.3912 119.114 29.4997 119.131 29.6004 119.172C29.701 119.212 29.7914 119.275 29.8648 119.356C29.9872 119.524 30.0587 119.725 30.0707 119.934V119.97Z" fill="#5E5E5E"/>
<path d="M35.2172 118.165C34.9117 118.151 34.6066 118.199 34.3204 118.308C34.0343 118.417 33.773 118.583 33.5524 118.796C33.3443 119.026 33.1833 119.295 33.0789 119.588C32.9744 119.881 32.9285 120.192 32.9438 120.502C32.9289 120.802 32.9743 121.101 33.0774 121.381C33.1805 121.662 33.339 121.919 33.5435 122.136C33.7514 122.346 34.0005 122.51 34.2748 122.617C34.5492 122.725 34.8427 122.773 35.1367 122.759C35.4374 122.772 35.7374 122.721 36.0178 122.611C36.2982 122.501 36.5529 122.333 36.7656 122.118C36.9733 121.892 37.134 121.626 37.2385 121.336C37.343 121.046 37.3892 120.738 37.3743 120.43C37.403 119.824 37.194 119.231 36.7925 118.778C36.5869 118.571 36.3405 118.409 36.0692 118.303C35.7979 118.198 35.5077 118.15 35.2172 118.165ZM36.2376 120.457C36.2376 121.36 35.8974 121.802 35.1814 121.802C35.0302 121.81 34.8794 121.782 34.74 121.723C34.6006 121.664 34.4761 121.574 34.3759 121.459C34.1632 121.181 34.0582 120.835 34.0805 120.484C34.0591 120.123 34.1635 119.765 34.3759 119.473C34.4735 119.355 34.5973 119.262 34.7372 119.201C34.877 119.14 35.0292 119.113 35.1814 119.121C35.3284 119.108 35.4765 119.131 35.6124 119.19C35.7482 119.248 35.8677 119.339 35.9601 119.455C36.1634 119.748 36.2614 120.101 36.2376 120.457Z" fill="#5E5E5E"/>
<path d="M42.1179 120.773C42.1317 121.044 42.0457 121.311 41.8763 121.522C41.8031 121.613 41.7101 121.686 41.6045 121.734C41.4989 121.783 41.3836 121.806 41.2677 121.802C40.9454 121.802 40.5069 121.694 40.5069 120.764V118.264H39.3612V120.872C39.3612 122.434 40.2563 122.759 40.9365 122.759C41.1532 122.766 41.3689 122.726 41.5683 122.64C41.7678 122.554 41.9462 122.425 42.0911 122.263V122.66H43.2188V118.264H42.0911L42.1179 120.773Z" fill="#5E5E5E"/>
<path d="M51.9993 119.392C52.1767 119.292 52.3321 119.157 52.4558 118.995C52.6639 118.741 52.7779 118.422 52.778 118.092C52.7829 117.883 52.7384 117.676 52.6481 117.487C52.5578 117.299 52.4244 117.135 52.2588 117.009C51.8558 116.734 51.3755 116.598 50.8894 116.621H48.9651V122.678H50.9968C51.5387 122.703 52.071 122.527 52.4916 122.181C52.6805 122.02 52.831 121.817 52.9317 121.589C53.0324 121.361 53.0809 121.113 53.0733 120.863C53.0796 120.671 53.048 120.48 52.9804 120.3C52.9128 120.12 52.8106 119.956 52.6795 119.816C52.4946 119.616 52.2596 119.469 51.9993 119.392ZM51.8471 120.836C51.8542 120.95 51.8353 121.063 51.7918 121.168C51.7484 121.273 51.6815 121.366 51.5965 121.441C51.3745 121.606 51.1017 121.686 50.8268 121.667H50.1107V120.033H50.7373C51.7308 120.033 51.8919 120.493 51.8919 120.836H51.8471ZM50.1107 119.031V117.587H50.6567C51.4891 117.587 51.5517 117.957 51.5517 118.236C51.5558 118.344 51.5371 118.451 51.497 118.551C51.4569 118.65 51.3962 118.74 51.319 118.814C51.1141 118.971 50.8598 119.048 50.603 119.031H50.1107Z" fill="#5E5E5E"/>
<path d="M57.7991 120.773C57.8129 121.044 57.7269 121.311 57.5575 121.522C57.4825 121.613 57.3879 121.686 57.2808 121.734C57.1738 121.783 57.0572 121.806 56.9399 121.802C56.6177 121.802 56.188 121.694 56.188 120.764V118.264H55.0603V120.872C55.0603 122.434 55.9553 122.759 56.6445 122.759C56.8611 122.765 57.0764 122.724 57.2757 122.638C57.4749 122.552 57.6535 122.424 57.7991 122.262V122.66H58.9179V118.264H57.7991V120.773Z" fill="#5E5E5E"/>
<path d="M62.3907 118.264H61.2629V122.66H62.3907V118.264Z" fill="#5E5E5E"/>
<path d="M61.3703 116.513C61.306 116.568 61.255 116.638 61.2209 116.716C61.1868 116.794 61.1706 116.879 61.1734 116.964C61.1734 117.05 61.1908 117.136 61.2247 117.215C61.2585 117.294 61.3081 117.366 61.3703 117.425C61.4957 117.545 61.663 117.609 61.8357 117.605C62.0081 117.607 62.1748 117.543 62.3012 117.425C62.3662 117.368 62.4177 117.297 62.4517 117.217C62.4858 117.137 62.5017 117.051 62.4981 116.964C62.4998 116.878 62.4831 116.792 62.4492 116.713C62.4152 116.633 62.3647 116.562 62.3012 116.504C62.1721 116.39 62.0058 116.327 61.834 116.329C61.6623 116.331 61.4972 116.396 61.3703 116.513Z" fill="#5E5E5E"/>
<path d="M65.8544 116.278H64.7267V122.669H65.8544V116.278Z" fill="#5E5E5E"/>
<path d="M71.0189 118.571C70.8759 118.432 70.7059 118.324 70.5195 118.254C70.3331 118.184 70.1344 118.154 69.9359 118.165C69.6595 118.156 69.3847 118.211 69.1331 118.327C68.8815 118.443 68.66 118.616 68.4859 118.833C68.0997 119.321 67.9024 119.933 67.931 120.557C67.9038 121.131 68.0781 121.697 68.4233 122.155C68.5871 122.351 68.793 122.508 69.0256 122.613C69.2581 122.718 69.5112 122.768 69.7658 122.759C69.999 122.769 70.2316 122.728 70.4478 122.64C70.664 122.551 70.8588 122.416 71.0189 122.245V122.66H72.1377V116.278H71.0189V118.571ZM70.7593 119.402C70.8478 119.495 70.917 119.606 70.9631 119.727C71.0092 119.847 71.0312 119.976 71.0278 120.106V120.638C71.0484 120.965 70.9461 121.287 70.7414 121.541C70.6563 121.644 70.5495 121.727 70.4287 121.783C70.308 121.839 70.1763 121.867 70.0433 121.866C69.9087 121.872 69.7747 121.845 69.653 121.787C69.5312 121.728 69.4255 121.641 69.3451 121.532C69.1605 121.269 69.0663 120.952 69.0766 120.629C69.0571 120.261 69.1577 119.896 69.363 119.591C69.4482 119.477 69.5592 119.384 69.6868 119.321C69.8144 119.258 69.955 119.227 70.097 119.23C70.3316 119.197 70.5697 119.258 70.7593 119.402Z" fill="#5E5E5E"/>
<path d="M74.5901 116.513C74.5277 116.57 74.4779 116.64 74.4439 116.717C74.41 116.795 74.3927 116.879 74.3932 116.964C74.3931 117.05 74.4106 117.136 74.4444 117.215C74.4783 117.294 74.5279 117.366 74.5901 117.425C74.7155 117.545 74.8828 117.609 75.0555 117.605C75.2282 117.609 75.3956 117.545 75.5209 117.425C75.5859 117.368 75.6374 117.297 75.6715 117.217C75.7056 117.137 75.7214 117.051 75.7178 116.964C75.7196 116.878 75.7029 116.792 75.6689 116.713C75.635 116.633 75.5845 116.562 75.5209 116.504C75.3918 116.39 75.2255 116.327 75.0538 116.329C74.8821 116.331 74.717 116.396 74.5901 116.513Z" fill="#5E5E5E"/>
<path d="M75.6104 118.264H74.4827V122.66H75.6104V118.264Z" fill="#5E5E5E"/>
<path d="M80.3094 118.164C80.078 118.157 79.8478 118.202 79.6357 118.296C79.4235 118.389 79.2348 118.529 79.0832 118.706V118.264H77.9554V122.66H79.0832V120.168C79.0714 119.893 79.1606 119.623 79.3338 119.41C79.4102 119.318 79.5061 119.244 79.6145 119.194C79.723 119.144 79.8411 119.119 79.9603 119.121C80.2736 119.121 80.6943 119.239 80.6943 120.195V122.66H81.8131V120.006C81.8131 118.48 80.9986 118.164 80.3094 118.164Z" fill="#5E5E5E"/>
<path d="M86.9059 118.58C86.7625 118.44 86.5926 118.332 86.4065 118.26C86.2204 118.189 86.0219 118.156 85.8229 118.164C85.545 118.154 85.2685 118.209 85.0152 118.325C84.762 118.441 84.539 118.614 84.364 118.832C83.9866 119.338 83.7966 119.961 83.827 120.593C83.7973 121.156 83.9723 121.711 84.3193 122.154C84.4804 122.352 84.6845 122.509 84.9159 122.614C85.1472 122.719 85.3994 122.769 85.6529 122.759C85.887 122.769 86.1205 122.728 86.337 122.638C86.5536 122.547 86.7477 122.41 86.9059 122.235C86.9059 123.138 86.4674 123.616 85.5723 123.616C85.133 123.603 84.7045 123.475 84.3282 123.246L84.1403 123.138V124.248H84.2119C84.6466 124.449 85.1215 124.544 85.5992 124.528C85.9297 124.575 86.2664 124.543 86.5828 124.436C86.8992 124.329 87.1867 124.15 87.4226 123.912C87.6586 123.674 87.8366 123.384 87.9426 123.065C88.0486 122.746 88.0798 122.406 88.0337 122.073V118.182H86.9059V118.58ZM86.6464 119.41C86.8237 119.597 86.9203 119.847 86.9149 120.105V120.638C86.9283 120.8 86.91 120.963 86.8608 121.118C86.8117 121.273 86.7327 121.416 86.6285 121.54C86.5424 121.645 86.4341 121.728 86.3117 121.784C86.1893 121.841 86.0559 121.868 85.9214 121.865C85.7884 121.869 85.6564 121.841 85.5365 121.783C85.4166 121.725 85.3123 121.639 85.2322 121.531C85.0445 121.27 84.9499 120.951 84.9637 120.629C84.9466 120.252 85.0467 119.88 85.2501 119.564C85.3362 119.448 85.4486 119.354 85.5779 119.292C85.7071 119.229 85.8495 119.198 85.993 119.202C86.1101 119.192 86.228 119.205 86.3401 119.241C86.4523 119.276 86.5563 119.334 86.6464 119.41Z" fill="#5E5E5E"/>
<path d="M97.0914 120.502C97.0377 120.647 96.984 120.782 96.9482 120.899C96.9035 120.782 96.8587 120.647 96.7961 120.502L95.2118 116.594H93.7529V122.651H94.8538V118.525L96.5544 122.651H97.3152L98.9979 118.534V122.651H100.135V116.594H98.7204L97.0914 120.502Z" fill="#5E5E5E"/>
<path d="M104.243 118.164C103.712 118.156 103.189 118.293 102.73 118.562H102.668V119.735L102.873 119.573C103.235 119.275 103.687 119.112 104.153 119.112C104.583 119.112 104.798 119.338 104.834 119.798L103.751 119.952C102.766 120.087 102.265 120.593 102.265 121.441C102.256 121.623 102.285 121.805 102.352 121.975C102.418 122.145 102.52 122.298 102.65 122.425C102.937 122.675 103.309 122.805 103.688 122.786C103.902 122.794 104.116 122.754 104.314 122.67C104.512 122.586 104.689 122.459 104.834 122.299V122.687H105.934V119.979C105.978 119.74 105.966 119.495 105.898 119.262C105.831 119.029 105.71 118.816 105.545 118.639C105.38 118.462 105.176 118.327 104.95 118.245C104.724 118.162 104.482 118.135 104.243 118.164ZM104.834 120.629V120.854C104.842 120.982 104.823 121.11 104.778 121.23C104.733 121.35 104.664 121.459 104.574 121.549C104.495 121.641 104.398 121.713 104.288 121.762C104.178 121.81 104.058 121.833 103.938 121.829C103.786 121.833 103.637 121.782 103.518 121.685C103.469 121.641 103.43 121.586 103.404 121.526C103.377 121.465 103.364 121.399 103.366 121.333C103.358 121.26 103.368 121.186 103.392 121.118C103.417 121.049 103.457 120.987 103.509 120.936C103.673 120.814 103.869 120.745 104.073 120.737L104.834 120.629Z" fill="#5E5E5E"/>
<path d="M109.568 117.027L108.45 117.37V118.273H107.751V119.176H108.45V121.315C108.45 122.218 108.897 122.723 109.747 122.723C110.008 122.737 110.267 122.681 110.499 122.561H110.562V121.541L110.365 121.685C110.262 121.756 110.14 121.794 110.016 121.793C109.954 121.801 109.891 121.795 109.832 121.774C109.774 121.754 109.72 121.72 109.676 121.676C109.591 121.529 109.554 121.358 109.568 121.189V119.212H110.562V118.309H109.568V117.027Z" fill="#5E5E5E"/>
<path d="M114.249 118.165C113.967 118.158 113.687 118.215 113.428 118.33C113.17 118.446 112.94 118.617 112.755 118.832C112.354 119.289 112.142 119.884 112.164 120.493C112.13 121.098 112.329 121.693 112.719 122.154C112.914 122.36 113.152 122.52 113.414 122.624C113.677 122.729 113.959 122.775 114.24 122.759C114.772 122.784 115.298 122.649 115.753 122.371H115.807V121.324L115.61 121.477C115.27 121.729 114.859 121.866 114.437 121.865C114.296 121.885 114.152 121.873 114.016 121.832C113.879 121.79 113.753 121.72 113.646 121.625C113.539 121.529 113.454 121.412 113.396 121.281C113.338 121.15 113.308 121.007 113.31 120.864H116.12V120.322C116.153 119.763 115.977 119.213 115.628 118.778C115.456 118.581 115.244 118.424 115.006 118.318C114.768 118.212 114.51 118.16 114.249 118.165ZM115.028 119.97H113.336C113.382 119.75 113.488 119.547 113.641 119.383C113.716 119.299 113.809 119.232 113.912 119.187C114.016 119.141 114.128 119.119 114.24 119.121C114.349 119.115 114.457 119.133 114.557 119.174C114.658 119.214 114.748 119.277 114.822 119.356C114.945 119.525 115.016 119.725 115.028 119.934V119.97Z" fill="#5E5E5E"/>
<path d="M120.255 118.192C120.064 118.185 119.874 118.229 119.704 118.319C119.535 118.41 119.391 118.543 119.289 118.706V118.264H118.125V122.66H119.253V120.466C119.236 120.148 119.317 119.833 119.485 119.564C119.547 119.464 119.632 119.381 119.734 119.325C119.836 119.268 119.951 119.238 120.067 119.239C120.224 119.23 120.379 119.268 120.515 119.347L120.712 119.473V118.291H120.631C120.513 118.235 120.385 118.201 120.255 118.192Z" fill="#5E5E5E"/>
<path d="M123.647 116.278H122.52V122.669H123.647V116.278Z" fill="#5E5E5E"/>
<path d="M127.675 118.164C127.142 118.155 126.616 118.292 126.154 118.561H126.091V119.735L126.297 119.572C126.659 119.277 127.111 119.115 127.577 119.112C128.015 119.112 128.23 119.338 128.257 119.798L127.174 119.952C126.189 120.087 125.688 120.592 125.688 121.441C125.681 121.623 125.712 121.804 125.778 121.974C125.845 122.143 125.945 122.297 126.073 122.425C126.364 122.674 126.738 122.803 127.12 122.786C127.334 122.793 127.546 122.754 127.742 122.67C127.939 122.585 128.114 122.459 128.257 122.298V122.687H129.358V119.979C129.401 119.741 129.389 119.496 129.322 119.264C129.255 119.032 129.134 118.819 128.971 118.643C128.807 118.466 128.604 118.331 128.379 118.248C128.154 118.165 127.913 118.136 127.675 118.164ZM128.257 120.629V120.854C128.263 120.981 128.244 121.108 128.201 121.227C128.158 121.346 128.092 121.456 128.006 121.549C127.928 121.641 127.83 121.713 127.72 121.762C127.61 121.81 127.491 121.833 127.371 121.829C127.218 121.834 127.068 121.783 126.95 121.685C126.898 121.643 126.856 121.589 126.828 121.528C126.8 121.467 126.787 121.4 126.789 121.333C126.784 121.26 126.794 121.187 126.818 121.119C126.843 121.05 126.882 120.988 126.932 120.935C127.097 120.816 127.293 120.747 127.496 120.737L128.257 120.629Z" fill="#5E5E5E"/>
<path d="M132.75 116.278H131.622V122.669H132.75V116.278Z" fill="#5E5E5E"/>
<path d="M139.615 116.612H138.469V122.669H139.615V116.612Z" fill="#5E5E5E"/>
<path d="M144.421 118.164C144.19 118.157 143.96 118.202 143.748 118.296C143.535 118.389 143.347 118.529 143.195 118.706V118.264H142.067V122.66H143.186V120.168C143.174 119.893 143.264 119.623 143.437 119.41C143.513 119.317 143.609 119.243 143.717 119.193C143.826 119.143 143.944 119.118 144.063 119.121C144.377 119.121 144.797 119.239 144.797 120.195V122.66H145.916V120.006C145.925 118.48 145.111 118.164 144.421 118.164Z" fill="#5E5E5E"/>
<path d="M151.018 118.571C150.875 118.432 150.705 118.324 150.518 118.254C150.332 118.184 150.133 118.154 149.935 118.165C149.658 118.156 149.384 118.211 149.132 118.327C148.88 118.443 148.659 118.616 148.485 118.833C148.099 119.321 147.901 119.933 147.93 120.557C147.903 121.131 148.077 121.697 148.422 122.155C148.586 122.351 148.792 122.508 149.024 122.613C149.257 122.718 149.51 122.768 149.765 122.759C149.998 122.769 150.231 122.728 150.447 122.64C150.663 122.551 150.858 122.416 151.018 122.245V122.66H152.137V116.278H151.018V118.571ZM150.758 119.402C150.847 119.495 150.916 119.606 150.962 119.727C151.008 119.847 151.03 119.976 151.027 120.106V120.638C151.047 120.965 150.945 121.287 150.74 121.541C150.655 121.644 150.548 121.727 150.428 121.783C150.307 121.839 150.175 121.867 150.042 121.866C149.907 121.873 149.773 121.846 149.651 121.788C149.529 121.729 149.424 121.641 149.344 121.532C149.159 121.269 149.065 120.952 149.076 120.629C149.056 120.261 149.157 119.896 149.362 119.591C149.447 119.477 149.558 119.384 149.686 119.321C149.813 119.258 149.954 119.227 150.096 119.23C150.33 119.197 150.569 119.258 150.758 119.402Z" fill="#5E5E5E"/>
<path d="M157.149 120.773C157.163 121.044 157.077 121.311 156.907 121.522C156.834 121.613 156.741 121.686 156.635 121.734C156.53 121.783 156.415 121.806 156.299 121.802C155.967 121.802 155.538 121.694 155.538 120.764V118.264H154.419V120.872C154.419 122.434 155.269 122.759 155.994 122.759C156.211 122.765 156.426 122.724 156.625 122.638C156.825 122.552 157.003 122.424 157.149 122.262V122.66H158.268V118.264H157.149V120.773Z" fill="#5E5E5E"/>
<path d="M162.322 120.024C162.093 119.949 161.873 119.846 161.669 119.717C161.633 119.686 161.605 119.647 161.586 119.603C161.568 119.56 161.559 119.512 161.561 119.465C161.561 119.411 161.575 119.359 161.602 119.313C161.629 119.267 161.667 119.229 161.714 119.203C161.852 119.121 162.01 119.08 162.17 119.085C162.518 119.08 162.86 119.177 163.155 119.365L163.351 119.483V118.381H163.271C162.933 118.253 162.575 118.189 162.215 118.192C161.77 118.176 161.331 118.302 160.962 118.553C160.796 118.662 160.66 118.812 160.567 118.989C160.475 119.166 160.429 119.364 160.434 119.564C160.423 119.842 160.512 120.114 160.684 120.331C160.929 120.593 161.238 120.786 161.579 120.891C161.837 120.975 162.083 121.09 162.313 121.234C162.352 121.263 162.382 121.302 162.403 121.346C162.423 121.39 162.432 121.438 162.43 121.487C162.43 121.586 162.43 121.866 161.74 121.866C161.336 121.858 160.944 121.729 160.613 121.496L160.416 121.36V122.443H160.487C160.871 122.613 161.286 122.697 161.705 122.687C162.17 122.71 162.631 122.584 163.02 122.326C163.188 122.214 163.324 122.061 163.417 121.881C163.509 121.7 163.554 121.5 163.548 121.297C163.557 121.014 163.461 120.737 163.28 120.521C163.002 120.284 162.675 120.114 162.322 120.024Z" fill="#5E5E5E"/>
<path d="M166.95 117.027L165.831 117.37V118.273H165.133V119.176H165.831V121.315C165.831 122.218 166.278 122.723 167.129 122.723C167.389 122.737 167.649 122.681 167.88 122.561H167.943V121.541L167.746 121.685C167.643 121.756 167.522 121.794 167.397 121.793C167.335 121.801 167.273 121.795 167.214 121.774C167.155 121.754 167.101 121.72 167.057 121.676C166.972 121.529 166.935 121.358 166.95 121.189V119.212H167.943V118.309H166.95V117.027Z" fill="#5E5E5E"/>
<path d="M171.98 118.192C171.788 118.185 171.598 118.229 171.429 118.319C171.259 118.41 171.116 118.543 171.013 118.706V118.264H169.885V122.66H171.013V120.466C170.996 120.148 171.077 119.833 171.246 119.564C171.307 119.464 171.393 119.381 171.495 119.325C171.596 119.268 171.711 119.238 171.828 119.239C171.984 119.23 172.139 119.268 172.275 119.347L172.472 119.473V118.291H172.391C172.262 118.231 172.122 118.197 171.98 118.192Z" fill="#5E5E5E"/>
<path d="M176.186 121.27L175.184 118.264H173.94L175.614 122.524L175.345 123.165C175.307 123.299 175.227 123.417 175.118 123.501C175.008 123.586 174.874 123.633 174.737 123.635C174.601 123.634 174.467 123.606 174.343 123.554L174.164 123.472V124.501H174.253C174.441 124.561 174.638 124.588 174.835 124.583C175.569 124.583 176.142 124.086 176.518 123.102L178.388 118.237H177.198L176.186 121.27Z" fill="#5E5E5E"/>
<path d="M186.202 116.503C185.786 116.487 185.37 116.558 184.983 116.714C184.596 116.869 184.246 117.105 183.955 117.406C183.662 117.714 183.432 118.078 183.279 118.476C183.125 118.874 183.051 119.299 183.06 119.726C183.027 120.53 183.31 121.316 183.848 121.91C184.12 122.188 184.448 122.406 184.808 122.549C185.169 122.692 185.555 122.757 185.942 122.741C186.515 122.757 187.084 122.643 187.607 122.407H187.679V121.242L187.482 121.36C187.061 121.616 186.577 121.744 186.086 121.73C185.837 121.743 185.588 121.7 185.358 121.605C185.127 121.51 184.92 121.364 184.752 121.179C184.406 120.77 184.227 120.245 184.251 119.708C184.225 119.14 184.418 118.584 184.788 118.155C184.967 117.96 185.186 117.807 185.431 117.707C185.675 117.607 185.939 117.563 186.202 117.578C186.652 117.573 187.096 117.684 187.491 117.903L187.679 118.011V116.801H187.598C187.156 116.611 186.682 116.51 186.202 116.503Z" fill="#5E5E5E"/>
<path d="M192.414 116.504C192.01 116.486 191.608 116.557 191.236 116.713C190.863 116.869 190.529 117.106 190.256 117.406C189.709 118.046 189.424 118.873 189.46 119.717C189.433 120.523 189.715 121.309 190.248 121.911C190.511 122.195 190.832 122.419 191.189 122.567C191.545 122.715 191.93 122.783 192.315 122.768C192.713 122.786 193.11 122.714 193.477 122.558C193.843 122.402 194.171 122.165 194.436 121.866C194.976 121.225 195.257 120.403 195.224 119.564C195.253 118.758 194.978 117.971 194.454 117.361C194.194 117.08 193.877 116.859 193.525 116.711C193.174 116.563 192.795 116.492 192.414 116.504ZM194.034 119.654C194.064 120.198 193.902 120.735 193.577 121.17C193.424 121.353 193.232 121.497 193.014 121.591C192.797 121.685 192.56 121.726 192.324 121.712C192.091 121.722 191.859 121.675 191.647 121.576C191.436 121.477 191.25 121.329 191.107 121.143C190.789 120.711 190.628 120.182 190.65 119.645C190.628 119.102 190.796 118.568 191.125 118.138C191.272 117.949 191.461 117.798 191.678 117.698C191.894 117.597 192.131 117.55 192.369 117.56C192.602 117.545 192.835 117.588 193.049 117.683C193.262 117.779 193.45 117.926 193.595 118.11C193.904 118.563 194.055 119.106 194.025 119.654H194.034Z" fill="#5E5E5E"/>
<path d="M196.934 121.631C196.867 121.689 196.814 121.762 196.779 121.843C196.743 121.924 196.726 122.012 196.728 122.1C196.726 122.188 196.742 122.276 196.776 122.356C196.81 122.437 196.861 122.51 196.925 122.57C196.987 122.632 197.062 122.68 197.143 122.713C197.224 122.745 197.311 122.761 197.399 122.759C197.583 122.761 197.759 122.69 197.891 122.561C197.952 122.501 198 122.43 198.033 122.35C198.065 122.271 198.081 122.186 198.079 122.1C198.082 122.01 198.066 121.921 198.03 121.838C197.994 121.755 197.941 121.681 197.873 121.622C197.743 121.507 197.575 121.445 197.402 121.446C197.228 121.448 197.062 121.514 196.934 121.631Z" fill="#5E5E5E"/>
<path d="M199.744 123.716H200.648L201.355 121.451H200.245L199.744 123.716Z" fill="#5E5E5E"/>
<path d="M208.059 116.603H206.913V122.669H210.306V121.64H208.059V116.603Z" fill="#5E5E5E"/>
<path d="M213.42 117.027L212.301 117.37V118.273H211.603V119.176H212.301V121.315C212.301 122.218 212.749 122.723 213.59 122.723C213.854 122.739 214.116 122.682 214.351 122.561H214.414V121.541L214.217 121.685C214.114 121.756 213.992 121.794 213.868 121.793C213.806 121.801 213.743 121.795 213.684 121.774C213.625 121.754 213.572 121.72 213.528 121.676C213.443 121.529 213.406 121.358 213.42 121.189V119.212H214.414V118.309H213.42V117.027Z" fill="#5E5E5E"/>
<path d="M219.068 118.571C218.924 118.433 218.754 118.325 218.568 118.255C218.382 118.185 218.183 118.155 217.985 118.165C217.716 118.163 217.45 118.222 217.207 118.337C216.963 118.453 216.749 118.622 216.58 118.833C216.193 119.321 215.996 119.933 216.025 120.557C215.998 121.131 216.172 121.697 216.517 122.155C216.68 122.352 216.886 122.509 217.119 122.614C217.352 122.719 217.605 122.768 217.86 122.759C218.093 122.769 218.325 122.728 218.542 122.64C218.758 122.551 218.953 122.416 219.113 122.245V122.66H220.16V116.278H219.041L219.068 118.571ZM218.808 119.402C218.896 119.496 218.963 119.607 219.008 119.727C219.053 119.848 219.073 119.977 219.068 120.106V120.638C219.091 120.964 218.992 121.286 218.79 121.541C218.704 121.645 218.596 121.729 218.474 121.785C218.351 121.841 218.218 121.869 218.083 121.866C217.949 121.871 217.815 121.844 217.694 121.786C217.572 121.727 217.466 121.64 217.385 121.532C217.207 121.266 217.116 120.95 217.126 120.629C217.102 120.26 217.203 119.895 217.412 119.591C217.497 119.477 217.608 119.384 217.736 119.321C217.863 119.258 218.004 119.227 218.146 119.23C218.381 119.197 218.619 119.258 218.808 119.402Z" fill="#5E5E5E"/>
<path d="M223.489 121.622C223.359 121.503 223.19 121.437 223.015 121.438C222.84 121.437 222.671 121.503 222.541 121.622C222.474 121.68 222.422 121.752 222.386 121.833C222.35 121.914 222.333 122.003 222.335 122.091C222.335 122.179 222.353 122.265 222.386 122.346C222.42 122.426 222.47 122.499 222.532 122.561C222.66 122.683 222.83 122.751 223.006 122.75C223.097 122.752 223.188 122.735 223.272 122.701C223.357 122.667 223.434 122.616 223.498 122.552C223.561 122.492 223.61 122.421 223.644 122.342C223.678 122.263 223.695 122.177 223.695 122.091C223.695 122.003 223.677 121.915 223.642 121.834C223.606 121.754 223.554 121.681 223.489 121.622Z" fill="#5E5E5E"/>
<path d="M13.933 96.4012H14.1925V96.1484V94.6951V94.4424H13.933H1.70667H1.45605V94.6951V96.1484V96.4012H1.70667H13.933Z" fill="#5E5E5E"/>
<path d="M2.1095 100.012V100.273V101.709V101.961H2.36011H13.1991H13.4586V101.709V100.273V100.012H13.1991H2.36011H2.1095Z" fill="#5E5E5E"/>
<path d="M0.945925 106.015H0.695312V106.276V107.712V107.964H0.945925H14.5953H14.8459V107.712V106.276V106.015H14.5953H0.945925Z" fill="#5E5E5E"/>
<path d="M28.4506 101.493C29.3624 99.9049 30.0522 98.1977 30.5003 96.4195L30.5809 96.0946H25.2733C25.5597 95.562 25.7924 95.0926 25.9624 94.6955L26.0788 94.4247L25.8013 94.3434L24.3871 93.9372L24.1813 93.874L24.0918 94.0726C23.0573 96.4311 21.5309 98.537 19.6166 100.247L19.4018 100.427L19.5987 100.626L20.6459 101.637L20.8159 101.79L20.986 101.646C22.1924 100.588 23.2547 99.3741 24.1455 98.0353H27.9494C26.7143 101.646 23.9128 104.607 19.6255 106.9L19.3391 107.053L19.5629 107.297L20.5743 108.407L20.7085 108.551L20.8786 108.461C22.1948 107.751 23.4414 106.917 24.602 105.97C25.5743 105.197 26.4597 104.319 27.2423 103.352C27.8722 104.344 28.6207 105.253 29.471 106.06C30.3939 107.005 31.4494 107.808 32.6037 108.443L32.7916 108.542L32.9259 108.371L33.8209 107.161L33.991 106.927L33.7404 106.791C31.4849 105.607 29.64 103.759 28.4506 101.493Z" fill="#5E5E5E"/>
<path d="M49.9316 106.367H48.1952V105.193H52.4198V103.487H48.1952V103.009H51.7754V101.375H48.1952V100.96H51.4979V98.7932H52.393V97.1684H51.4979V95.0471H48.1952V94.0723H46.3514V95.0471H43.5321V96.6629H46.3514V97.1684H42.637V98.7752H46.3514V99.3439H43.5321V100.951H46.3514V101.366H43.2009V103H46.3514V103.487H42.7265C43.0366 102.153 43.1839 100.786 43.1651 99.4161V99.1633H41.1512C41.8493 98.2168 42.4491 97.2005 42.9413 96.1303V96.0762V94.4604H38.3587V96.2657H40.7306C40.1457 97.3333 39.4496 98.3349 38.6541 99.2536L38.5914 99.3258V100.996H41.1781C41.1607 101.662 41.0737 102.325 40.9185 102.973C40.7065 102.496 40.5299 102.004 40.3905 101.501L40.3189 101.239L40.0683 101.33L38.7973 101.754L38.5646 101.826L38.6362 102.07C38.9409 103.145 39.4056 104.168 40.0146 105.103C39.5199 105.799 38.9151 106.409 38.2245 106.908L37.9828 107.098L38.2065 107.305L39.2806 108.316L39.4417 108.47L39.6118 108.334C40.2348 107.795 40.7989 107.19 41.2945 106.529C42.0005 107.149 42.8402 107.594 43.7469 107.829C45.8395 108.157 47.9586 108.281 50.0748 108.199C50.8267 108.199 51.4532 108.199 51.9365 108.199H52.1155L52.1603 108.028L52.563 106.71L52.6615 106.367H52.3124C51.6143 106.358 50.7819 106.367 49.9316 106.367ZM48.1952 96.681H49.6094V97.1684H48.1952V96.681ZM48.1952 98.7932H49.6094V99.3619H48.1952V98.7932ZM46.3514 106.195V106.294H45.3848C44.2202 106.248 43.1046 105.81 42.2164 105.049C42.3848 104.672 42.5254 104.282 42.637 103.884V105.229H46.3514V106.195Z" fill="#5E5E5E"/>
<path d="M62.9098 103.144L63.1425 102.909L64.1449 101.862L64.2881 101.718L64.1718 101.537C63.4308 100.494 62.6361 99.4907 61.791 98.5314H63.6527V96.6448H61.6567V94.0361H59.804V96.6448H57.262V98.5314H59.6518C59.0149 100.16 58.1367 101.682 57.0472 103.045L56.913 103.216L57.0562 103.379L58.0586 104.543L58.2645 104.787L58.4524 104.525C58.9832 103.756 59.4503 102.944 59.8487 102.097V108.28H61.7014V101.176C62.0901 101.705 62.4516 102.253 62.7845 102.819L62.9098 103.144Z" fill="#5E5E5E"/>
<path d="M69.6942 96.6539V94.0903H67.7788V96.6539H63.8048V98.5315H66.9911C65.9836 100.921 64.3803 103.008 62.3369 104.588L62.1132 104.769L62.3101 104.977L63.2857 105.987L63.4378 106.15L63.6168 106.015C65.332 104.699 66.7506 103.032 67.7788 101.122V106.285C67.7788 106.448 67.7788 106.457 67.6356 106.457C66.2035 106.457 65.7739 106.457 65.6665 106.457H65.2458L65.398 106.854L65.9529 108.289L66.0155 108.452H66.1856C66.9418 108.472 67.6985 108.439 68.4501 108.352C68.6304 108.32 68.8025 108.251 68.9562 108.15C69.1099 108.049 69.2421 107.919 69.3451 107.766C69.5811 107.386 69.6937 106.941 69.6673 106.493V98.6127H71.2963V96.7352H69.6673L69.6942 96.6539Z" fill="#5E5E5E"/>
<path d="M84.0865 105.889V96.6001H89.2778H89.5284V96.3384V94.867V94.6143H89.2778H76.8993H76.6487V94.867V96.3384V96.6001H76.8993H82.0816V105.889H76.228H75.9774V106.141V107.568V107.829H76.228H89.9043H90.1549V107.568V106.141V105.889H89.9043H84.0865Z" fill="#5E5E5E"/>
<path d="M104.977 104.579H108.995V102.882H102.856V102.584H108.279V100.887H102.856V100.625H108.655V98.9735H105.299C105.371 98.8652 105.451 98.7388 105.532 98.5944L105.675 98.3597L105.433 98.2334H109.013V96.5454H106.624C107.048 96.1551 107.431 95.7226 107.769 95.2545L107.93 95.0199L107.689 94.8845L106.471 94.2165L106.284 94.1172L106.149 94.2797C105.753 94.7769 105.306 95.2308 104.816 95.6337L104.538 95.8684L104.851 96.0579L105.666 96.5454H104.288V94.1894H102.408V96.5454H101.513V94.1894H99.6512V96.5454H98.3624L98.9173 96.1301L99.1321 95.9767L98.971 95.7691C98.5481 95.2222 98.0679 94.7228 97.5389 94.2797L97.3868 94.1443L97.2257 94.2706L96.1785 95.0921L95.9189 95.2907L96.1695 95.4892C96.5619 95.8102 96.9271 96.1634 97.2615 96.5454H94.8538V98.2334H98.5772L98.3892 98.3417L98.0939 98.5042L98.3266 98.7388L98.5503 98.9826H95.2297V100.689H101.012V100.95H95.6415V102.584H101.012V102.873H94.8538V104.57H98.7831C97.6284 105.434 96.3679 106.144 95.0328 106.682L94.7017 106.809L94.9344 107.089L95.8294 108.19L95.9547 108.334L96.1248 108.262C97.5771 107.612 98.9546 106.804 100.233 105.852L100.502 105.662L100.251 105.446L99.2127 104.543H101.003V108.334H102.9V104.543H104.413L103.616 105.662L103.419 105.933L103.733 106.05C105.283 106.625 106.78 107.335 108.208 108.172L108.414 108.298L108.539 108.1L109.309 106.962L109.461 106.736L109.219 106.601C107.855 105.824 106.438 105.149 104.977 104.579ZM100.815 98.9284C100.654 98.6666 100.484 98.4139 100.323 98.1792H103.473C103.306 98.4399 103.124 98.6901 102.927 98.9284H100.815Z" fill="#5E5E5E"/>
<path d="M124.865 105.41C125.694 104.48 126.377 103.426 126.887 102.287V102.232V100.589H120.81C121.331 100.101 121.739 99.5042 122.007 98.8399C122.274 98.1756 122.394 97.4602 122.359 96.7441V96.2657H124.032V98.8654C124.038 99.1988 124.161 99.5191 124.381 99.7681C124.497 99.9041 124.641 100.012 124.804 100.084C124.967 100.156 125.144 100.19 125.321 100.183H127.8V98.378H125.903V94.4604H120.461V96.7261C120.497 97.2215 120.412 97.7182 120.214 98.173C120.016 98.6277 119.711 99.0266 119.324 99.3348V94.3521H114.419V102.079C114.499 103.825 114.228 105.569 113.623 107.206L113.542 107.387L113.703 107.513L114.831 108.416L115.073 108.596L115.216 108.334C115.782 107.052 116.107 105.675 116.174 104.272L116.236 104.381L116.406 104.67L116.639 104.426C116.899 104.146 117.185 103.821 117.534 103.451V106.493H117.364C116.854 106.493 116.541 106.493 116.38 106.493H115.986L116.129 106.854L116.639 108.244L116.693 108.389H116.854C117.096 108.401 117.338 108.401 117.579 108.389C118.653 108.389 119.11 107.928 119.28 107.405L119.861 108.307L119.969 108.479L120.157 108.407C121.315 107.996 122.414 107.432 123.424 106.728C124.502 107.512 125.716 108.084 127.004 108.416L127.192 108.461L127.281 108.298L127.97 107.098L128.132 106.818L127.818 106.728C126.773 106.442 125.777 105.998 124.865 105.41ZM117.498 100.373C117.12 100.928 116.708 101.459 116.263 101.962V99.3438C116.393 99.6568 116.498 99.9798 116.577 100.31L116.666 100.698L116.979 100.454L117.498 100.066V100.373ZM117.498 97.9176C117.355 97.6287 117.203 97.3309 117.033 97.0149L116.89 96.7712L116.657 96.9337L116.263 97.2225V96.1935H117.498V97.9176ZM119.289 106.673V99.7681L120.336 100.589H119.441V102.395H120.201C120.587 103.501 121.166 104.528 121.911 105.428C121.115 105.966 120.247 106.385 119.333 106.673H119.289ZM123.388 104.227C122.893 103.701 122.495 103.09 122.215 102.422H124.623C124.292 103.065 123.893 103.67 123.433 104.227H123.388Z" fill="#5E5E5E"/>
<path d="M146.686 98.8383C145.24 97.792 144.249 96.2241 143.92 94.4603V94.2617H140.08L139.436 94.0993L139.212 94.0361L139.141 94.2617C138.587 96.0081 137.602 97.5833 136.276 98.8383V97.719L136.796 96.5636C137.163 95.7512 137.422 95.0832 137.592 94.5957L137.691 94.3249L137.404 94.2617L135.972 93.9639H135.748L135.677 94.1805C134.982 96.2752 133.884 98.2108 132.446 99.8763L132.329 100.003L132.41 100.156L133.162 101.637L133.323 101.952L133.565 101.709C133.826 101.441 134.071 101.158 134.298 100.86V108.407H136.223V107.215L136.268 107.269L137.207 108.389L137.342 108.551L137.53 108.452C138.781 107.758 139.83 106.743 140.568 105.51C141.307 104.277 141.71 102.869 141.736 101.429H143.607C143.607 101.998 143.607 102.927 143.491 104.2C143.499 104.975 143.415 105.748 143.24 106.502C142.928 106.584 142.604 106.614 142.282 106.592C142.014 106.592 141.62 106.592 141.119 106.529H140.761L140.85 106.881L141.208 108.244L141.262 108.425H141.45C142.175 108.425 142.694 108.425 143.016 108.425C143.501 108.46 143.984 108.347 144.403 108.1C144.729 107.892 144.968 107.571 145.075 107.197C145.258 106.077 145.368 104.946 145.406 103.812C145.495 102.359 145.549 101.285 145.558 100.589L145.674 100.68L145.827 100.472L146.722 99.1903L146.874 98.9737L146.686 98.8383ZM136.357 106.89L136.232 106.953V99.407L136.948 100.436L137.091 100.626L137.288 100.499V101.465H139.794C139.766 102.599 139.432 103.705 138.826 104.661C138.22 105.617 137.366 106.388 136.357 106.89ZM138.326 99.5785C139.174 98.5201 139.881 97.3549 140.429 96.1122H142.434C142.866 97.3914 143.547 98.5702 144.439 99.5785H138.326Z" fill="#5E5E5E"/>
<path d="M158.688 95.5255C158.849 95.1734 158.975 94.8395 159.082 94.5326L159.172 94.2527L158.876 94.1986L157.435 93.9639H157.22L157.149 94.1715C156.984 94.6537 156.774 95.1191 156.522 95.5616H151.331V97.4482H155.484C154.394 99.1828 152.958 100.67 151.268 101.817L151.027 101.98L151.224 102.196L152.226 103.27L152.378 103.424L152.548 103.316C153.142 102.915 153.7 102.462 154.213 101.962V103.884C154.095 105.156 153.515 106.339 152.584 107.206L152.369 107.441L152.647 107.603L153.98 108.352L154.168 108.461L154.303 108.298C155.057 107.395 155.613 106.339 155.932 105.202H162.465V106.403C162.472 106.435 162.472 106.469 162.465 106.502H162.403C161.382 106.502 160.523 106.502 159.87 106.502H159.467L159.628 106.881L160.228 108.28L160.29 108.434H160.452C160.827 108.434 161.347 108.434 161.91 108.434H163.029C163.404 108.451 163.771 108.318 164.05 108.064C164.17 107.929 164.262 107.773 164.322 107.602C164.382 107.432 164.408 107.251 164.399 107.071V98.2515H157.238C157.435 97.9627 157.596 97.6738 157.74 97.4121H165.446V95.5255H158.67H158.688ZM162.465 103.361H156.146V102.639H162.465V103.361ZM162.465 100.111V100.842H156.146V100.111H162.465Z" fill="#5E5E5E"/>
<path d="M182.022 104.896C182.8 104.274 183.505 103.565 184.125 102.783L184.278 102.594L184.099 102.431L183.096 101.529H183.042H183.526V94.3706H176.043V106.313C176.052 106.391 176.039 106.469 176.008 106.54C175.977 106.612 175.927 106.673 175.864 106.719L175.676 106.836L175.766 107.035L176.267 108.218L176.356 108.416L176.562 108.362C177.788 108.032 178.985 107.604 180.143 107.08L180.304 107.008V106.827L180.241 105.627C181.028 106.766 182.047 107.723 183.23 108.434L183.427 108.561L183.562 108.362L184.358 107.207L184.519 106.981L184.287 106.836C183.428 106.324 182.662 105.668 182.022 104.896ZM177.923 96.1398H181.619V97.0425H177.923V96.1398ZM177.923 98.7937H181.619V99.6964H177.923V98.7937ZM181.029 103.217C180.809 102.742 180.626 102.25 180.483 101.745L180.42 101.493L180.169 101.565L178.907 101.962L178.675 102.034L178.737 102.269C178.98 103.268 179.366 104.226 179.883 105.112H179.829C179.201 105.416 178.556 105.681 177.896 105.907V101.439H182.765L182.711 101.511C182.211 102.137 181.647 102.709 181.029 103.217Z" fill="#5E5E5E"/>
<path d="M174.566 99.0913C174.907 98.1886 175.247 97.1686 175.569 96.0583V94.3252H170.539V108.389H172.4V103.975L172.678 104.995V105.175H172.866H173.376C173.705 105.214 174.039 105.176 174.352 105.065C174.665 104.954 174.948 104.772 175.18 104.533C175.413 104.295 175.588 104.006 175.692 103.688C175.797 103.371 175.828 103.033 175.784 102.702C175.736 101.404 175.313 100.149 174.566 99.0913ZM173.832 103.216C173.649 103.304 173.444 103.339 173.242 103.316C173.023 103.319 172.804 103.301 172.588 103.262H172.409V96.2659H173.537C173.152 97.5477 172.83 98.5316 172.562 99.1996L172.508 99.335L172.597 99.4524C173.407 100.39 173.877 101.577 173.931 102.819C173.931 103.108 173.859 103.198 173.832 103.216Z" fill="#5E5E5E"/>
<path d="M198.912 101.934L198.768 101.754L198.571 101.88L197.417 102.639L197.193 102.783L197.354 103.009C197.981 103.911 198.464 104.561 198.786 105.076C197.015 105.498 195.222 105.82 193.416 106.042C194.839 103.923 196.039 101.66 196.996 99.2897L197.104 99.0279L196.835 98.9467L195.412 98.5224L195.188 98.4502L195.099 98.6668C193.309 102.982 191.769 105.653 190.48 106.592L190.328 106.71L190.382 106.881L190.794 108.091L190.856 108.289H191.062C194.463 107.829 197.381 107.314 199.753 106.755C200.043 107.267 200.3 107.798 200.523 108.343L200.648 108.632L200.908 108.452L202.152 107.549L202.331 107.423L202.232 107.233C201.319 105.351 200.205 103.574 198.912 101.934Z" fill="#5E5E5E"/>
<path d="M199.117 94.3793L199.064 94.1988H194.293L193.72 94.0002L193.488 93.9189L193.398 94.1627C192.551 96.623 190.993 98.7706 188.923 100.328L188.726 100.481L188.878 100.689L189.773 101.89L189.925 102.097L190.131 101.935C192.092 100.359 193.661 98.3439 194.714 96.0492H197.658C198.475 98.4516 199.999 100.546 202.026 102.052L202.232 102.205L202.384 101.989L203.217 100.743L203.351 100.536L203.154 100.391C201.167 98.9115 199.742 96.7897 199.117 94.3793Z" fill="#5E5E5E"/>
<path d="M218.781 98.8022V98.5494V97.2676V97.0059H218.531H208.426H208.166V97.2676V98.5494V98.8022H208.426H218.531H218.781Z" fill="#5E5E5E"/>
<path d="M217.779 105.591V99.7593H209.079V105.591H217.779ZM215.846 103.785H210.977V101.583H215.846V103.785Z" fill="#5E5E5E"/>
<path d="M221.225 94.3521H207.799V96.1574H219.524V106.303C219.524 106.421 219.292 106.448 219.104 106.448H216.678H216.338L216.436 106.782L216.839 108.199L216.893 108.38H217.072C217.573 108.38 218.352 108.38 219.399 108.38C219.679 108.413 219.963 108.381 220.228 108.286C220.494 108.191 220.734 108.036 220.931 107.833C221.128 107.63 221.277 107.384 221.365 107.114C221.453 106.844 221.479 106.558 221.44 106.276V94.3611L221.225 94.3521Z" fill="#5E5E5E"/>
</svg>
