<svg width="54" height="54" viewBox="0 0 54 54" fill="none" xmlns="http://www.w3.org/2000/svg">
<g clip-path="url(#clip0_98_1016)">
<path d="M36.8582 27.8916C37.2289 26.7194 37.5696 25.6476 37.9203 24.5857C38.5214 22.7222 39.1324 20.8587 39.7336 18.9953C39.7558 18.8648 39.8276 18.7479 39.9341 18.6695C40.0406 18.591 40.1735 18.5571 40.3047 18.5746C40.9058 18.5746 41.5069 18.5746 42.1782 18.5746C42.1439 18.7481 42.097 18.9186 42.0379 19.0853C40.7021 22.7387 39.3663 26.4122 38.0305 30.1057C38.0084 30.2228 37.9418 30.3271 37.8447 30.3962C37.7475 30.4654 37.6274 30.4941 37.5095 30.4765C36.9217 30.4765 36.3306 30.4765 35.7362 30.4765C35.612 30.4949 35.4854 30.4658 35.3815 30.3953C35.2776 30.3248 35.2038 30.2181 35.1751 30.0959C33.9528 26.7597 32.7005 23.4235 31.4582 20.0773C31.4114 19.9021 31.3179 19.7428 31.1877 19.6165C31.1877 19.7969 31.1877 19.9767 31.1877 20.1571C31.1877 22.1608 31.1877 24.1645 31.1877 26.1682C31.1877 28.9133 29.4244 30.3562 27.04 30.6267C25.8186 30.7935 24.5751 30.5984 23.4634 30.0656C22.7842 29.7444 22.2089 29.2387 21.8033 28.6063C21.3976 27.9739 21.1778 27.2404 21.1692 26.4891C21.089 24.796 21.1692 23.1025 21.1692 21.4094C21.1692 20.2873 21.2693 20.498 20.1673 20.478C19.5862 20.478 19.0152 20.478 18.4341 20.478C18.0935 20.478 18.0034 20.5981 18.0034 20.9187C18.0034 23.1328 18.0034 25.3571 18.0034 27.5712C18.0034 28.4328 17.9532 29.2942 17.9532 30.1458C17.9532 30.4463 17.853 30.5467 17.5525 30.5366C16.9814 30.5366 16.4004 30.5366 15.8193 30.5366C15.4586 30.5366 15.3685 30.4363 15.3685 30.0856C15.3685 27.3606 15.3685 24.6323 15.3685 21.9005C15.3685 21.5499 15.3685 21.2093 15.3685 20.8987C15.3685 20.5881 15.2683 20.5181 14.9978 20.5181C14.1362 20.5181 13.2745 20.5181 12.4129 20.5181C12.0122 20.5181 11.892 20.3876 11.922 20.0069C11.9564 19.6738 11.9564 19.3381 11.922 19.005C11.922 18.6043 12.0523 18.5141 12.423 18.5242C14.6471 18.5242 16.8612 18.5245 19.0753 18.5746C20.4479 18.5746 21.8204 18.5746 23.1929 18.5746C23.5035 18.5746 23.6037 18.6744 23.6037 18.985C23.6037 21.1089 23.6037 23.2332 23.6037 25.3571C23.6141 26.106 23.7048 26.8514 23.8742 27.581C23.9526 27.9557 24.1579 28.292 24.4554 28.5329C24.7529 28.7739 25.1244 28.9044 25.5073 28.9032C25.8936 28.9433 26.283 28.9433 26.6693 28.9032C27.1267 28.8844 27.5623 28.7026 27.8968 28.3901C28.2314 28.0776 28.4428 27.6554 28.4928 27.2004C28.6333 26.3392 28.7036 25.468 28.7031 24.5955C28.7031 22.7721 28.7031 20.949 28.7031 19.1156C28.7031 18.5445 28.7031 18.5442 29.2942 18.5442C30.5766 18.5442 31.849 18.5442 33.1213 18.5442C33.2025 18.53 33.2856 18.5324 33.3658 18.5511C33.446 18.5698 33.5216 18.6047 33.588 18.6533C33.6545 18.702 33.7104 18.7635 33.7524 18.8343C33.7944 18.9051 33.8217 18.9836 33.8326 19.0652C34.7343 21.9105 35.666 24.7558 36.5877 27.601C36.6712 27.7039 36.7616 27.801 36.8582 27.8916Z" fill="#5E5E5E"/>
<path d="M27.1102 32.4201H12.3929C12.2226 32.4201 11.912 32.4203 11.902 32.3101C11.857 32.0347 11.857 31.7538 11.902 31.4784C11.902 31.4284 12.1325 31.3782 12.2528 31.3782H17.0917H41.9177C42.0286 31.3727 42.1389 31.3981 42.2363 31.4515C42.3337 31.505 42.4144 31.5845 42.4694 31.681C42.5244 31.7775 42.5515 31.8874 42.5479 31.9985C42.5442 32.1095 42.5098 32.2174 42.4486 32.3101C42.4486 32.4102 42.1782 32.45 42.0379 32.45C40.2045 32.45 38.3811 32.45 36.5478 32.45H27.1203L27.1102 32.4201Z" fill="#5E5E5E"/>
<path d="M29.8052 38.4208C29.8052 37.4991 29.8052 36.5678 29.8052 35.6461C29.8052 35.3255 29.9054 35.2151 30.226 35.2352C31.0275 35.3053 31.829 35.315 32.6305 35.4152C33.0415 35.4579 33.4282 35.6309 33.7345 35.9083C34.0407 36.1857 34.2506 36.5533 34.3336 36.9581C34.635 37.8972 34.6524 38.9046 34.3837 39.8536C34.2671 40.3512 33.9797 40.792 33.5714 41.0996C33.1632 41.4071 32.6601 41.5621 32.1496 41.5369C31.4683 41.587 30.777 41.5369 30.0958 41.5369C29.8152 41.5369 29.8052 41.3762 29.8052 41.1759V38.3909V38.4208ZM31.0275 38.4208V39.2724C31.0275 39.563 31.0275 39.8639 31.0275 40.1545C31.0275 40.445 31.1377 40.505 31.3782 40.535C31.7339 40.6017 32.1016 40.5369 32.413 40.3526C32.7245 40.1683 32.9584 39.877 33.0712 39.5332C33.2441 39.0142 33.309 38.4649 33.2617 37.9198C33.1615 37.0482 32.7507 36.1369 31.4082 36.2972C31.1578 36.2972 31.0376 36.3973 31.0376 36.6577C31.0376 37.2889 31.0275 37.9099 31.0275 38.4609V38.4208Z" fill="#5E5E5E"/>
<path d="M22.1311 41.6967C20.8787 41.6967 20.1273 41.1358 19.967 40.1039C19.8969 39.603 19.967 39.5629 20.4178 39.5629C20.5502 39.5374 20.6862 39.5374 20.8186 39.5629C20.9588 39.613 21.1491 39.7335 21.1592 39.8437C21.191 40.0059 21.26 40.1582 21.3606 40.2893C21.4612 40.4204 21.5908 40.5267 21.7392 40.5995C21.8876 40.6722 22.0509 40.7098 22.2162 40.709C22.3815 40.7083 22.5443 40.6692 22.692 40.5951C22.8342 40.5513 22.9599 40.4656 23.0528 40.3495C23.1457 40.2334 23.2015 40.0917 23.213 39.9435C23.2295 39.7862 23.1931 39.6281 23.1097 39.4939C23.0262 39.3596 22.9005 39.2571 22.7522 39.2023C22.4525 39.0931 22.1442 39.0093 21.8304 38.9519C21.3686 38.9194 20.9357 38.7151 20.6168 38.3795C20.2979 38.0439 20.1162 37.6013 20.1073 37.1385C20.1298 36.6655 20.3127 36.2143 20.6259 35.8592C20.9392 35.5041 21.364 35.2661 21.8304 35.1846C22.0922 35.0914 22.3714 35.0575 22.6479 35.0849C22.9244 35.1122 23.1914 35.2 23.4298 35.3427C23.6683 35.4853 23.8722 35.6793 24.027 35.9101C24.1818 36.1409 24.2835 36.4029 24.3251 36.6776C24.3852 37.0083 24.325 37.1685 23.9343 37.1184C23.8009 37.1084 23.6669 37.1084 23.5336 37.1184C23.3031 37.1184 23.183 37.1183 23.1229 36.8078C23.0797 36.6566 22.9993 36.5188 22.889 36.4066C22.7788 36.2945 22.6422 36.2118 22.4918 36.166C22.3414 36.1201 22.1819 36.1128 22.0278 36.1444C21.8738 36.1761 21.7302 36.2456 21.6101 36.347C21.5168 36.416 21.4425 36.5077 21.3938 36.6131C21.3452 36.7185 21.3239 36.8343 21.3318 36.9501C21.3398 37.0659 21.3768 37.1777 21.4395 37.2754C21.5021 37.3731 21.5883 37.4536 21.6902 37.5093C22.0511 37.6822 22.4266 37.8229 22.8122 37.93L23.5636 38.2103C23.8026 38.3261 24.0112 38.4965 24.1727 38.7073C24.3342 38.9181 24.4441 39.1636 24.4937 39.4244C24.5433 39.6853 24.5314 39.9542 24.4586 40.2096C24.3858 40.465 24.2543 40.6999 24.0746 40.8954C23.8339 41.1693 23.5334 41.3841 23.1964 41.523C22.8593 41.662 22.4948 41.7213 22.1311 41.6967Z" fill="#5E5E5E"/>
<path d="M29.4045 35.3154C29.4045 36.6279 29.5046 37.8602 29.5447 39.0924C29.6248 41.2865 27.9818 41.7972 26.5391 41.6069C26.042 41.5533 25.5815 41.3202 25.244 40.9514C24.9064 40.5825 24.7151 40.1031 24.7057 39.6032C24.7057 38.461 24.7057 37.319 24.7057 36.1769C24.7057 35.2953 24.7057 35.3052 25.5673 35.3252C25.8478 35.3252 25.9581 35.4353 25.948 35.7058C25.948 36.3871 25.888 37.0686 25.888 37.7599C25.848 38.3871 25.848 39.0161 25.888 39.6433C25.9782 40.4448 26.3889 40.7755 27.1002 40.7454C27.4138 40.7324 27.7098 40.5971 27.9251 40.3687C28.1404 40.1403 28.2579 39.8367 28.2524 39.5229C28.2524 38.7515 28.2524 37.9903 28.2524 37.2189C28.2524 36.7179 28.2524 36.217 28.2524 35.696C28.2524 35.4155 28.3626 35.3052 28.6431 35.3252C28.9236 35.3453 29.154 35.3154 29.4045 35.3154Z" fill="#5E5E5E"/>
<path d="M25.9172 19.656C25.9172 19.9766 25.9172 20.2972 25.9172 20.6579C25.9172 21.0185 25.8371 21.0088 25.5867 20.9988C25.3364 20.9888 24.9458 20.9988 24.5853 20.9988C24.5183 20.9804 24.4571 20.9448 24.408 20.8956C24.3588 20.8464 24.3233 20.7851 24.3049 20.718C24.3049 20.0501 24.3049 19.409 24.3049 18.7945C24.3049 18.6944 24.4852 18.6044 24.5853 18.5142C24.6855 18.4241 24.5853 18.5142 24.5853 18.5142C25.9172 18.374 25.9172 18.3736 25.9172 19.656Z" fill="#5E5E5E"/>
<path d="M28.0011 19.7265C28.0011 20.007 28.0011 20.2874 28.0011 20.5679C28.0011 20.8484 27.931 20.9688 27.6406 20.9588C26.1486 20.9588 26.4489 21.1893 26.4088 19.7867C26.4088 19.4561 26.4088 19.1154 26.4088 18.7848C26.4088 18.4542 26.489 18.4539 26.7293 18.4439C28.0011 18.3737 28.0011 18.364 28.0011 19.7265Z" fill="#5E5E5E"/>
<path d="M26.8586 35.9064C26.8586 36.0967 26.9386 36.4075 26.5386 36.3373C26.4386 36.3373 26.3187 36.187 26.2787 36.0869C26.2582 35.9541 26.2582 35.8185 26.2787 35.6857C26.2787 35.4753 26.2786 35.3252 26.5686 35.3252C26.8586 35.3252 26.8886 35.4555 26.8786 35.6759L26.8586 35.9064Z" fill="#5E5E5E"/>
<path d="M27.7702 35.9063C27.7702 36.0466 27.7102 36.2369 27.6102 36.327C27.5102 36.4172 27.1602 36.3273 27.1402 36.0668C27.1202 35.8063 27.1402 35.826 27.1402 35.7058C27.1402 35.5855 27.1402 35.3354 27.4302 35.3354C27.7202 35.3354 27.7402 35.4756 27.7202 35.696V35.8965L27.7702 35.9063Z" fill="#5E5E5E"/>
<path d="M38.1807 0H15.8193L0 15.8692V38.2305L15.8193 54.0498H38.1807L54 38.2305V15.8692L38.1807 0ZM44.4423 34.223L34.2234 44.4422H19.7766L9.55774 34.223V19.7764L19.7766 9.55774H34.2334L44.4523 19.7764L44.4423 34.223Z" fill="#5E5E5E"/>
</g>
<defs>
<clipPath id="clip0_98_1016">
<rect width="54" height="54" fill="white"/>
</clipPath>
</defs>
</svg>
