<svg width="51" height="64" viewBox="0 0 51 64" fill="none" xmlns="http://www.w3.org/2000/svg">
<g clip-path="url(#clip0_98_1027)">
<path fill-rule="evenodd" clip-rule="evenodd" d="M38.1047 13.7588L24.5381 32.651L17.6546 23.7152V33.3614L24.5381 40.696L38.1047 20.8936V13.7588Z" fill="#5E5E5E"/>
<path d="M34.6078 11.3473C34.4027 11.339 34.1981 11.3727 34.0067 11.447V10.9467C34.2071 10.9467 34.3073 11.0468 34.5077 11.0468C34.7081 11.0468 35.0186 10.7466 34.9184 10.4464C34.9088 10.3151 34.8516 10.1921 34.7576 10.1C34.6635 10.0078 34.5391 9.95302 34.4075 9.94605C34.2279 10.0234 34.0594 10.1246 33.9065 10.2465C33.8814 10.0961 33.8115 9.95671 33.7061 9.84638C33.9064 9.84638 34.0067 9.84628 34.1069 9.74622C34.1684 9.72839 34.2256 9.69795 34.2747 9.65681C34.3238 9.61567 34.3638 9.56474 34.3921 9.5073C34.4204 9.44986 34.4363 9.38706 34.4389 9.32311C34.4416 9.25915 34.4309 9.19556 34.4075 9.13598C34.3833 9.06866 34.3455 9.00678 34.2964 8.95471C34.2474 8.90264 34.1881 8.86122 34.1223 8.83305C34.0565 8.80488 33.9855 8.79061 33.9139 8.79103C33.8423 8.79146 33.7715 8.80655 33.7061 8.8355C33.543 8.93921 33.4031 9.07538 33.2952 9.23565C33.195 9.13559 33.0949 8.93556 32.9947 8.8355C33.1454 8.81044 33.285 8.741 33.3955 8.63566C33.4685 8.52811 33.5001 8.39774 33.4848 8.26874C33.4695 8.13974 33.4081 8.02058 33.312 7.93308C33.2158 7.84557 33.0913 7.79567 32.9613 7.79236C32.8313 7.78905 32.7044 7.8325 32.6039 7.915C32.4928 8.09753 32.4243 8.30285 32.4036 8.51547C32.2507 8.39356 32.0822 8.2923 31.9026 8.21499C32.0816 8.13636 32.2245 7.99364 32.3033 7.81484C32.3267 7.75594 32.3373 7.69296 32.3346 7.62966C32.3319 7.56637 32.3159 7.50409 32.2875 7.44742C32.2591 7.39076 32.219 7.34101 32.17 7.30085C32.1209 7.26068 32.064 7.23102 32.0028 7.21437C31.9368 7.18375 31.8651 7.16727 31.7924 7.166C31.7196 7.16472 31.6474 7.17876 31.5804 7.20704C31.5134 7.23532 31.453 7.27718 31.4032 7.33016C31.3534 7.38314 31.3153 7.44626 31.2913 7.51485C31.1911 7.61491 31.2914 7.91519 31.3916 8.11532C31.1624 8.03944 30.9213 8.00544 30.6801 8.01516C30.792 7.90818 30.866 7.76774 30.8906 7.61501C30.8813 7.48274 30.8244 7.35796 30.7305 7.2642C30.6366 7.17044 30.512 7.11375 30.3796 7.10443C30.2318 7.09574 30.0862 7.14395 29.9727 7.23879C29.8591 7.33363 29.786 7.4682 29.7684 7.61501C29.7684 7.81513 29.9788 8.01526 30.0789 8.11532C29.8572 8.2278 29.6155 8.29549 29.3676 8.31515C29.3676 8.21509 29.4678 8.01506 29.3676 7.915C29.2674 7.61481 28.9668 7.41478 28.7564 7.51485C28.546 7.61491 28.2554 7.91519 28.3556 8.11532C28.4307 8.32145 28.5715 8.49724 28.7564 8.61563C28.5706 8.61904 28.3924 8.68993 28.2554 8.81546C28.201 8.80893 28.1458 8.81477 28.0939 8.83208C28.0419 8.84938 27.9944 8.8778 27.9548 8.91562C28.041 8.82299 28.0967 8.70613 28.1146 8.58094C28.1326 8.45576 28.1117 8.32803 28.055 8.21499C28.055 8.01487 27.7444 7.81494 27.4438 7.915C27.3797 7.92679 27.3192 7.95309 27.2672 7.9922C27.2151 8.0313 27.1728 8.08203 27.1436 8.14024C27.1145 8.19844 27.0993 8.26278 27.0992 8.32785C27.0992 8.39293 27.1143 8.4572 27.1433 8.51547C27.1621 8.62598 27.2087 8.72989 27.2788 8.81742C27.3489 8.90495 27.4401 8.97321 27.5439 9.01578C27.3154 9.0854 27.0712 9.0854 26.8426 9.01578V8.51547L26.6322 8.31515C26.9429 7.9149 27.1433 7.81474 27.1433 7.21437C27.1571 6.98689 27.1181 6.7594 27.0295 6.5494C26.9409 6.3394 26.805 6.15259 26.6322 6.00365C26.469 5.9104 26.3295 5.78081 26.2252 5.6245C26.1209 5.4682 26.0544 5.28958 26.031 5.10318V4.90335C26.3053 4.88769 26.5803 4.92119 26.8426 5.00302V3.89247C26.6209 4.09314 26.3301 4.20046 26.031 4.19246V3.89247C26.1104 3.68263 26.2112 3.48137 26.3316 3.29199H25.2194C25.3399 3.48137 25.4405 3.68263 25.52 3.89247V4.19246C25.204 4.20321 24.8906 4.13468 24.6083 3.99263V4.99325C24.9048 4.91122 25.2126 4.87733 25.52 4.89309V5.09341C25.4138 5.47509 25.2061 5.82089 24.9188 6.09404C24.6082 6.1941 24.4078 6.69427 24.4078 7.20459C24.4078 7.71491 24.6082 7.90513 24.9188 8.30538L24.6083 8.50521V9.00552C24.6083 9.00552 24.5081 9.10559 24.0071 9.00552C24.1109 8.96295 24.2022 8.89469 24.2723 8.80716C24.3424 8.71963 24.389 8.61572 24.4078 8.50521C24.508 8.30509 24.3077 8.00529 24.1073 7.90523C23.9722 7.86774 23.8283 7.87662 23.6991 7.93112C23.57 7.98562 23.4631 8.08235 23.3958 8.20522C23.3841 8.42175 23.4114 8.63876 23.476 8.84576C23.4804 8.86553 23.4804 8.88608 23.476 8.90585C23.4804 8.88608 23.4804 8.86553 23.476 8.84576C23.476 8.84576 23.3658 8.84576 23.2956 8.84576C23.2255 8.84576 22.995 8.7455 22.7846 8.64544C22.995 8.54537 23.0953 8.34535 23.1955 8.24528C23.2148 8.09952 23.185 7.95149 23.1106 7.82461C23.0362 7.69773 22.9214 7.59907 22.7846 7.54465C22.484 7.44459 22.2837 7.64461 22.1835 7.9448C22.1339 8.01885 22.1075 8.1059 22.1075 8.19496C22.1075 8.28401 22.1339 8.37107 22.1835 8.44512C21.9193 8.32874 21.6483 8.22869 21.3719 8.14512C21.464 8.09825 21.5409 8.02643 21.594 7.93796C21.6472 7.8495 21.6743 7.74796 21.6724 7.64481C21.6769 7.57796 21.6669 7.5111 21.6433 7.4484C21.6197 7.38569 21.583 7.32867 21.5356 7.2813C21.4882 7.23393 21.4312 7.19739 21.3684 7.17381C21.3056 7.15023 21.2384 7.14008 21.1715 7.1445C21.1041 7.14022 21.0366 7.15032 20.9733 7.17381C20.9101 7.19731 20.8525 7.23362 20.8043 7.28081C20.7561 7.328 20.7184 7.38472 20.6936 7.44742C20.6688 7.51013 20.6575 7.57747 20.6605 7.64481C20.7 7.82283 20.7713 7.9923 20.871 8.14512C20.6605 8.04506 20.3599 8.14512 20.1595 8.14512C20.2411 7.95606 20.2754 7.74993 20.2596 7.54465C20.2021 7.41316 20.0963 7.30881 19.9639 7.25296C19.8315 7.19711 19.6828 7.19421 19.5483 7.24466C19.4809 7.26879 19.4192 7.30656 19.367 7.35557C19.3149 7.40457 19.2734 7.46378 19.2452 7.5295C19.217 7.59523 19.2027 7.66614 19.2031 7.73764C19.2036 7.80915 19.2188 7.87942 19.2478 7.9448C19.348 8.04487 19.4481 8.24528 19.5483 8.24528C19.3954 8.3672 19.227 8.46796 19.0473 8.54528C19.08 8.44451 19.0881 8.33756 19.0707 8.23307C19.0532 8.12858 19.0108 8.02951 18.9471 7.9448C18.8343 7.84762 18.6903 7.79432 18.5413 7.79432C18.3923 7.79432 18.2483 7.84762 18.1355 7.9448C18.0876 7.98972 18.0494 8.04433 18.0233 8.10457C17.9972 8.16481 17.9837 8.22948 17.9837 8.29512C17.9837 8.36076 17.9972 8.42592 18.0233 8.48616C18.0494 8.54639 18.0876 8.60052 18.1355 8.64544C18.2357 8.7455 18.4361 8.84537 18.5363 8.94543C18.4203 9.06966 18.2849 9.17446 18.1355 9.25568C18.1355 9.04555 17.9352 8.94582 17.8249 8.84576C17.7595 8.81681 17.6887 8.80172 17.6171 8.80129C17.5455 8.80087 17.4745 8.81515 17.4087 8.84331C17.3429 8.87148 17.2836 8.9129 17.2345 8.96497C17.1855 9.01705 17.1478 9.07844 17.1236 9.14575C17.093 9.21164 17.0765 9.2832 17.0752 9.35584C17.0739 9.42848 17.0878 9.50047 17.1162 9.5674C17.1445 9.63432 17.1865 9.69455 17.2396 9.74427C17.2926 9.79398 17.3555 9.83218 17.4241 9.85615H17.8249C17.8334 9.94242 17.8114 10.0288 17.7626 10.1004C17.7138 10.1721 17.6413 10.2247 17.5578 10.2485C17.4744 10.2723 17.3852 10.266 17.3059 10.2309C17.2265 10.1958 17.162 10.1342 17.1236 10.0565C16.813 9.95641 16.6126 10.1564 16.6126 10.4566C16.5865 10.5234 16.5771 10.5955 16.5852 10.6667C16.5933 10.7379 16.6187 10.8059 16.6592 10.8651C16.6997 10.9242 16.754 10.9728 16.8175 11.0063C16.8809 11.0397 16.9516 11.0571 17.0233 11.0571C17.1965 11.0727 17.3705 11.0378 17.5243 10.9569V11.4573C17.4122 11.4079 17.2911 11.3825 17.1686 11.3825C17.0461 11.3825 16.925 11.4079 16.8129 11.4573C16.7116 11.5179 16.6356 11.6129 16.5988 11.725C16.562 11.8371 16.5669 11.9587 16.6126 12.0675C16.6305 12.129 16.6609 12.186 16.7021 12.2351C16.7433 12.2841 16.7943 12.3241 16.8518 12.3523C16.9094 12.3806 16.9721 12.3966 17.0362 12.3992C17.1002 12.4019 17.1641 12.3914 17.2238 12.368C17.4242 12.368 17.5244 12.1676 17.6246 12.0675C17.6806 12.2384 17.7475 12.4055 17.8249 12.5678V12.668H17.2238C17.1003 12.7319 17.0027 12.8368 16.9479 12.9645C16.893 13.0923 16.8843 13.2351 16.9231 13.3686C16.9908 13.4642 17.0811 13.5415 17.186 13.5938C17.2909 13.6462 17.4071 13.6719 17.5243 13.6686L17.4241 13.9686L19.0473 17.7913L18.8369 18.3918L19.3479 18.5916L19.6485 19.2018C21.651 18.5869 23.7356 18.2802 25.8306 18.2916C27.889 18.2876 29.9362 18.5943 31.9026 19.2018L32.2031 18.5916L32.7141 18.3918L32.5037 17.7913L34.1269 13.9686L34.0268 13.6686C34.144 13.6719 34.2602 13.6462 34.3651 13.5938C34.4699 13.5415 34.5602 13.4642 34.6279 13.3686C34.6667 13.2351 34.6579 13.0923 34.6031 12.9645C34.5483 12.8368 34.4508 12.7319 34.3273 12.668C34.2347 12.6189 34.1316 12.5932 34.0268 12.5932C33.9219 12.5932 33.8187 12.6189 33.7261 12.668V12.5678C33.8036 12.4055 33.8704 12.2384 33.9265 12.0675L34.2271 12.368C34.2933 12.3971 34.3647 12.4119 34.437 12.4124C34.5093 12.413 34.581 12.399 34.6476 12.3709C34.7142 12.3428 34.7743 12.3014 34.8243 12.2493C34.8744 12.1971 34.9132 12.1352 34.9385 12.0675C34.9826 11.9278 34.9733 11.777 34.9122 11.6439C34.851 11.5107 34.7426 11.4051 34.6078 11.3473ZM24.7986 7.43472C24.5882 7.43472 24.5882 7.33446 24.5882 7.2344C24.5882 7.13434 24.6884 7.02431 25.0992 7.02431C25.51 7.02431 25.5 7.0245 25.5 6.72431V6.42432C25.5 6.12413 25.6002 6.12384 25.8106 6.12384C26.021 6.12384 26.011 6.12413 26.011 6.42432V6.72431C26.011 7.0245 26.0109 7.02431 26.4117 7.02431C26.8125 7.02431 27.0229 7.12433 27.0229 7.2344C27.0229 7.34447 26.9228 7.43472 26.7124 7.43472C26.7124 7.43472 25.9108 7.33456 25.8106 7.33456C25.7104 7.33456 24.7986 7.43472 24.7986 7.43472ZM25.8005 11.2472C25.5901 11.2472 25.49 11.1468 25.49 10.9467C25.495 10.867 25.5295 10.7921 25.587 10.7366C25.6445 10.681 25.7206 10.649 25.8005 10.6467C25.9007 10.6467 26.001 10.8466 26.001 10.9467C26.001 11.0467 25.9108 11.2472 25.8106 11.2472H25.8005ZM26.001 11.6473C26.001 11.8474 25.9007 11.9576 25.8005 11.9576C25.7586 11.9624 25.7161 11.9578 25.6763 11.9439C25.6364 11.93 25.6002 11.9073 25.5704 11.8774C25.5405 11.8476 25.5177 11.8112 25.5038 11.7714C25.4899 11.7316 25.4852 11.6892 25.49 11.6473C25.49 11.5472 25.5901 11.447 25.8005 11.447C25.8539 11.4492 25.9048 11.4708 25.9435 11.5076C25.9822 11.5444 26.0062 11.5941 26.011 11.6473H26.001ZM25.8005 10.4464C25.5901 10.4464 25.49 10.3466 25.49 10.2465C25.49 10.1465 25.5901 9.94605 25.8005 9.94605C26.011 9.94605 26.001 10.0464 26.001 10.2465C25.9948 10.2948 25.9727 10.3397 25.9383 10.3741C25.9038 10.4085 25.8589 10.4304 25.8106 10.4366L25.8005 10.4464ZM25.8005 9.74622C25.719 9.74371 25.6414 9.71005 25.5837 9.65241C25.526 9.59477 25.4925 9.51744 25.49 9.43597C25.49 9.23584 25.5901 9.13598 25.8005 9.13598C26.011 9.13598 26.001 9.23584 26.001 9.43597C26.001 9.63609 25.9108 9.74622 25.8106 9.74622H25.8005ZM25.8005 8.93566C25.5901 8.93566 25.49 8.83579 25.49 8.63566C25.49 8.43554 25.5901 8.33518 25.8005 8.33518C26.011 8.33518 26.001 8.43554 26.001 8.63566C26.001 8.83579 25.9108 8.93566 25.8106 8.93566H25.8005ZM19.418 18.3815L19.0172 18.2813L19.2177 17.8812L19.6185 17.9813L19.418 18.3815ZM22.6544 17.781C22.454 17.781 21.8529 17.8812 21.7427 17.8812C21.702 17.886 21.6607 17.8819 21.6221 17.8685C21.5834 17.8551 21.5483 17.8329 21.5193 17.804C21.4904 17.7751 21.4684 17.74 21.455 17.7014C21.4416 17.6628 21.4372 17.6218 21.442 17.5812C21.442 17.281 21.953 17.0809 22.6544 17.0809C22.965 17.0809 23.1654 17.1808 23.1654 17.3809C23.1654 17.581 22.975 17.681 22.6644 17.781H22.6544ZM23.7766 16.1702C23.3689 16.1813 22.971 16.0461 22.6547 15.7891C22.3385 15.532 22.125 15.1702 22.0532 14.7694C22.058 14.6913 22.0911 14.6175 22.1465 14.5622C22.2019 14.5069 22.2757 14.4736 22.3538 14.4689C22.4116 14.4715 22.4678 14.4886 22.5175 14.5182C22.5672 14.5478 22.6087 14.5894 22.6385 14.6389C22.6682 14.6885 22.6852 14.7444 22.688 14.8021C22.6908 14.8598 22.6792 14.9171 22.6544 14.9692C22.7563 14.9686 22.8571 14.9466 22.9499 14.9042C23.0426 14.8619 23.1253 14.8005 23.1925 14.7239C23.2597 14.6474 23.3099 14.5575 23.3398 14.4601C23.3696 14.3627 23.3786 14.2602 23.3658 14.1591C23.3658 13.8589 22.965 13.5587 22.5542 13.5587C22.3382 13.5634 22.1287 13.6328 21.953 13.7585C21.8295 13.2916 21.6225 12.8511 21.3418 12.4579C20.9411 12.1577 20.9411 12.1578 20.8409 12.558C20.6804 13.0112 20.6804 13.5056 20.8409 13.9588C20.6305 13.9588 19.8389 14.0589 19.8389 14.7694C19.8389 15.2697 20.1395 15.4695 20.3399 15.4695C20.5283 15.4641 20.709 15.3936 20.8509 15.2697C20.6405 15.1696 20.6404 15.1694 20.6404 15.0694C20.6644 14.9982 20.7052 14.934 20.7593 14.8818C20.8133 14.8295 20.8791 14.791 20.9511 14.7694C21.2517 14.7694 21.3519 15.0697 21.3519 15.3699C21.3575 15.5304 21.3299 15.69 21.2709 15.8394C21.212 15.9888 21.1229 16.1245 21.0092 16.2381C20.8954 16.3516 20.7596 16.4406 20.6099 16.4995C20.4603 16.5583 20.3001 16.5862 20.1394 16.5806C19.8608 16.6033 19.5835 16.5231 19.3601 16.3553C19.1366 16.1875 18.9826 15.9435 18.9271 15.6698C19.1425 15.6832 19.35 15.7559 19.5268 15.8794C19.7036 16.003 19.8428 16.1729 19.929 16.3705L20.1295 16.2703L18.917 13.3583L18.7067 13.4585C18.8655 13.6671 18.972 13.9107 19.0172 14.1689C19.0172 14.4691 18.8169 14.8695 18.6065 14.8695C18.3961 14.8695 18.406 14.6692 18.406 14.1689C18.4202 13.7488 18.5227 13.3363 18.7067 12.9582C18.3749 12.4427 18.169 11.8567 18.1055 11.2472C18.1134 10.5818 18.3822 9.94613 18.8543 9.47652C19.3264 9.00691 19.9642 8.74053 20.6305 8.73534C22.0533 8.73534 22.454 9.54584 24.5782 9.73596V11.9473C24.4677 12.0526 24.328 12.1226 24.1774 12.1476V12.3479C24.7886 12.8483 25.1793 12.8482 25.2895 13.7487C24.5781 13.7487 24.2877 13.5485 23.8768 12.6479H23.5662V15.8599H23.7766C23.8767 15.5575 24.0645 15.2917 24.3159 15.0958C24.5674 14.8998 24.8713 14.7826 25.1894 14.7591C25.0791 15.4395 24.7986 16.1702 23.7866 16.1702H23.7766ZM25.6903 17.781L25.0892 17.2807L25.6903 16.6807L26.3015 17.2807L25.6903 17.781ZM29.7483 17.8812C29.5379 17.8812 28.9367 17.781 28.8365 17.781C28.5259 17.681 28.3255 17.6811 28.3255 17.3809C28.3255 17.0807 28.5259 17.0809 28.8365 17.0809C29.5379 17.0809 30.0489 17.281 30.0489 17.5812C30.0444 17.6577 30.0126 17.7299 29.9593 17.7849C29.906 17.84 29.8348 17.8741 29.7584 17.8812H29.7483ZM31.9727 18.3815L31.8725 17.9813L32.2733 17.8812L32.3735 18.2813L31.9727 18.3815ZM33.0848 14.1591C33.0848 14.6695 33.0849 14.7695 32.8845 14.8695C32.6841 14.9696 32.5738 14.4693 32.5738 14.1591C32.6245 13.9203 32.6948 13.6858 32.7842 13.4585L32.5738 13.3583L31.3615 16.2703L31.5618 16.3705C31.6499 16.1742 31.7897 16.0052 31.9661 15.8819C32.1425 15.7586 32.349 15.6854 32.5638 15.6698C32.5062 15.9416 32.3512 16.1832 32.128 16.349C31.9048 16.5148 31.6287 16.5934 31.3515 16.5703C31.1912 16.5773 31.0313 16.5513 30.8817 16.4936C30.7321 16.4359 30.5961 16.3479 30.4822 16.2351C30.3683 16.1224 30.279 15.9873 30.22 15.8384C30.1609 15.6895 30.1334 15.5299 30.1391 15.3699C30.1391 15.0697 30.2392 14.7694 30.5398 14.7694C30.6126 14.7894 30.6793 14.8273 30.7336 14.8798C30.7878 14.9323 30.828 14.9974 30.8505 15.0694C30.8505 15.1694 30.8505 15.1696 30.7503 15.2697C30.6501 15.3698 30.9507 15.4695 31.1511 15.4695C31.3239 15.4542 31.4839 15.3729 31.5978 15.2423C31.7117 15.1118 31.7707 14.9424 31.7623 14.7694C31.7623 14.0589 30.8505 13.9588 30.6501 13.9588C30.8007 13.504 30.8007 13.0129 30.6501 12.558C30.5399 12.1578 30.5399 12.1577 30.1391 12.4579C29.8585 12.8511 29.6513 13.2916 29.5278 13.7585C29.3522 13.6328 29.1427 13.5634 28.9267 13.5587C28.5159 13.5587 28.1151 13.8589 28.1151 14.1591C28.1024 14.2602 28.1112 14.3627 28.1411 14.4601C28.1709 14.5575 28.2211 14.6474 28.2883 14.7239C28.3556 14.8005 28.4384 14.8619 28.5311 14.9042C28.6239 14.9466 28.7245 14.9686 28.8265 14.9692C28.8016 14.9171 28.7901 14.8598 28.7929 14.8021C28.7956 14.7444 28.8128 14.6885 28.8425 14.6389C28.8723 14.5894 28.9138 14.5478 28.9635 14.5182C29.0131 14.4886 29.0694 14.4715 29.1271 14.4689C29.2053 14.4736 29.2789 14.5069 29.3343 14.5622C29.3897 14.6175 29.4229 14.6913 29.4276 14.7694C29.3561 15.1685 29.1442 15.5288 28.83 15.7856C28.5159 16.0425 28.1202 16.1789 27.7143 16.1702C26.7124 16.1702 26.3917 15.4698 26.2915 14.7694C26.615 14.7781 26.9273 14.8895 27.1831 15.0875C27.439 15.2854 27.625 15.5595 27.7143 15.8702H27.9147V12.6582H27.6041C27.2033 13.5588 26.9027 13.7585 26.1913 13.7585C26.2915 12.8579 26.7023 12.858 27.4037 12.3577V12.1579C27.2178 12.1545 27.0396 12.0831 26.9027 11.9576V9.64606C28.616 9.43593 29.3275 8.64544 30.7503 8.64544C31.431 8.68774 32.0728 8.97631 32.556 9.45698C33.0391 9.93764 33.3305 10.5773 33.3755 11.2569C33.312 11.8664 33.1061 12.4525 32.7743 12.968C32.9625 13.3384 33.0717 13.7443 33.0949 14.1591H33.0848Z" fill="#5E5E5E"/>
<path fill-rule="evenodd" clip-rule="evenodd" d="M20.3399 43.0068C20.3399 43.0068 20.4401 44.5081 20.4401 46.1191C20.4401 47.7301 20.3399 49.5412 20.3399 49.5412H21.9631C21.9631 49.5412 21.8629 47.43 21.8629 46.1191C21.8629 44.8083 21.9631 43.0068 21.9631 43.0068H20.3399Z" fill="#5E5E5E"/>
<path fill-rule="evenodd" clip-rule="evenodd" d="M21.7527 46.1191C21.7527 46.1191 22.7546 45.0181 23.1755 44.5078L24.3879 43.0068H25.3899C25.3899 43.0068 23.5662 45.1184 23.1654 45.5187L22.1635 46.319L21.7527 46.1191Z" fill="#5E5E5E"/>
<path fill-rule="evenodd" clip-rule="evenodd" d="M22.8749 45.7185L25.6002 49.5412H23.8869L21.883 46.5393L21.7726 46.1392L22.8948 45.7385L22.8749 45.7185ZM11.0316 43.0068H12.4444V45.6188C12.4444 46.6194 12.1438 49.1308 14.1678 49.1308C15.7809 49.1308 15.9914 47.8301 15.9914 46.5193V43.0068H16.9031V46.1191C16.7929 47.6301 16.9031 49.6414 13.8972 49.6414C10.8913 49.6414 11.0717 47.43 11.0717 46.9297V43.0068H11.0316ZM19.2277 51.7525H20.0393C20.0393 51.7525 19.9391 52.5528 19.9391 53.0532C19.9391 53.5535 19.8289 54.9645 20.9411 54.9645C21.7426 54.9645 21.943 54.2639 21.943 53.5535C21.943 52.843 21.8429 51.7525 21.8429 51.7525H22.3438V53.3536C22.3438 54.1641 22.3438 55.2645 20.7207 55.2645C20.5162 55.2886 20.3088 55.2664 20.1142 55.199C19.9197 55.1316 19.743 55.021 19.5974 54.8756C19.4518 54.7302 19.3411 54.5534 19.2736 54.3591C19.2061 54.1649 19.1836 53.958 19.2077 53.7538V51.7525H19.2277ZM23.1754 55.1648C23.1754 55.1648 23.3758 54.6643 23.5762 53.9639C23.7283 53.5363 23.9337 53.1296 24.1874 52.7532C24.1874 52.7532 24.488 53.5538 24.6884 54.1642L25.0992 55.1648H26.0111C26.0111 55.1648 25.6002 54.2643 25.1994 53.4538C24.999 52.9535 24.5882 51.7525 24.5882 51.7525H24.1874C24.1874 51.7525 23.3758 53.5537 23.1855 54.064C22.9951 54.5744 22.6744 55.1648 22.6744 55.1648H23.1754Z" fill="#5E5E5E"/>
<path fill-rule="evenodd" clip-rule="evenodd" d="M23.4761 54.1641H24.9991V53.8638H23.4761V54.1641Z" fill="#5E5E5E"/>
<path fill-rule="evenodd" clip-rule="evenodd" d="M28.6362 49.5412C28.893 48.753 29.1974 47.981 29.5479 47.2297C30.0589 45.8188 30.4598 44.9182 30.4598 44.9182C30.4598 44.9182 31.1711 46.5191 31.5719 47.5297C31.9727 48.5403 32.2833 49.5309 32.2833 49.5309H33.9066C33.9066 49.5309 33.1951 47.82 32.4837 46.209C32.083 45.3085 31.2714 42.9971 31.2714 42.9971H30.4598C30.4598 42.9971 28.9468 46.5093 28.6463 47.5199L27.7344 49.5212L28.6362 49.5412Z" fill="#5E5E5E"/>
<path fill-rule="evenodd" clip-rule="evenodd" d="M29.1472 47.6298H31.9827V47.0293H29.1472V47.6298ZM12.5446 59.9876C12.5446 59.9876 12.745 59.3874 13.0556 58.687C13.1736 58.2648 13.3418 57.8579 13.5566 57.4758C13.5566 57.4758 13.8572 58.3765 14.0676 58.8868C14.2079 59.247 14.3482 59.6174 14.4684 59.9876H15.3801L14.5686 58.1764C14.3682 57.6761 13.9674 56.4751 13.9674 56.4751H13.5566C13.5566 56.4751 12.745 58.3765 12.5546 58.8868C12.3643 59.3971 12.0536 59.9876 12.0536 59.9876H12.5446Z" fill="#5E5E5E"/>
<path fill-rule="evenodd" clip-rule="evenodd" d="M12.8453 58.9869H14.3683V58.6869H12.8453V58.9869ZM20.0393 59.9875C20.0393 59.9875 20.2397 59.3874 20.5403 58.6869C20.8409 57.9865 21.0513 57.4757 21.0513 57.4757C21.0513 57.4757 21.4521 58.3764 21.6525 58.8868C21.7923 59.2424 21.8965 59.6113 21.9631 59.9875H22.875C22.875 59.9875 22.4641 59.0869 22.1635 58.1764C21.9631 57.676 21.4521 56.4751 21.4521 56.4751H21.0513C21.0513 56.4751 20.2397 58.3764 20.0493 58.8868C19.859 59.3971 19.5383 59.9875 19.5383 59.9875H20.0393Z" fill="#5E5E5E"/>
<path fill-rule="evenodd" clip-rule="evenodd" d="M20.3399 58.9869H21.8629V58.6869H20.3399V58.9869ZM40.1787 43.3072L39.9784 44.3078L39.7781 44.2076C39.6759 43.9994 39.5177 43.8237 39.3214 43.7C39.125 43.5763 38.8981 43.5093 38.6659 43.507C37.8543 43.507 37.6639 44.0077 37.6639 44.4079C37.6639 44.8082 37.9645 45.2184 38.7761 45.6187C39.3076 45.7129 39.7797 46.0137 40.0888 46.4556C40.398 46.8975 40.5186 47.4443 40.4242 47.9751C40.3299 48.5059 40.0283 48.9773 39.5858 49.286C39.1433 49.5947 38.5961 49.7154 38.0646 49.6212C36.752 49.6212 36.4414 49.2107 36.4414 49.2107L36.7521 48.11H36.8523C36.926 48.3814 37.0822 48.6236 37.2993 48.8028C37.5164 48.982 37.7838 49.0894 38.0646 49.1106C39.0666 49.1106 39.3772 48.7102 39.3772 48.0098C39.3772 47.3094 38.4655 47.0096 37.7641 46.6994C37.4028 46.5443 37.0896 46.2954 36.857 45.9787C36.6245 45.662 36.481 45.2887 36.4414 44.898C36.4487 44.6175 36.5132 44.3412 36.631 44.0864C36.7489 43.8317 36.9175 43.604 37.1267 43.4166C37.3359 43.2292 37.5813 43.0863 37.8476 42.9969C38.114 42.9075 38.3958 42.8735 38.6758 42.8967C39.2098 42.8674 39.7394 43.0074 40.1888 43.2969L40.1787 43.3072ZM17.3039 55.1647C17.6851 55.0713 18.023 54.8509 18.2616 54.5398C18.5003 54.2286 18.6256 53.8455 18.6166 53.4536C18.6217 53.2053 18.5744 52.9584 18.4779 52.7295C18.3814 52.5007 18.2378 52.2945 18.0564 52.1247C17.875 51.9548 17.6598 51.825 17.4249 51.7436C17.19 51.6622 16.9405 51.6311 16.6928 51.6522C16.189 51.6303 15.6968 51.8069 15.322 52.1437C14.9472 52.4806 14.7199 52.951 14.6888 53.4536C14.6912 53.7002 14.7434 53.9435 14.8423 54.1694C14.9413 54.3953 15.0849 54.5988 15.2645 54.7679C15.4442 54.9371 15.6562 55.0681 15.8878 55.1534C16.1195 55.2387 16.3661 55.2765 16.6126 55.2643L17.9352 56.265L18.6365 55.9552L17.324 55.1544L17.3039 55.1647ZM15.4804 53.4536C15.4804 52.453 15.9914 51.9527 16.6928 51.9527C17.3941 51.9527 17.8049 52.453 17.8049 53.4536C17.8049 54.4543 17.304 54.9643 16.6928 54.9643C16.0816 54.9643 15.4804 54.5641 15.4804 53.4634V53.4536ZM26.502 51.7524V55.1647H28.506V54.8642H27.2935C27.2935 54.8642 27.1933 53.8638 27.1933 53.3535C27.1933 52.8432 27.2935 51.7524 27.2935 51.7524H26.502ZM29.1372 51.7524V55.1647H29.9487V51.7524H29.1372ZM30.5499 51.7524V52.1525C30.7156 52.0988 30.8871 52.0651 31.0609 52.0524H31.4617C31.4617 52.0524 31.5619 53.053 31.5619 53.5533C31.5619 54.0536 31.4617 55.1647 31.4617 55.1647H32.2734V52.0524H32.6841C32.8547 52.0642 33.023 52.098 33.1851 52.1525V51.7524H30.5499ZM40.9804 56.4751V56.8757H41.8922V59.9875H42.7037V56.8757H43.6155V56.4751H40.9804ZM33.5859 51.7524V51.8525L34.5878 53.6535V55.1647H35.3995V53.5533L36.5116 51.7524H36.0107L35.199 53.2533L34.3875 51.7524H33.5859ZM7.47473 59.9875C7.47473 59.9875 7.67505 58.5866 7.77525 58.1763C7.81333 57.6058 7.88354 57.0377 7.98562 56.4751H8.38643C8.38643 56.4751 8.8875 57.3759 9.09791 57.7762C9.30832 58.1764 9.59889 58.8867 9.59889 58.8867C9.59889 58.8867 10.1099 58.0762 10.3102 57.676L10.9114 56.4751H11.3222C11.3222 56.4751 11.4224 57.7762 11.5226 58.2765C11.6228 58.7768 11.7231 59.9875 11.7231 59.9875H10.9114C10.9114 59.9875 10.8112 59.0867 10.8112 58.7866C10.8112 58.4864 10.7111 57.5758 10.7111 57.5758L10.1099 58.7866C9.89949 59.2869 9.4986 59.9875 9.4986 59.9875H9.39843C9.39843 59.9875 8.88746 59.0871 8.68707 58.6869C8.50067 58.3634 8.33339 58.0293 8.18609 57.6863C8.12687 58.0537 8.09342 58.4247 8.08592 58.7968C7.9757 59.2971 7.87542 59.9973 7.87542 59.9973L7.47473 59.9875ZM29.6382 59.9875C29.6382 59.9875 29.8485 58.5866 29.9487 58.1763C29.985 57.6061 30.0519 57.0381 30.1492 56.4751H30.5499C30.5499 56.4751 30.9607 57.3759 31.1611 57.7762C31.3615 58.1764 31.7724 58.8867 31.7724 58.8867L32.3735 57.676L32.9847 56.4751H33.3855C33.3855 56.4751 33.5858 57.7762 33.6961 58.2765C33.7249 58.8506 33.7919 59.4222 33.8965 59.9875H33.0949C33.0535 59.5834 32.9866 59.1822 32.8946 58.7866V57.5758C32.6815 57.9931 32.4439 58.3973 32.1831 58.7866C31.9827 59.2869 31.6821 59.9875 31.6821 59.9875H31.4717C31.4717 59.9875 31.071 59.0871 30.8706 58.6869C30.6823 58.3628 30.5117 58.0288 30.3596 57.6863C30.3596 57.6863 30.2593 58.2865 30.1591 58.7968C30.1487 59.1986 30.1152 59.5993 30.0589 59.9973L29.6382 59.9875ZM15.8811 59.9875C15.8811 59.9875 15.9814 58.7867 15.9814 58.1763V56.4653H16.4824C16.4824 56.4653 17.4843 57.5659 17.7949 57.8661C18.0815 58.2149 18.3859 58.5489 18.7067 58.8667V56.4653H19.1176V59.9772H18.7067C18.7067 59.9772 18.0054 59.277 17.4944 58.6766C17.1547 58.2766 16.7826 57.9053 16.3821 57.5661C16.327 57.8971 16.2936 58.2313 16.2819 58.5667C16.2819 58.9669 16.3821 59.9675 16.3821 59.9675L15.8811 59.9875ZM37.233 59.9875C37.1795 59.385 37.1795 58.7788 37.233 58.1763V56.4653H37.744C37.744 56.4653 38.7459 57.5659 39.0566 57.8661C39.3403 58.2174 39.6448 58.5515 39.9684 58.8667V56.4653H40.3692V59.9772H39.9684C39.5622 59.5752 39.1902 59.1403 38.8562 58.6766C38.3452 58.1663 37.6439 57.5661 37.6439 57.5661V59.9772L37.233 59.9875ZM26.4017 56.6754L26.2014 57.1757C26.0728 57.0059 25.9035 56.8713 25.7092 56.7838C25.5149 56.6964 25.3017 56.6591 25.0892 56.6754C24.719 56.7085 24.3757 56.8834 24.1312 57.163C23.8866 57.4426 23.7596 57.8054 23.7766 58.1763C23.7766 59.0869 24.2777 59.6875 24.9891 59.6875C25.7004 59.6875 25.6904 59.5873 25.6904 59.5873V58.4665H26.502C26.4343 58.6281 26.4001 58.8015 26.4017 58.9766V59.7774C25.983 59.9348 25.5359 60.0027 25.0892 59.9772C24.0873 59.9772 22.9651 59.577 22.9651 58.2662C22.9908 57.753 23.2132 57.2697 23.5863 56.9158C23.9593 56.5618 24.4544 56.3645 24.969 56.3651C25.4576 56.3461 25.9433 56.4496 26.3818 56.6656L26.4017 56.6754ZM27.2134 56.4751V59.9875H29.2173V59.5873H28.0851V58.3766C28.2431 58.3081 28.4139 58.2739 28.5861 58.2765C28.7923 58.2919 28.9969 58.3254 29.1973 58.3766V57.976H28.0851V56.7755H28.5861C28.7923 56.7909 28.9969 56.8245 29.1973 56.8757V56.4751H27.2734H27.2134ZM34.4977 56.4751V59.9875H36.5016V59.5873H35.2892V58.3766C35.4504 58.3073 35.6246 58.2731 35.8002 58.2765C36.0391 58.2954 36.2768 58.3289 36.5116 58.3766V57.976H35.2892V56.7755H35.8002C36.04 56.7859 36.2783 56.8195 36.5116 56.8757V56.4751H34.5077H34.4977Z" fill="#5E5E5E"/>
<path d="M51 64H0.0300293V-0.0400391H51.0301L51 64ZM1.40272 62.6095H49.6072V1.4311H1.40272V62.6095Z" fill="#5E5E5E"/>
</g>
<defs>
<clipPath id="clip0_98_1027">
<rect width="51" height="64" fill="white"/>
</clipPath>
</defs>
</svg>
