<svg width="58" height="58" viewBox="0 0 58 58" fill="none" xmlns="http://www.w3.org/2000/svg">
<g clip-path="url(#clip0_98_1039)">
<path d="M58.0001 28.9851C57.9981 34.715 56.2958 40.3157 53.1085 45.0792C49.9212 49.8426 45.3919 53.5551 40.0933 55.7469C34.7946 57.9388 28.9645 58.5114 23.34 57.3931C17.7155 56.2748 12.549 53.5156 8.49391 49.4639C4.43878 45.4122 1.67699 40.2501 0.557706 34.6303C-0.561581 29.0106 0.0119465 23.1854 2.20566 17.8912C4.39938 12.5971 8.11484 8.0716 12.8823 4.887C17.6499 1.7024 23.2553 0.00195261 28.9901 0C36.684 0 44.0628 3.05357 49.5032 8.48935C54.9436 13.9251 58.0001 21.2977 58.0001 28.9851ZM5.37517 28.9851C5.37517 33.6575 6.76181 38.2252 9.35992 42.1103C11.958 45.9953 15.6509 49.0231 19.9714 50.8112C24.2918 52.5993 29.046 53.0672 33.6326 52.1557C38.2193 51.2441 42.4323 48.9939 45.7391 45.6899C49.0459 42.386 51.2977 38.1766 52.2101 33.5939C53.1224 29.0112 52.6542 24.2611 50.8646 19.9442C49.075 15.6274 46.0443 11.938 42.156 9.34209C38.2677 6.74619 33.6962 5.36037 29.0197 5.36037C25.9128 5.35647 22.8356 5.96518 19.9645 7.15166C17.0934 8.33814 14.4848 10.0793 12.2883 12.2749C10.0918 14.4704 8.35042 17.0775 7.16413 19.9467C5.97784 22.8158 5.36997 25.8904 5.37517 28.9947V28.9851Z" fill="#5E5E5E"/>
<path d="M23.862 13.4653H29.1779C29.1779 13.5542 29.1779 13.6233 29.1779 13.6924V30.2782C29.1839 31.2907 28.9995 32.2954 28.6344 33.2399C28.3649 33.9689 27.9318 34.6266 27.3683 35.1623C26.8048 35.698 26.1259 36.0973 25.3837 36.3298C23.2629 37.048 20.9682 37.0721 18.8328 36.3988C17.8445 36.118 16.9585 35.5578 16.2818 34.7853C15.605 34.0129 15.1665 33.0613 15.0188 32.0454C14.898 31.4238 14.8318 30.7927 14.8211 30.1596C14.8211 24.6838 14.8211 19.2078 14.8211 13.7319C14.817 13.653 14.817 13.5741 14.8211 13.4952H15.1374C16.6722 13.4952 18.2036 13.4952 19.7318 13.4952C20.1962 13.4952 20.137 13.4458 20.137 13.89C20.137 19.4185 20.137 24.9372 20.137 30.4657C20.1322 30.7965 20.1587 31.1271 20.2161 31.4529C20.2641 31.8167 20.4429 32.1504 20.7193 32.392C20.9957 32.6336 21.3506 32.7668 21.7179 32.766C21.971 32.8073 22.23 32.7932 22.4773 32.7251C22.7245 32.657 22.954 32.5363 23.1502 32.3713C23.3463 32.2062 23.5045 32.001 23.6137 31.7692C23.7229 31.5374 23.7807 31.2845 23.783 31.0283C23.7975 30.7948 23.7975 30.5608 23.783 30.3274C23.783 24.8449 23.783 19.3659 23.783 13.89L23.862 13.4653Z" fill="#5E5E5E"/>
<path d="M43.2579 39.9728C43.2579 40.0814 43.2579 40.1508 43.2579 40.2297C43.2579 41.5724 43.2579 42.9245 43.2579 44.277C43.2579 44.4843 43.1986 44.534 42.9911 44.534H31.3713V21.709H31.6381C33.2191 21.709 34.8 21.709 36.3809 21.709C36.628 21.709 36.6872 21.7883 36.6872 22.0252C36.6872 27.8993 36.6872 33.763 36.6872 39.6272C36.6872 39.9925 36.6872 39.9926 37.0528 39.9926H43.2381L43.2579 39.9728Z" fill="#5E5E5E"/>
</g>
<defs>
<clipPath id="clip0_98_1039">
<rect width="58" height="58" fill="white"/>
</clipPath>
</defs>
</svg>
