<svg width="22" height="24" viewBox="0 0 22 24" fill="none" xmlns="http://www.w3.org/2000/svg">
<path d="M0 4.7551L11 0L22 4.7551L21 17.898L11 24L1 17.898L0 4.7551Z" fill="white"/>
<path d="M11.5662 18.7796C12.1842 19.7343 16.3405 17.4944 15.9794 13.9601C15.7224 11.4632 13.6842 10.0525 12.8995 8.81018C12.1148 7.56783 11.3682 6.42646 11.8578 5.17186C12.1182 4.52009 12.4863 4.28141 12.0037 4.02131C11.521 3.76121 7.44464 5.85731 7.08005 8.77346C6.28839 12.5158 8.73979 12.6933 8.22243 13.0176C7.70507 13.342 6.48631 12.4056 6.30228 11.1113C6.16686 10.1229 6.32658 9.42524 5.95506 9.34568C5.58353 9.26612 4.41687 11.6101 5.30923 14.5782C6.20159 17.5464 9.44116 18.189 9.44116 18.189C9.52779 18.2287 9.62427 18.2489 9.72192 18.2477C9.81957 18.2465 9.91535 18.224 10.0007 18.1821C10.086 18.1403 10.1582 18.0804 10.2109 18.0079C10.2635 17.9354 10.2949 17.8525 10.3023 17.7667C10.4203 17.0752 8.97935 16.9803 8.68074 15.7716C8.47241 14.9424 8.75367 14.2416 9.19117 14.0244C9.42728 13.9112 9.66686 14.1162 9.53839 14.6364C9.337 15.3493 10.1877 15.6829 10.4481 15.4993C11.2953 14.9056 9.92033 14.4956 9.92033 13.0023C9.92033 11.3438 11.3335 10.6094 11.7051 10.7838C12.1426 10.9858 11.5453 11.454 12.0106 12.2618C12.528 13.1584 14.0523 14.7496 13.2745 16.3377C12.462 17.9748 11.0557 18.0085 11.5662 18.7796Z" fill="#14256A"/>
</svg>
