<svg width="24" height="26" viewBox="0 0 24 26" fill="none" xmlns="http://www.w3.org/2000/svg">
<path d="M1 5.7551L12 1L23 5.7551L22 18.898L12 25L2 18.898L1 5.7551Z" stroke="#14256A" stroke-width="2" stroke-linejoin="round"/>
<path d="M16.5896 10.0994L9.56084 16.9495C8.60283 17.8717 7.34669 19.104 5.91166 18.2891C4.77875 17.6451 4.78668 16.4089 5.4704 15.7808C5.63246 15.634 5.82827 15.5296 6.0404 15.4767C6.25253 15.4238 6.47442 15.4241 6.68641 15.4776C6.89839 15.5311 7.09388 15.6361 7.25553 15.7833C7.41718 15.9305 7.53998 16.1154 7.61301 16.3214" stroke="#14256A" stroke-width="1.5" stroke-linecap="round" stroke-linejoin="round"/>
<path d="M15.7421 7.65771L11.1588 12.0781C10.2007 13.0003 8.9446 14.2326 7.50957 13.4177C6.38063 12.7737 6.38859 11.5335 7.07231 10.9094C7.23358 10.7616 7.42906 10.6562 7.64117 10.6027C7.85328 10.5492 8.07536 10.5492 8.28745 10.6028C8.49953 10.6564 8.69498 10.7619 8.85618 10.9098C9.01738 11.0577 9.13929 11.2433 9.21094 11.45" stroke="#14256A" stroke-width="1.5" stroke-linecap="round" stroke-linejoin="round"/>
<path d="M14.7355 5L12.3389 7.45021C11.3809 8.37642 10.1248 9.60473 8.68975 8.78983C7.5608 8.14585 7.56876 6.90959 8.25249 6.28151C8.41416 6.13469 8.60963 6.03016 8.82152 5.97721C9.0334 5.92427 9.25509 5.92456 9.46682 5.97809C9.67856 6.03161 9.87375 6.13669 10.035 6.28396C10.1963 6.43123 10.3186 6.61611 10.3911 6.82213" stroke="#14256A" stroke-width="1.5" stroke-linecap="round" stroke-linejoin="round"/>
<path d="M18.9998 11.0266L15.9787 13.9404C15.0207 14.8626 13.7407 16.0711 14.5039 17.518C15.1042 18.6708 16.3444 18.7106 16.9964 18.0467C17.1493 17.8903 17.2611 17.6985 17.3217 17.4883C17.3824 17.2782 17.39 17.0563 17.3439 16.8425C17.2978 16.6287 17.1995 16.4296 17.0577 16.2631C16.9159 16.0965 16.735 15.9678 16.5313 15.8882" stroke="#14256A" stroke-width="1.5" stroke-linecap="round" stroke-linejoin="round"/>
</svg>
