<svg width="27" height="26" viewBox="0 0 27 26" fill="none" xmlns="http://www.w3.org/2000/svg">
<path d="M13.9676 4.04537e-05C10.6988 -0.00815428 7.54748 1.22893 5.14442 3.4637C2.74137 5.69847 1.26378 8.76605 1.00748 12.0525C0.75117 15.3389 1.7351 18.6017 3.76218 21.1879C5.78926 23.774 8.71002 25.4928 11.9399 26V16.8562H8.64724V13.0779H11.9399V10.1566C11.9399 6.87495 13.871 5.06371 16.845 5.06371C17.8154 5.07762 18.7835 5.16223 19.7417 5.31689V8.59854H18.1098C17.8308 8.56077 17.5471 8.5869 17.2795 8.67498C17.0119 8.76307 16.7674 8.91085 16.5642 9.10734C16.361 9.30382 16.2043 9.54397 16.1058 9.80992C16.0073 10.0759 15.9696 10.3608 15.9953 10.6435V13.0779H19.5872L19.0175 16.8562H15.9953V26C19.2251 25.4928 22.1459 23.774 24.173 21.1879C26.2001 18.6017 27.1839 15.3389 26.9276 12.0525C26.6713 8.76605 25.1938 5.69847 22.7908 3.4637C20.3877 1.22893 17.2364 -0.00815428 13.9676 4.04537e-05Z" fill="#404040"/>
</svg>
