<svg width="30" height="22" viewBox="0 0 30 22" fill="none" xmlns="http://www.w3.org/2000/svg">
<g clip-path="url(#clip0_321_293)">
<path d="M29.3767 3.4365C29.2029 2.77066 28.8665 2.16378 28.4007 1.67568C27.9348 1.18758 27.3555 0.835112 26.72 0.653034C24.3801 -7.52962e-06 15 0 15 0C15 0 5.61984 -7.52962e-06 3.27992 0.653034C2.64442 0.835112 2.06529 1.18758 1.59942 1.67568C1.13355 2.16378 0.797056 2.77066 0.623271 3.4365C-0.207757 8.44124 -0.207757 13.5588 0.623271 18.5635C0.795194 19.2303 1.13102 19.8382 1.59717 20.3266C2.06333 20.815 2.64349 21.1668 3.27992 21.347C5.61984 22 15 22 15 22C15 22 24.3801 22 26.72 21.347C27.3565 21.1668 27.9366 20.815 28.4028 20.3266C28.8689 19.8382 29.2048 19.2303 29.3767 18.5635C30.2077 13.5588 30.2077 8.44124 29.3767 3.4365V3.4365ZM12.0061 15.7158V6.28418L19.8024 11.0054L12.0061 15.7158Z" fill="#404040"/>
</g>
<defs>
<clipPath id="clip0_321_293">
<rect width="30" height="22" fill="white"/>
</clipPath>
</defs>
</svg>
