<svg width="22" height="22" viewBox="0 0 22 22" fill="none" xmlns="http://www.w3.org/2000/svg">
<path d="M11 0C8.82441 0 6.6977 0.645139 4.88876 1.85384C3.07982 3.06253 1.66986 4.7805 0.837299 6.79048C0.00473517 8.80047 -0.21306 11.0122 0.211378 13.146C0.635815 15.2798 1.68349 17.2398 3.22186 18.7782C4.76024 20.3166 6.72022 21.3642 8.85401 21.7886C10.9878 22.2131 13.1996 21.9952 15.2095 21.1627C17.2195 20.3301 18.9375 18.9202 20.1462 17.1113C21.3549 15.3023 22 13.1756 22 11C21.9982 8.08316 20.8387 5.2863 18.7762 3.22378C16.7137 1.16126 13.9168 0.00176832 11 0ZM10.119 20.6183C9.46012 19.7658 8.90859 18.8355 8.47693 17.8483C9.09101 17.8483 9.7051 17.7882 10.3325 17.7749V20.6317L10.119 20.6183ZM5.78038 11.6675C5.82107 13.3596 6.09738 15.0377 6.60137 16.6535C5.52673 16.7536 4.49879 16.9072 3.49091 17.074C2.24161 15.5345 1.50004 13.6457 1.3683 11.6675H5.78038ZM1.3683 10.3325C1.48232 8.66238 2.03238 7.05134 2.96357 5.66019C4.07826 5.86711 5.22637 6.04066 6.4345 6.1608C6.05206 7.52784 5.82809 8.93433 5.76702 10.3526L1.3683 10.3325ZM7.07525 17.9551C7.39946 18.7552 7.79253 19.5257 8.25001 20.2579C6.91531 19.8603 5.6831 19.177 4.63894 18.2555C5.41989 18.122 6.22754 18.0218 7.06188 17.9417L7.07525 17.9551ZM11.6675 1.33495C12.5404 2.42271 13.2405 3.63842 13.7433 4.93932C13.0758 4.97937 12.3483 4.99939 11.6408 5.00607V1.33495H11.6675ZM11.6675 10.2992V6.36104C12.5285 6.36104 13.3829 6.32767 14.2172 6.27427C14.5975 7.59174 14.8215 8.94937 14.8847 10.3192L11.6675 10.2992ZM14.8781 11.6341C14.8328 13.2815 14.5495 14.9137 14.0371 16.48C13.2628 16.4333 12.4685 16.4132 11.6675 16.4066V11.6541L14.8781 11.6341ZM10.3325 1.33495V5.00607C9.62501 5.00607 8.92415 4.95935 8.23665 4.91262C8.73984 3.6215 9.43763 2.41498 10.3058 1.33495H10.3325ZM10.3325 6.34102V10.2992H7.12862C7.18841 8.92024 7.41248 7.55338 7.79609 6.22755C8.61041 6.30765 9.45814 6.34102 10.3325 6.36104V6.34102ZM10.3325 11.6341V16.4066C9.53156 16.4066 8.74391 16.4533 7.96964 16.5067C7.45172 14.9323 7.16614 13.2909 7.12193 11.6341H10.3325ZM11.6675 20.5983V17.7615C12.2949 17.7615 12.9157 17.7615 13.5298 17.8149C13.0985 18.8099 12.5446 19.7472 11.881 20.605L11.6675 20.5983ZM14.9448 17.8817C15.7903 17.9573 16.6179 18.0508 17.4278 18.162C16.3711 19.1153 15.1145 19.82 13.75 20.2245C14.2099 19.4857 14.6052 18.7085 14.9314 17.9017L14.9448 17.8817ZM15.412 16.5467C15.9083 14.9455 16.1801 13.2833 16.2196 11.6074H20.6317C20.4985 13.5558 19.7769 15.4178 18.5625 16.9472C17.5279 16.8271 16.4866 16.6869 15.3987 16.5934L15.412 16.5467ZM16.2196 10.2725C16.1553 8.86991 15.9314 7.47927 15.5522 6.12743C16.767 6.02063 17.935 5.85376 19.0564 5.66019C19.9593 7.0395 20.4926 8.62773 20.605 10.2725H16.2196ZM18.142 4.45206C17.1741 4.59891 16.1863 4.7324 15.1584 4.81918C14.7544 3.70096 14.2236 2.6327 13.5765 1.63532C15.3345 2.13925 16.9132 3.13229 18.1287 4.49879L18.142 4.45206ZM8.42356 1.63532C7.78487 2.61899 7.25873 3.6713 6.85501 4.77245C5.84712 4.67901 4.85257 4.53884 3.92478 4.37864C5.14216 3.08273 6.69468 2.14935 8.4102 1.68204L8.42356 1.63532Z" fill="#404040"/>
</svg>
