<svg width="24" height="26" viewBox="0 0 24 26" fill="none" xmlns="http://www.w3.org/2000/svg">
<path d="M1 5.7551L12 1L23 5.7551L22 18.898L12 25L2 18.898L1 5.7551Z" stroke="#14256A" stroke-width="2" stroke-linejoin="round"/>
<path d="M12.5662 19.7796C13.1842 20.7343 17.3405 18.4944 16.9794 14.9601C16.7224 12.4632 14.6842 11.0525 13.8995 9.81018C13.1148 8.56783 12.3682 7.42646 12.8578 6.17186C13.1182 5.52009 13.4863 5.28141 13.0037 5.02131C12.521 4.76121 8.44464 6.85731 8.08005 9.77346C7.28839 13.5158 9.73979 13.6933 9.22243 14.0176C8.70507 14.342 7.48631 13.4056 7.30228 12.1113C7.16686 11.1229 7.32658 10.4252 6.95506 10.3457C6.58353 10.2661 5.41687 12.6101 6.30923 15.5782C7.20159 18.5464 10.4412 19.189 10.4412 19.189C10.5278 19.2287 10.6243 19.2489 10.7219 19.2477C10.8196 19.2465 10.9154 19.224 11.0007 19.1821C11.086 19.1403 11.1582 19.0804 11.2109 19.0079C11.2635 18.9354 11.2949 18.8525 11.3023 18.7667C11.4203 18.0752 9.97935 17.9803 9.68074 16.7716C9.47241 15.9424 9.75367 15.2416 10.1912 15.0244C10.4273 14.9112 10.6669 15.1162 10.5384 15.6364C10.337 16.3493 11.1877 16.6829 11.4481 16.4993C12.2953 15.9056 10.9203 15.4956 10.9203 14.0023C10.9203 12.3438 12.3335 11.6094 12.7051 11.7838C13.1426 11.9858 12.5453 12.454 13.0106 13.2618C13.528 14.1584 15.0523 15.7496 14.2745 17.3377C13.462 18.9748 12.0557 19.0085 12.5662 19.7796Z" fill="#14256A"/>
</svg>
