<svg width="24" height="26" viewBox="0 0 24 26" fill="none" xmlns="http://www.w3.org/2000/svg">
<path d="M1 5.7551L12 1L23 5.7551L22 18.898L12 25L2 18.898L1 5.7551Z" stroke="#14256A" stroke-width="2" stroke-linejoin="round"/>
<path d="M14.5184 4.52096C13.8022 4.28943 14.1473 5.6688 12.8219 6.45422C11.4964 7.23963 9.8379 7.88566 8.77504 8.89225C7.71217 9.89884 7.11864 11.7639 8.41083 13.0406C9.88077 14.4889 11.9433 13.9481 12.8335 13.2027C13.985 12.2437 14.486 10.821 14.8913 9.43064C15.2967 8.04033 15.2345 4.75249 14.5184 4.52096Z" fill="#14256A"/>
<path d="M17.0996 12.7305C16.5193 12.6142 16.8928 13.6123 15.9078 14.3046C14.9229 14.9969 13.6647 15.6043 12.8971 16.4376C12.1296 17.2708 11.8005 18.7081 12.9204 19.5561C14.1878 20.5187 15.773 19.9542 16.4198 19.3361C17.2536 18.5296 17.5489 17.4402 17.7605 16.3614C17.9721 15.2825 17.6849 12.8566 17.0996 12.7305Z" fill="#14256A"/>
<path d="M9.87154 15.0291C9.55902 14.8543 9.57671 15.5154 8.89567 15.7455C8.21462 15.9756 7.37143 16.1096 6.77883 16.462C6.18624 16.8144 5.72631 17.627 6.18919 18.323C6.41139 18.6341 6.73865 18.8566 7.11209 18.9505C7.48554 19.0445 7.88066 19.0037 8.22641 18.8356C8.85439 18.5123 9.22586 17.9095 9.55017 17.3124C9.87448 16.7154 10.1811 15.2067 9.87154 15.0291Z" fill="#14256A"/>
</svg>
