<svg width="24" height="26" viewBox="0 0 24 26" fill="none" xmlns="http://www.w3.org/2000/svg" >

<path d="M1 5.7551L12 1L23 5.7551L22 18.898L12 25L2 18.898L1 5.7551Z" fill="white" stroke-width="2" stroke-linejoin="round"/>
<path d="M14.7777 11.5556V8.94971C14.7777 6.98744 13.6214 6 11.9999 6C10.3785 6 9.22217 7.15149 9.22217 8.94971V11.5556" stroke="#14256A" stroke-width="1.5" stroke-miterlimit="10"/>
<path d="M16.375 10.5557H7.625C7.45924 10.5557 7.30024 10.625 7.18303 10.7485C7.06582 10.872 7 11.0395 7 11.2141V18.7861C7 18.9607 7.06582 19.1282 7.18303 19.2517C7.30024 19.3752 7.45924 19.4446 7.625 19.4446H16.375C16.5408 19.4446 16.6997 19.3752 16.8169 19.2517C16.9341 19.1282 17 18.9607 17 18.7861V11.2141C17 11.0395 16.9341 10.872 16.8169 10.7485C16.6997 10.625 16.5408 10.5557 16.375 10.5557ZM12.8656 15.382V17.14C12.8656 17.3583 12.7833 17.5677 12.6367 17.722C12.4902 17.8764 12.2916 17.9631 12.0844 17.9631H11.9062C11.699 17.9631 11.5003 17.8764 11.3538 17.722C11.2073 17.5677 11.125 17.3583 11.125 17.14V15.382C10.8461 15.186 10.6344 14.9006 10.5213 14.568C10.4081 14.2355 10.3996 13.8735 10.4968 13.5354C10.594 13.1974 10.7919 12.9012 11.0612 12.6907C11.3305 12.4802 11.6568 12.3666 11.9921 12.3666C12.3274 12.3666 12.6539 12.4802 12.9232 12.6907C13.1924 12.9012 13.3904 13.1974 13.4876 13.5354C13.5848 13.8735 13.5762 14.2355 13.4631 14.568C13.35 14.9006 13.1383 15.186 12.8594 15.382H12.8656Z" stroke="#14256A"/>

</svg>
