<svg width="24" height="26" viewBox="0 0 24 26" fill="none" xmlns="http://www.w3.org/2000/svg">
<path d="M1 5.7551L12 1L23 5.7551L22 18.898L12 25L2 18.898L1 5.7551Z" fill="white" stroke-width="2" stroke-linejoin="round"/>
<path d="M15.8899 7.26377L14.9768 8.25225C14.9224 8.31117 14.8919 8.38975 14.8916 8.47158V18.5153C14.8916 18.5996 14.9237 18.6805 14.9808 18.7401C15.0378 18.7997 15.1152 18.8332 15.1959 18.8332H17.022C17.1028 18.8332 17.1801 18.7997 17.2372 18.7401C17.2943 18.6805 17.3264 18.5996 17.3264 18.5153V8.47158C17.3261 8.38975 17.2955 8.31117 17.2412 8.25225L16.3281 7.26377C16.2997 7.23301 16.2657 7.20855 16.228 7.19184C16.1904 7.17513 16.1499 7.1665 16.109 7.1665C16.0681 7.1665 16.0276 7.17513 15.99 7.19184C15.9523 7.20855 15.9183 7.23301 15.8899 7.26377Z" fill="#14256A"/>
<path d="M11.781 7.26377L10.8679 8.25225C10.8136 8.31117 10.783 8.38975 10.7827 8.47158V18.5153C10.7827 18.5996 10.8148 18.6805 10.8719 18.7401C10.929 18.7997 11.0063 18.8332 11.0871 18.8332H12.9131C12.9939 18.8332 13.0713 18.7997 13.1283 18.7401C13.1854 18.6805 13.2175 18.5996 13.2175 18.5153V8.47158C13.2172 8.38975 13.1867 8.31117 13.1323 8.25225L12.2192 7.26377C12.1908 7.23301 12.1568 7.20855 12.1191 7.19184C12.0815 7.17513 12.041 7.1665 12.0001 7.1665C11.9592 7.1665 11.9187 7.17513 11.8811 7.19184C11.8434 7.20855 11.8094 7.23301 11.781 7.26377Z" fill="#14256A"/>
<path d="M7.67259 7.26377L6.75954 8.25225C6.70516 8.31117 6.67463 8.38975 6.67432 8.47158V18.5153C6.67432 18.5996 6.7064 18.6805 6.76348 18.7401C6.82056 18.7997 6.89795 18.8332 6.97866 18.8332H8.80475C8.88547 18.8332 8.96286 18.7997 9.01993 18.7401C9.07701 18.6805 9.1091 18.5996 9.1091 18.5153V8.47158C9.10879 8.38975 9.07825 8.31117 9.02387 8.25225L8.11083 7.26377C8.08244 7.23301 8.04839 7.20855 8.01074 7.19184C7.97309 7.17513 7.93262 7.1665 7.89171 7.1665C7.8508 7.1665 7.81032 7.17513 7.77267 7.19184C7.73502 7.20855 7.70098 7.23301 7.67259 7.26377Z" fill="#14256A"/>
<path d="M18.6957 11.0461H5.30435C5.13626 11.0461 5 11.1884 5 11.364V12.6353C5 12.8109 5.13626 12.9532 5.30435 12.9532H18.6957C18.8637 12.9532 19 12.8109 19 12.6353V11.364C19 11.1884 18.8637 11.0461 18.6957 11.0461Z" fill="#14256A"/>
<path d="M18.6957 15.178H5.30435C5.13626 15.178 5 15.3203 5 15.4958V16.7672C5 16.9427 5.13626 17.085 5.30435 17.085H18.6957C18.8637 17.085 19 16.9427 19 16.7672V15.4958C19 15.3203 18.8637 15.178 18.6957 15.178Z" fill="#14256A"/>
</svg>
