<svg width="24" height="26" viewBox="0 0 24 26" fill="none" xmlns="http://www.w3.org/2000/svg">
<path d="M1 5.7551L12 1L23 5.7551L22 18.898L12 25L2 18.898L1 5.7551Z" fill="white" stroke-width="2" stroke-linejoin="round"/>
<path d="M11.7449 6.05285L5.36709 8.82166C5.25792 8.86908 5.16522 8.94594 5.10011 9.04299C5.03499 9.14004 5.00025 9.25318 5 9.36884V17.6994C5 17.7791 5.0328 17.8556 5.09115 17.912C5.14949 17.9683 5.2286 18 5.31111 18H7.17778V10.4842H16.8222V18H18.6889C18.7714 18 18.8505 17.9683 18.9089 17.912C18.9672 17.8556 19 17.7791 19 17.6994V9.36884C18.9998 9.25318 18.965 9.14004 18.8999 9.04299C18.8348 8.94594 18.7421 8.86908 18.6329 8.82166L12.2551 6.05285C12.1749 6.018 12.0879 6 12 6C11.9121 6 11.8251 6.018 11.7449 6.05285Z" fill="#14256A"/>
<path d="M15.5776 11.6865H8.42207C8.25025 11.6865 8.11096 11.8211 8.11096 11.9872V12.8891C8.11096 13.0551 8.25025 13.1897 8.42207 13.1897H15.5776C15.7495 13.1897 15.8887 13.0551 15.8887 12.8891V11.9872C15.8887 11.8211 15.7495 11.6865 15.5776 11.6865Z" fill="#14256A"/>
<path d="M15.5776 14.0918H8.42207C8.25025 14.0918 8.11096 14.2264 8.11096 14.3924V15.2943C8.11096 15.4604 8.25025 15.595 8.42207 15.595H15.5776C15.7495 15.595 15.8887 15.4604 15.8887 15.2943V14.3924C15.8887 14.2264 15.7495 14.0918 15.5776 14.0918Z" fill="#14256A"/>
<path d="M15.5776 16.4968H8.42207C8.25025 16.4968 8.11096 16.6314 8.11096 16.7975V17.6994C8.11096 17.8654 8.25025 18 8.42207 18H15.5776C15.7495 18 15.8887 17.8654 15.8887 17.6994V16.7975C15.8887 16.6314 15.7495 16.4968 15.5776 16.4968Z" fill="#14256A"/>
</svg>
