<svg width="24" height="26" viewBox="0 0 24 26" fill="none" xmlns="http://www.w3.org/2000/svg">
<path d="M1 5.7551L12 1L23 5.7551L22 18.898L12 25L2 18.898L1 5.7551Z" fill="white" stroke-width="2" stroke-linejoin="round"/>
<path d="M17.354 7.69428C17.2077 7.55617 17.0347 7.44849 16.8455 7.37762C16.6562 7.30675 16.4546 7.27416 16.2524 7.28173C16.0502 7.2893 15.8517 7.33691 15.6685 7.42173C15.4854 7.50655 15.3214 7.62683 15.1863 7.77548L14.3792 8.61001L16.5664 10.672L17.3735 9.83743C17.5175 9.69711 17.6315 9.52961 17.7087 9.34489C17.7859 9.16017 17.8248 8.96202 17.823 8.76213C17.8212 8.56223 17.7787 8.36468 17.6982 8.18125C17.6176 7.99781 17.5006 7.83222 17.354 7.69428Z" fill="#14256A"/>
<path d="M13.5718 9.44094L6.98317 16.2553C6.74519 16.4907 6.60166 16.8034 6.57914 17.1354L6.53484 18.6272C6.53237 18.6588 6.53709 18.6904 6.5486 18.72C6.56011 18.7495 6.57811 18.7762 6.60136 18.798C6.62461 18.8198 6.6525 18.8362 6.68297 18.846C6.71344 18.8558 6.74569 18.8587 6.77746 18.8546L8.2919 18.7578C8.62667 18.7197 8.93607 18.5632 9.16281 18.317L15.7554 11.5028L13.5718 9.44094Z" fill="#14256A"/>
<path d="M7.62169 7.32729L7.16095 7.78803C7.11696 7.83603 7.09261 7.89877 7.09261 7.96388C7.09261 8.02898 7.11696 8.09172 7.16095 8.13972L8.63108 9.60977C8.67664 9.65697 8.70209 9.72001 8.70209 9.78561C8.70209 9.85121 8.67664 9.91425 8.63108 9.96146L8.33915 10.2569L8.14922 10.4468L7.85377 10.7387C7.80657 10.7843 7.74353 10.8097 7.67793 10.8097C7.61233 10.8097 7.54928 10.7843 7.50208 10.7387L6.03204 9.26864C5.98404 9.22465 5.9213 9.20025 5.85619 9.20025C5.79108 9.20025 5.72834 9.22465 5.68035 9.26864L5.21961 9.72937C5.06387 9.94772 4.98708 10.2125 5.00178 10.4803C5.01648 10.7481 5.12178 11.003 5.30049 11.2029L6.87958 12.782C6.97494 12.8774 7.0882 12.9531 7.21281 13.0047C7.33742 13.0563 7.47101 13.0829 7.60589 13.0829C7.74077 13.0829 7.87427 13.0563 7.99888 13.0047C8.12349 12.9531 8.23675 12.8774 8.33211 12.782L8.6838 12.4303L14.7329 18.4794C14.9493 18.6958 15.2428 18.8174 15.5488 18.8174C15.8548 18.8174 16.1484 18.6958 16.3648 18.4794C16.5812 18.2631 16.7027 17.9695 16.7027 17.6635C16.7027 17.3575 16.5812 17.064 16.3648 16.8476L10.3156 10.7985L10.6673 10.4468C10.7627 10.3514 10.8384 10.2382 10.89 10.1136C10.9417 9.989 10.9682 9.85545 10.9682 9.72057C10.9682 9.58569 10.9417 9.4521 10.89 9.32749C10.8384 9.20288 10.7627 9.08967 10.6673 8.99431L9.08821 7.41522C8.88957 7.23719 8.63659 7.13161 8.37032 7.11564C8.10405 7.09968 7.84018 7.17427 7.62169 7.32729ZM15.8618 17.9871C15.8291 18.02 15.7902 18.0462 15.7473 18.064C15.7045 18.0819 15.6585 18.0911 15.6121 18.0911C15.5657 18.0911 15.5197 18.0819 15.4769 18.064C15.434 18.0462 15.3951 18.02 15.3624 17.9871C15.2969 17.9212 15.2602 17.832 15.2602 17.7391C15.2602 17.6462 15.2969 17.5571 15.3624 17.4912C15.3951 17.4582 15.434 17.4321 15.4769 17.4142C15.5197 17.3963 15.5657 17.3872 15.6121 17.3872C15.6585 17.3872 15.7045 17.3963 15.7473 17.4142C15.7902 17.4321 15.8291 17.4582 15.8618 17.4912C15.9282 17.5561 15.9663 17.6448 15.9676 17.7377C15.9689 17.8306 15.9334 17.9203 15.8688 17.9871H15.8618Z" fill="#14256A"/>
</svg>
